<svg width="393" height="300" viewBox="0 0 393 300" fill="none" xmlns="http://www.w3.org/2000/svg">
<path d="M61.5958 299.081L4.9612 299.555C4.9612 299.555 -18.2506 268.123 -13.31 163.352C-8.36951 58.5807 43.1547 4.27254 102.961 0.809852C175.92 -3.41423 182.481 22.0249 262.523 30.5954C440.859 49.6911 427.333 239.759 363.978 299.08L61.5958 299.081Z" fill="url(#paint0_linear_1694_15340)"/>
<path d="M26.5707 108.454C26.5707 108.454 15.6416 90.3845 -10.5781 95.0703C-10.5781 95.0703 7.07315 121.247 26.5707 108.454Z" fill="#3F9896"/>
<path d="M43.6391 113.224C43.6391 113.224 40.3834 77.0034 -3.73047 64.4382C-3.73047 64.4382 3.79976 118.285 43.6391 113.224Z" fill="#7FC6A6"/>
<path d="M270.427 88.2133L269.934 88.1491L269.966 87.9025C270.084 86.9974 270.228 86.08 270.395 85.1759L270.44 84.9313L270.93 85.0218L270.884 85.2663C270.719 86.162 270.576 87.0707 270.459 87.9669L270.427 88.2133ZM271.394 82.8349L270.911 82.7184L270.969 82.4767C271.187 81.5757 271.43 80.6795 271.692 79.8131L271.765 79.5752L272.241 79.7195L272.168 79.9574C271.909 80.8147 271.668 81.7017 271.453 82.5934L271.394 82.8349ZM304.93 80.0139C304.93 80.0139 304.929 80.0139 304.929 80.0139C304.521 80.0139 304.101 79.9746 303.68 79.8973L303.436 79.8524L303.526 79.3631L303.77 79.4081C304.162 79.48 304.552 79.5165 304.929 79.5165C304.929 79.5165 304.93 79.5165 304.93 79.5165C305.426 79.5165 305.914 79.4534 306.38 79.3291L306.62 79.2651L306.748 79.7457L306.508 79.8097C306 79.9451 305.469 80.0139 304.93 80.0139ZM301.236 79.0444L301.03 78.9052C300.257 78.3838 299.701 77.6007 299.377 76.5784L299.301 76.3414L299.775 76.1907L299.851 76.4277C300.14 77.3409 300.631 78.0356 301.308 78.493L301.514 78.6321L301.236 79.0444ZM308.812 78.6325L308.487 78.2556L308.675 78.0932C309.311 77.5458 309.872 76.8539 310.342 76.0364L310.466 75.8209L310.897 76.0693L310.773 76.2849C310.275 77.1507 309.678 77.8861 309 78.4703L308.812 78.6325ZM272.954 77.6037L272.488 77.4298L272.575 77.1968C272.902 76.3204 273.257 75.4614 273.629 74.6435L273.732 74.4171L274.185 74.6233L274.082 74.8497C273.714 75.657 273.364 76.5053 273.041 77.3707L272.954 77.6037ZM299.562 74.0525L299.066 74.0221L299.081 73.7738C299.134 72.9017 299.302 71.9768 299.579 71.0249L299.649 70.7862L300.126 70.9254L300.057 71.164C299.79 72.0807 299.628 72.9688 299.577 73.8042L299.562 74.0525ZM311.777 73.9375L311.297 73.8038L311.364 73.5642C311.602 72.7136 311.75 71.8218 311.804 70.9136L311.819 70.6653L312.315 70.695L312.3 70.9431C312.244 71.8865 312.091 72.8131 311.844 73.6977L311.777 73.9375ZM275.183 72.6321L274.748 72.3915L274.868 72.1738C275.321 71.355 275.805 70.5607 276.308 69.8127L276.446 69.6063L276.859 69.8837L276.721 70.0901C276.226 70.8262 275.749 71.6082 275.304 72.4143L275.183 72.6321ZM300.922 68.8687L300.473 68.6538L300.581 68.4295C300.97 67.6171 301.431 66.8049 301.95 66.0152L302.087 65.8075L302.502 66.0809L302.366 66.2887C301.858 67.0597 301.408 67.8522 301.029 68.6444L300.922 68.8687ZM311.724 68.4744L311.686 68.2284C311.634 67.8787 311.567 67.5306 311.487 67.1939C311.36 66.6614 311.19 66.1423 310.98 65.6508L310.883 65.4219L311.34 65.227L311.438 65.4559C311.658 65.9729 311.837 66.519 311.97 67.0788C312.054 67.4289 312.124 67.7909 312.178 68.1546L312.215 68.4004L311.724 68.4744ZM278.185 68.1007L277.801 67.7846L277.959 67.5926C278.551 66.8731 279.179 66.1858 279.827 65.5498L280.005 65.3755L280.353 65.7303L280.176 65.9046C279.541 66.5285 278.924 67.2026 278.343 67.9085L278.185 68.1007ZM303.833 64.3087L303.454 63.9873L303.614 63.7975C304.203 63.1026 304.845 62.4266 305.521 61.7879L305.702 61.6172L306.043 61.979L305.863 62.1498C305.199 62.7757 304.57 63.4382 303.994 64.1191L303.833 64.3087ZM282.02 64.2687L281.714 63.8765L281.91 63.7235C282.639 63.1553 283.406 62.6262 284.191 62.1509L284.404 62.0221L284.661 62.4475L284.448 62.5763C283.68 63.0412 282.929 63.5592 282.216 64.1155L282.02 64.2687ZM309.757 63.5677L309.599 63.3757C309.047 62.7047 308.389 62.0925 307.643 61.5562L307.442 61.411L307.732 61.0073L307.934 61.1523C308.715 61.7139 309.404 62.3556 309.983 63.0598L310.141 63.2518L309.757 63.5677ZM286.622 61.414L286.414 60.9618L286.64 60.8581C287.476 60.4753 288.341 60.1292 289.21 59.8295L289.445 59.7483L289.607 60.2187L289.372 60.2997C288.518 60.5941 287.669 60.9342 286.848 61.3102L286.622 61.414ZM307.737 60.5433L307.435 60.1477L307.633 59.9968C308.358 59.4445 309.126 58.918 309.916 58.4321L310.128 58.3016L310.388 58.7254L310.176 58.8557C309.401 59.3329 308.646 59.8501 307.935 60.3924L307.737 60.5433ZM305.531 60.3371L305.303 60.238C304.509 59.892 303.648 59.6046 302.744 59.3839L302.502 59.3248L302.62 58.8417L302.862 58.9006C303.793 59.1282 304.681 59.4248 305.502 59.7819L305.73 59.8813L305.531 60.3371ZM291.741 59.5982L291.626 59.1144L291.868 59.0568C292.77 58.8421 293.687 58.6725 294.591 58.5528L294.837 58.5201L294.903 59.0132L294.656 59.0458C293.768 59.1633 292.869 59.3299 291.983 59.5406L291.741 59.5982ZM300.322 58.9582L300.075 58.9337C299.197 58.8466 298.285 58.8132 297.364 58.8344L297.116 58.84L297.104 58.3426L297.353 58.337C298.292 58.3149 299.226 58.3496 300.124 58.4386L300.371 58.4631L300.322 58.9582ZM312.334 57.6596L312.121 57.2096L312.347 57.1037C313.166 56.7179 314.034 56.3748 314.926 56.084L315.162 56.0069L315.317 56.4797L315.08 56.5568C314.208 56.8412 313.36 57.1766 312.559 57.5537L312.334 57.6596ZM336.827 57.1565L336.587 57.0899C335.714 56.8467 334.822 56.6227 333.938 56.424L333.695 56.3697L333.804 55.8842L334.047 55.9387C334.94 56.1391 335.839 56.3653 336.721 56.6106L336.96 56.6773L336.827 57.1565ZM331.503 55.9368L331.258 55.8951C330.35 55.7408 329.441 55.6126 328.554 55.5135L328.307 55.4859L328.363 54.9917L328.61 55.0193C329.505 55.1192 330.424 55.2489 331.341 55.4047L331.587 55.4464L331.503 55.9368ZM317.462 55.9129L317.361 55.4259L317.604 55.3752C318.483 55.1928 319.403 55.0487 320.338 54.9472L320.586 54.9203L320.64 55.4147L320.392 55.4417C319.473 55.5418 318.569 55.6834 317.705 55.8624L317.462 55.9129ZM326.083 55.3075L325.835 55.2957C324.915 55.2521 324.012 55.2408 323.109 55.2629L322.861 55.2691L322.848 54.7719L323.097 54.7657C324.011 54.7426 324.926 54.7544 325.859 54.7987L326.107 54.8104L326.083 55.3075Z" fill="#3F9896"/>
<path d="M345.266 65.5808L348.111 63.0764C348.111 63.0764 360.548 63.3661 360.731 63.3023C360.914 63.2384 367.634 60.9078 367.634 60.9078L359.774 59.4019L346.58 59.5544L345.266 65.5808Z" fill="#FF424D"/>
<path d="M344.484 52.8303L367.635 60.9082L346.581 59.555L344.484 52.8303Z" fill="#FD7583"/>
<path d="M348.113 63.0766L350.299 70.2306L367.636 60.908L348.113 63.0766Z" fill="#FD7583"/>
<path d="M241.52 95.7856C239.143 94.4599 236.602 93.5565 234.001 93.0754L232.514 86.6956L228.04 86.9053L223.566 87.115L222.682 93.6058C220.138 94.3281 217.693 95.4651 215.45 97.0073L209.886 93.5471L206.871 96.8593L203.855 100.171L207.82 105.387C206.495 107.764 205.591 110.305 205.11 112.905L198.73 114.393L198.94 118.867L199.15 123.341L205.641 124.225C206.363 126.769 207.5 129.214 209.042 131.457L205.582 137.021L208.894 140.036L212.206 143.052L217.422 139.086C219.799 140.412 222.34 141.315 224.94 141.796L226.427 148.176L230.902 147.967L235.376 147.757L236.26 141.266C238.804 140.544 241.249 139.407 243.492 137.865L249.056 141.325L252.071 138.013L255.087 134.7L251.121 129.485C252.447 127.108 253.35 124.567 253.832 121.966L260.211 120.479L260.002 116.005L259.792 111.531L253.301 110.647C252.579 108.103 251.442 105.658 249.9 103.415L253.36 97.8514L250.048 94.8359L246.735 91.8204L241.52 95.7856ZM241.897 128.749C235.648 135.612 225.02 136.11 218.157 129.862C211.295 123.614 210.797 112.986 217.045 106.123C223.293 99.2603 233.921 98.7622 240.784 105.01C247.647 111.258 248.145 121.887 241.897 128.749Z" fill="#7FC6A6"/>
<path d="M207.345 54.3617C205.921 53.3988 204.371 52.693 202.759 52.2496L202.168 48.1535L199.34 48.0438L196.513 47.9341L195.606 51.972C193.965 52.289 192.365 52.8727 190.87 53.7221L187.555 51.2434L185.478 53.1652L183.401 55.087L185.615 58.5841C184.652 60.0088 183.946 61.5592 183.503 63.1702L179.407 63.7614L179.297 66.589L179.188 69.4167L183.225 70.3238C183.542 71.9645 184.126 73.5646 184.976 75.0597L182.497 78.3745L184.419 80.4515L186.34 82.5285L189.837 80.3144C191.262 81.2773 192.812 81.9832 194.423 82.4266L195.015 86.5226L197.842 86.6323L200.67 86.742L201.577 82.7041C203.217 82.3871 204.818 81.8034 206.313 80.954L209.628 83.4327L211.705 81.5109L213.782 79.5891L211.568 76.092C212.531 74.6673 213.237 73.1169 213.68 71.506L217.776 70.9147L217.886 68.0871L217.995 65.2594L213.958 64.3523C213.641 62.7117 213.057 61.1115 212.207 59.6163L214.686 56.3014L212.764 54.2244L210.843 52.1474L207.345 54.3617ZM205.801 75.1305C201.498 79.1123 194.781 78.8517 190.799 74.5481C186.817 70.2445 187.078 63.5278 191.382 59.5458C195.685 55.5638 202.402 55.8246 206.384 60.1282C210.366 64.4318 210.105 71.1485 205.801 75.1305Z" fill="#F7AB48"/>
<path d="M56.2858 50.0717C62.8055 49.7276 85.1484 48.7853 100.427 51.0504C102.409 51.3443 103.671 48.9691 102.3 47.508C101.498 46.6536 100.131 45.9575 97.8299 45.7966C97.8299 45.7966 98.6223 31.5331 87.848 30.5883C75.4912 29.5048 75.3416 43.5179 75.3416 43.5179C75.3416 43.5179 69.7252 38.1861 65.6745 44.9459C65.6745 44.9459 58.6742 40.8999 55.1429 48.3729C54.7577 49.1879 55.3856 50.1193 56.2858 50.0717Z" fill="white"/>
<path d="M385.404 162.829C380.977 162.576 370.597 162.133 361.573 162.894C357.84 163.209 354.617 160.227 354.701 156.481C354.735 154.948 355.285 153.165 356.708 151.144C362.187 143.363 371.71 150.794 371.618 154.744C371.618 154.744 373.544 148.796 379.391 149.838C385.239 150.879 383.171 159.528 383.171 159.528C383.171 159.528 385.058 159.13 386.366 160.023C387.653 160.901 386.959 162.918 385.404 162.829Z" fill="white"/>
<path d="M43.6055 289.881V133.771C43.6055 126.354 48.7588 120.341 55.1156 120.341H314.524C320.881 120.341 326.034 126.354 326.034 133.771V289.881H43.6055Z" fill="#4CB7D8"/>
<path d="M50.2188 281.486V140.379C50.2188 130.255 53.0284 129.276 56.4945 129.276H313.15C316.616 129.276 319.426 131.988 319.426 135.333V281.486H50.2188Z" fill="#DCF4FF"/>
<path d="M49.8789 263.294L50.5536 262.619V135.333C50.5536 132.179 53.2175 129.613 56.4918 129.613V128.938C52.8453 128.938 49.8789 131.807 49.8789 135.333V263.294Z" fill="#21111D"/>
<path d="M319.66 281.486H319.186V135.333C319.186 132.124 316.477 129.513 313.147 129.513H56.4922V129.038H313.147C316.739 129.038 319.66 131.862 319.66 135.333V281.486Z" fill="#21111D"/>
<path d="M342.316 289.881H16.3516V298.847H342.316V289.881Z" fill="#128CB2"/>
<path d="M107.373 65.0486V180.598H21.3203V84.0629L39.8472 65.0486H107.373Z" fill="white"/>
<path d="M21.3203 84.099L39.7388 65.0486V84.099H21.3203Z" fill="#3AA1C9"/>
<path d="M48.1353 79.431H85.6767C86.2153 79.431 86.6519 78.9944 86.6519 78.4559C86.6519 77.9173 86.2153 77.4807 85.6767 77.4807H48.1353C47.5967 77.4807 47.1602 77.9173 47.1602 78.4559C47.1603 78.9946 47.5969 79.431 48.1353 79.431Z" fill="#3AA1C9"/>
<path d="M43.0181 86.9881H90.798C91.3366 86.9881 91.7732 86.5516 91.7732 86.013C91.7732 85.4744 91.3366 85.0378 90.798 85.0378H43.0181C42.4796 85.0378 42.043 85.4744 42.043 86.013C42.043 86.5517 42.4796 86.9881 43.0181 86.9881Z" fill="#3AA1C9"/>
<path d="M30.3384 105.028H99.5705C100.109 105.028 100.546 104.591 100.546 104.053C100.546 103.514 100.109 103.077 99.5705 103.077H30.3384C29.7999 103.077 29.3633 103.514 29.3633 104.053C29.3635 104.591 29.8001 105.028 30.3384 105.028Z" fill="#3AA1C9"/>
<path d="M30.3384 113.56H99.5705C100.109 113.56 100.546 113.123 100.546 112.585C100.546 112.046 100.109 111.609 99.5705 111.609H30.3384C29.7999 111.609 29.3633 112.046 29.3633 112.585C29.3635 113.123 29.8001 113.56 30.3384 113.56Z" fill="#3AA1C9"/>
<path d="M30.3384 122.092H99.5705C100.109 122.092 100.546 121.655 100.546 121.117C100.546 120.578 100.109 120.142 99.5705 120.142H30.3384C29.7999 120.142 29.3633 120.578 29.3633 121.117C29.3635 121.655 29.8001 122.092 30.3384 122.092Z" fill="#3AA1C9"/>
<path d="M30.3384 131.824H99.5705C100.109 131.824 100.546 131.388 100.546 130.849C100.546 130.311 100.109 129.874 99.5705 129.874H30.3384C29.7999 129.874 29.3633 130.311 29.3633 130.849C29.3635 131.388 29.8001 131.824 30.3384 131.824Z" fill="#3AA1C9"/>
<path d="M30.3384 140.356H99.5705C100.109 140.356 100.546 139.92 100.546 139.381C100.546 138.843 100.109 138.406 99.5705 138.406H30.3384C29.7999 138.406 29.3633 138.843 29.3633 139.381C29.3635 139.92 29.8001 140.356 30.3384 140.356Z" fill="#3AA1C9"/>
<path d="M30.3384 169.628H99.5705C100.109 169.628 100.546 169.191 100.546 168.653C100.546 168.114 100.109 167.678 99.5705 167.678H30.3384C29.7999 167.678 29.3633 168.114 29.3633 168.653C29.3635 169.191 29.8001 169.628 30.3384 169.628Z" fill="#3AA1C9"/>
<path d="M30.3384 162.663H99.5705C100.109 162.663 100.546 162.226 100.546 161.688C100.546 161.149 100.109 160.713 99.5705 160.713H30.3384C29.7999 160.713 29.3633 161.149 29.3633 161.688C29.3635 162.226 29.8001 162.663 30.3384 162.663Z" fill="#3AA1C9"/>
<path d="M284.09 142.268H129.441V262.857H284.09V142.268Z" fill="white"/>
<path d="M277.693 148.923H155.199V155.063H277.693V148.923Z" fill="#D4EEF4"/>
<path d="M277.692 164.742H136.18V186.121H277.692V164.742Z" fill="#D4EEF4"/>
<path d="M277.692 185.427H136.18V256.047H277.692V185.427Z" fill="#DEF8FC"/>
<path d="M151.747 152.718C152.136 151.068 151.115 149.414 149.465 149.025C147.815 148.635 146.161 149.657 145.772 151.307C145.382 152.957 146.404 154.61 148.054 155C149.704 155.389 151.357 154.368 151.747 152.718Z" fill="#D4EEF4"/>
<path d="M140.432 154.83C141.998 154.181 142.742 152.385 142.093 150.819C141.444 149.252 139.649 148.509 138.082 149.157C136.516 149.806 135.772 151.602 136.421 153.168C137.07 154.735 138.865 155.479 140.432 154.83Z" fill="#D4EEF4"/>
<path d="M251.027 169.674H140.504V171.783H251.027V169.674Z" fill="white"/>
<path d="M251.027 176.486H140.504V178.596H251.027V176.486Z" fill="white"/>
<path d="M185.307 192.787H272.636C273.175 192.787 273.612 192.35 273.612 191.812C273.612 191.273 273.175 190.837 272.636 190.837H185.307C184.769 190.837 184.332 191.273 184.332 191.812C184.332 192.35 184.769 192.787 185.307 192.787Z" fill="#D4EEF4"/>
<path d="M185.307 198.711H272.636C273.175 198.711 273.612 198.274 273.612 197.736C273.612 197.197 273.175 196.761 272.636 196.761H185.307C184.769 196.761 184.332 197.197 184.332 197.736C184.332 198.274 184.769 198.711 185.307 198.711Z" fill="#D4EEF4"/>
<path d="M185.307 204.635H272.636C273.175 204.635 273.612 204.199 273.612 203.66C273.612 203.122 273.175 202.685 272.636 202.685H185.307C184.769 202.685 184.332 203.122 184.332 203.66C184.332 204.199 184.769 204.635 185.307 204.635Z" fill="#D4EEF4"/>
<path d="M185.307 216.484H272.636C273.175 216.484 273.612 216.047 273.612 215.509C273.612 214.97 273.175 214.533 272.636 214.533H185.307C184.769 214.533 184.332 214.97 184.332 215.509C184.332 216.047 184.769 216.484 185.307 216.484Z" fill="#D4EEF4"/>
<path d="M185.307 222.408H272.636C273.175 222.408 273.612 221.971 273.612 221.433C273.612 220.894 273.175 220.458 272.636 220.458H185.307C184.769 220.458 184.332 220.894 184.332 221.433C184.332 221.971 184.769 222.408 185.307 222.408Z" fill="#D4EEF4"/>
<path d="M185.307 228.332H272.636C273.175 228.332 273.612 227.896 273.612 227.357C273.612 226.818 273.175 226.382 272.636 226.382H185.307C184.769 226.382 184.332 226.818 184.332 227.357C184.332 227.896 184.769 228.332 185.307 228.332Z" fill="#D4EEF4"/>
<path d="M185.307 240.181H272.636C273.175 240.181 273.612 239.744 273.612 239.206C273.612 238.667 273.175 238.23 272.636 238.23H185.307C184.769 238.23 184.332 238.667 184.332 239.206C184.332 239.744 184.769 240.181 185.307 240.181Z" fill="#D4EEF4"/>
<path d="M185.307 246.105H272.636C273.175 246.105 273.612 245.669 273.612 245.13C273.612 244.591 273.175 244.155 272.636 244.155H185.307C184.769 244.155 184.332 244.591 184.332 245.13C184.332 245.669 184.769 246.105 185.307 246.105Z" fill="#D4EEF4"/>
<path d="M178.683 190.837H141.488V224.198H178.683V190.837Z" fill="#D4EEF4"/>
<path d="M178.683 232.951H141.488V246.105H178.683V232.951Z" fill="#D4EEF4"/>
<path d="M144.09 216.484L150.418 206.023L159.769 210.011L166.026 196.761L175.447 216.484H144.09Z" fill="#D4EEF4"/>
<path d="M156.297 202.469C157.751 201.867 158.442 200.2 157.839 198.747C157.237 197.293 155.57 196.602 154.117 197.205C152.663 197.807 151.973 199.473 152.575 200.927C153.177 202.381 154.844 203.071 156.297 202.469Z" fill="#D4EEF4"/>
<path d="M272.004 281.249H83.3438V281.723H272.004V281.249Z" fill="#21111D"/>
<path d="M323.836 168.229L328.914 164.554L329.247 164.313L334.325 160.639L380.087 215.429C381.375 216.97 381.086 219.279 379.459 220.456L366.537 229.806C364.91 230.983 362.627 230.535 361.566 228.831L323.836 168.229Z" fill="#28A15C"/>
<path d="M323.936 170.015L336.083 161.226C336.884 160.646 337.063 159.527 336.484 158.726L332.223 152.838L317.176 163.726L321.436 169.614C322.016 170.415 323.135 170.595 323.936 170.015Z" fill="#F99247"/>
<path d="M327.151 168.069L335.342 162.143C336.788 161.097 337.113 159.069 336.067 157.623L332.474 152.657L331.973 153.019L335.567 157.985C336.413 159.155 336.15 160.796 334.98 161.642L326.789 167.569L327.151 168.069Z" fill="#21111D"/>
<path d="M328.644 154.334C341.9 141.078 341.9 119.585 328.644 106.329C315.388 93.0728 293.895 93.0728 280.639 106.329C267.383 119.585 267.383 141.078 280.639 154.334C293.895 167.59 315.388 167.59 328.644 154.334Z" fill="#D4EEF4"/>
<path d="M289.689 127.421C290.805 120.468 289.017 114.4 285.696 113.867C282.376 113.334 278.78 118.539 277.664 125.492C276.549 132.445 278.336 138.513 281.657 139.046C284.978 139.578 288.574 134.374 289.689 127.421Z" fill="#F3FFFE"/>
<path d="M335.414 161.685L334.941 162.082L380.46 216.372L380.933 215.975L335.414 161.685Z" fill="#21111D"/>
<path d="M309.453 101.335L309.628 100.743C309.554 100.721 302.121 98.5891 295.328 101.577L295.577 102.142C302.158 99.2471 309.381 101.314 309.453 101.335Z" fill="#21111D"/>
<path d="M310.114 105.545L310.288 104.953C310.214 104.931 302.781 102.799 295.988 105.786L296.237 106.351C302.818 103.457 310.041 105.524 310.114 105.545Z" fill="#21111D"/>
<path d="M324.545 157.831C309.357 168.82 288.136 165.417 277.146 150.228C266.156 135.04 269.56 113.819 284.748 102.829C299.936 91.8392 321.158 95.243 332.148 110.431C343.137 125.62 339.734 146.841 324.545 157.831ZM336.521 107.267C323.784 89.6631 299.188 85.7181 281.584 98.4555C263.98 111.193 260.035 135.789 272.772 153.393C285.51 170.997 310.106 174.942 327.71 162.204C345.313 149.467 349.258 124.87 336.521 107.267Z" fill="#2271C5"/>
<path d="M327.889 162.454C345.602 149.638 349.586 124.799 336.769 107.086C323.952 89.3723 299.114 85.3886 281.401 98.2053C273.096 104.214 267.502 113.072 265.648 123.149L266.256 123.261C268.081 113.341 273.588 104.62 281.763 98.7056C299.2 86.0885 323.652 90.0102 336.269 107.448C348.886 124.886 344.964 149.337 327.527 161.954C319.433 167.81 309.522 170.327 299.619 169.04L299.54 169.652C309.599 170.959 319.667 168.403 327.889 162.454Z" fill="#21111D"/>
<path d="M125.944 95.1157L128.334 96.1494L130.993 97.4101C130.993 97.4101 135.122 98.1269 135.182 98.1135C135.191 98.1116 134.839 98.728 134.839 98.728C139.962 99.36 156.109 100.023 158.76 100.319C160.359 100.498 161.894 102.484 162.863 104.035L161.55 104.923C161.55 104.923 147.449 104.301 147.477 104.597C147.486 104.691 147.884 106.091 148.502 107.922C139.792 108.504 127.595 108.448 125.33 104.859C123.472 101.915 125.284 97.6884 125.944 95.1157Z" fill="#FE9F73"/>
<path d="M180.725 158.409L170.009 158.554L169.855 148.537L180.529 147.216L180.725 158.409Z" fill="#FE9F73"/>
<path d="M191.047 162.128L169.328 159.484L169.856 155.152C169.856 155.152 171.688 153.265 173.965 154.619C173.965 154.619 177.214 157.608 180.793 154.945L188.418 159.346C188.418 159.346 191.226 160.655 191.047 162.128Z" fill="#3AA1C9"/>
<path d="M169.145 161L191.584 163.732C191.707 163.747 191.818 163.66 191.833 163.537L191.964 162.465C191.979 162.343 191.891 162.231 191.769 162.216L169.329 159.484L169.145 161Z" fill="#472A31"/>
<path d="M183.051 156.248C182.185 157.287 180.446 159.375 179.34 160.703L177.859 160.523C178.848 159.336 180.919 156.849 181.95 155.613L183.051 156.248Z" fill="#D7E4F7"/>
<path d="M181.715 160.992L180.234 160.812C181.038 159.846 182.606 157.964 183.716 156.632L184.817 157.267C183.885 158.386 182.593 159.938 181.715 160.992Z" fill="#D7E4F7"/>
<path d="M147.399 122.688C147.399 122.688 138.175 122.84 131.71 122.619C129.635 122.548 127.788 122.694 126.694 122.451C122.194 121.452 121.086 107.406 126.196 98.8C131.305 90.1944 149.183 116.616 149.183 116.616L147.399 122.688Z" fill="#FECC86"/>
<path d="M164.092 158.409L153.376 158.554L153.223 148.537L163.896 147.216L164.092 158.409Z" fill="#FE9F73"/>
<path d="M173.641 163.222L152.195 158.889L153.059 154.612C153.059 154.612 155.034 152.874 157.198 154.402C157.198 154.402 160.204 157.636 163.98 155.26L171.238 160.243C171.237 160.243 173.935 161.768 173.641 163.222Z" fill="#4CB7D8"/>
<path d="M151.895 160.386L174.052 164.863C174.173 164.887 174.291 164.809 174.316 164.687L174.53 163.629C174.554 163.508 174.476 163.39 174.355 163.365L152.197 158.889L151.895 160.386Z" fill="#683D46"/>
<path d="M166.131 156.735C165.186 157.703 163.29 159.649 162.083 160.886L160.621 160.591C161.699 159.485 163.958 157.167 165.082 156.015L166.131 156.735Z" fill="#D7E4F7"/>
<path d="M164.427 161.36L162.965 161.065C163.842 160.165 165.552 158.411 166.763 157.169L167.811 157.889C166.793 158.932 165.384 160.378 164.427 161.36Z" fill="#D7E4F7"/>
<path d="M157.333 103.891C157.333 103.891 179.992 105.339 180.646 107.955C181.3 110.572 183.174 138.389 181.773 150.257C181.773 150.257 173.176 150.849 169.064 149.852L168.063 120.915L161.277 120.136L145.73 101.447L157.333 103.891Z" fill="#FFB357"/>
<path d="M146.448 103.463C146.448 103.463 163.922 108.393 164.576 111.01C165.23 113.626 167.092 138.452 165.69 150.319C165.69 150.319 156.446 150.849 152.335 149.852L151.227 122.555L147.239 122.694L137.57 105.684L146.448 103.463Z" fill="#FECC86"/>
<path d="M157.879 150.642C153.794 150.642 152.338 150.026 152.269 149.996L152.178 149.956L151.105 122.499L152.793 123.295L152.659 123.581L151.441 123.006L152.485 149.741C152.927 149.893 155.046 150.505 160.049 150.274L160.064 150.589C159.264 150.626 158.537 150.642 157.879 150.642Z" fill="#21111D"/>
<path d="M154.05 144.721C153.614 143.039 153.489 126.638 153.484 125.94L153.8 125.938C153.801 126.109 153.929 142.997 154.355 144.642L154.05 144.721Z" fill="#21111D"/>
<path d="M170.289 121.532C168.217 120.862 165.364 120.761 165.336 120.76L165.346 120.445C165.375 120.446 168.271 120.548 170.386 121.232L170.289 121.532Z" fill="#21111D"/>
<path d="M174.952 150.583C171.461 150.583 169.051 150.011 169.027 150.005L168.91 149.977L167.898 120.718L169.19 121.758L168.993 122.003L168.237 121.395L169.217 149.724C169.752 149.839 172.081 150.299 175.257 150.266L175.26 150.581C175.157 150.583 175.054 150.583 174.952 150.583Z" fill="#21111D"/>
<path d="M170.557 145.331C170.123 142.791 170.537 125.598 170.554 124.867L170.87 124.874C170.865 125.053 170.439 142.767 170.868 145.278L170.557 145.331Z" fill="#21111D"/>
<path d="M140.458 122.982C136.434 122.982 131.608 122.846 126.184 122.438L126.207 122.124C142.37 123.342 153.209 122.137 153.317 122.125L153.353 122.437C153.281 122.445 148.449 122.982 140.458 122.982Z" fill="#21111D"/>
<path d="M145.992 94.6521C146.304 94.6468 158.856 100.045 158.856 100.045L156.327 104.886L149.283 103.339L145.992 94.6521Z" fill="#FD7583"/>
<path d="M127.806 72.1566C127.806 72.1566 122.469 71.9698 119.921 73.4133C116.118 75.5673 117.473 87.9042 117.473 87.9042C117.473 87.9042 120.704 86.1418 120.9 85.5543C121.096 84.9667 127.806 72.1566 127.806 72.1566Z" fill="#FD7583"/>
<path d="M126.513 98.9354C126.519 98.9379 126.526 98.9398 126.532 98.9413L130.459 99.8398C130.538 99.8577 130.617 99.8084 130.635 99.7293C130.653 99.6502 130.604 99.5718 130.524 99.5533L126.598 98.6548C126.519 98.6369 126.44 98.6862 126.422 98.7653C126.405 98.8376 126.445 98.9099 126.513 98.9354Z" fill="#21111D"/>
<path d="M124.459 96.6006L126.85 97.6343L129.509 98.895C129.509 98.895 133.638 99.6118 133.698 99.5984C133.706 99.5965 133.355 100.213 133.355 100.213C138.478 100.845 154.625 101.508 157.276 101.804C158.874 101.982 160.41 103.969 161.378 105.52L160.066 106.408C160.066 106.408 145.964 105.786 145.993 106.082C146.002 106.176 146.399 107.575 147.017 109.407C138.308 109.989 126.111 109.933 123.846 106.344C121.988 103.4 123.799 99.1733 124.459 96.6006Z" fill="#F9B59D"/>
<path d="M122.639 73.1195C125.672 72.6995 133.677 72.4097 133.677 72.4097C133.677 72.4097 134.737 72.6878 134.399 72.5311C143.239 74.0918 144.216 80.6469 144.216 80.6469L148.53 99.5862L153.332 99.8463C154.886 102.79 153.744 110.732 153.744 110.732L130.488 113.353C130.488 113.353 125.461 114.182 121.21 108.729C118.397 105.122 117.44 94.0479 117.441 85.9562C117.441 85.9562 117.925 73.7723 122.639 73.1195Z" fill="#FD7583"/>
<path d="M187.78 87.7847H165.637L157.914 107.45H180.057L187.78 87.7847Z" fill="#E23E3D"/>
<path d="M157.914 107.45H159.069L166.792 87.7847H165.637L157.914 107.45Z" fill="#CC2323"/>
<path d="M173.301 96.9908C172.994 97.8942 173.219 98.7876 173.804 98.9861C174.388 99.1847 175.111 98.6133 175.418 97.7097C175.724 96.8063 175.5 95.9129 174.915 95.7145C174.331 95.5158 173.608 96.0872 173.301 96.9908Z" fill="#E2F2F1"/>
<path d="M150.595 105.862H158.867V107.45H150.595C150.156 107.45 149.801 107.095 149.801 106.656C149.801 106.218 150.156 105.862 150.595 105.862Z" fill="#CC2323"/>
<path d="M152.688 106.656H157.914V106.407H152.688V106.656Z" fill="#E23E3D"/>
<path d="M130.457 99.9141C130.484 99.9241 130.513 99.9265 130.543 99.9196C130.622 99.9009 130.671 99.8219 130.652 99.743C130.628 99.6393 128.197 89.3073 127.163 82.8057C127.15 82.7254 127.075 82.6711 126.995 82.6837C126.915 82.6966 126.86 82.7717 126.873 82.8518C127.909 89.3644 130.342 99.7065 130.366 99.8102C130.378 99.8599 130.413 99.8975 130.457 99.9141Z" fill="#21111D"/>
<path d="M145.499 99.7442C145.529 99.7555 145.562 99.757 145.595 99.7469C145.672 99.7225 145.715 99.64 145.691 99.5627C145.654 99.4475 142.048 88.0061 141.295 84.0506C141.28 83.9709 141.203 83.9188 141.123 83.9337C141.044 83.9488 140.991 84.0259 141.007 84.1054C141.763 88.0779 145.374 99.5357 145.411 99.6509C145.425 99.6957 145.458 99.7287 145.499 99.7442Z" fill="#21111D"/>
<path d="M130.84 77.9606C130.954 77.9724 131.069 77.9824 131.187 77.9907C131.254 77.9954 131.313 77.9446 131.317 77.8774C131.322 77.8103 131.274 77.7524 131.204 77.7471C126.146 77.3921 125.207 73.6892 125.2 73.652C125.187 73.5868 125.125 73.5417 125.059 73.553C124.994 73.564 124.949 73.6236 124.958 73.6892C124.964 73.7277 125.897 77.4495 130.84 77.9606Z" fill="#21111D"/>
<path d="M146.53 97.0139C146.596 97.0388 146.672 97.0134 146.709 96.9505L147.694 95.2611L147.682 95.2045L144.359 80.6195C144.338 80.4881 144.05 78.7884 142.609 76.9142C141.259 75.1573 138.595 72.9229 133.576 72.2552C133.496 72.2445 133.422 72.3011 133.411 72.3814C133.401 72.4616 133.457 72.5356 133.538 72.5462C138.448 73.1994 141.049 75.3722 142.367 77.08C143.794 78.9306 144.067 80.6513 144.069 80.6684L144.071 80.6794L147.382 95.213L146.455 96.8022C146.414 96.8723 146.438 96.9622 146.508 97.0032C146.515 97.0075 146.522 97.0111 146.53 97.0139Z" fill="#21111D"/>
<path d="M151.733 97.0672C151.808 97.0955 151.892 97.0586 151.921 96.9842C151.951 96.9089 151.915 96.8236 151.839 96.7933L147.596 95.1008C147.518 95.0738 147.435 95.1074 147.405 95.1828C147.375 95.2581 147.412 95.3435 147.487 95.3737L151.73 97.0662C151.731 97.0664 151.732 97.0668 151.733 97.0672Z" fill="#21111D"/>
<path d="M153.332 99.8459C153.332 99.8459 154.867 103.468 153.745 110.732L148.133 107.721L149.8 102.294L153.332 99.8459Z" fill="#FD7583"/>
<path d="M125.384 100.044C125.401 100.051 125.421 100.054 125.44 100.054C125.65 100.047 146.43 99.4238 153.228 99.9847C153.395 100.431 154.162 102.737 153.948 106.956C153.944 107.037 154.005 107.106 154.087 107.11C154.168 107.114 154.237 107.052 154.241 106.971C154.484 102.19 153.508 99.8834 153.466 99.7875L153.431 99.7073L153.344 99.6997C146.625 99.1243 125.643 99.7539 125.432 99.7603C125.35 99.7628 125.287 99.8306 125.289 99.9116C125.291 99.9728 125.33 100.024 125.384 100.044Z" fill="#21111D"/>
<path d="M134.888 61.3937L135.054 67.7851C135.054 67.7851 135.193 69.8375 133.402 70.141L133.809 72.8735C133.96 73.8892 133.376 74.8804 132.405 75.2158C131.931 75.3797 131.362 75.5051 130.714 75.5221C128.66 75.5753 127.507 74.0633 127.316 73.2972C127.124 72.5311 127.543 68.8367 127.543 68.8367L127.433 67.0295L127.485 60.0146L134.888 61.3937Z" fill="#FE9F73"/>
<path d="M129.188 68.5037C129.188 68.5037 129.397 71.9395 133.701 72.1565L133.401 70.1411C133.401 70.1411 130.63 70.7729 129.188 68.5037Z" fill="#F07162"/>
<path d="M130.014 64.8749C129.992 64.8755 129.971 64.8681 129.954 64.8524C129.919 64.8207 129.916 64.7665 129.948 64.7316C129.96 64.7189 131.106 63.4839 132.204 64.3229C132.242 64.3516 132.249 64.4053 132.22 64.4428C132.192 64.4806 132.138 64.4878 132.1 64.4589C131.127 63.7156 130.117 64.8001 130.075 64.8468C130.058 64.8649 130.036 64.8741 130.014 64.8749Z" fill="#49263E"/>
<path d="M127.039 64.0532L128.897 64.3899L129.24 64.7272C129.24 64.7272 128.999 61.6338 128.635 61.0339C128.272 60.434 127.039 64.0532 127.039 64.0532Z" fill="#4C222E"/>
<path d="M133.529 64.2697C133.505 64.2703 133.481 64.2608 133.464 64.2418C133.432 64.2068 133.434 64.1528 133.469 64.1209C133.503 64.0901 134.302 63.3705 134.829 63.7999C134.866 63.8297 134.872 63.8835 134.842 63.9203C134.812 63.9572 134.758 63.9627 134.721 63.9328C134.308 63.5965 133.592 64.241 133.585 64.2476C133.569 64.2618 133.549 64.2691 133.529 64.2697Z" fill="#49263E"/>
<path d="M131.752 65.1758C131.756 65.3176 131.644 65.4357 131.502 65.4393C131.36 65.443 131.242 65.3309 131.238 65.1891C131.235 65.0472 131.347 64.9292 131.489 64.9256C131.63 64.922 131.748 65.034 131.752 65.1758Z" fill="black"/>
<path d="M134.475 64.8482C134.479 64.99 134.367 65.108 134.225 65.1116C134.083 65.1152 133.965 65.0032 133.961 64.8614C133.957 64.7196 134.069 64.6016 134.211 64.598C134.353 64.5944 134.471 64.7064 134.475 64.8482Z" fill="black"/>
<path d="M129.629 65.1417C129.651 65.9928 128.979 66.7006 128.128 66.7227C127.277 66.7447 126.569 66.0727 126.547 65.2216C126.525 64.3705 127.197 63.6628 128.048 63.6407C128.899 63.6188 129.607 64.2906 129.629 65.1417Z" fill="#FE9F73"/>
<path d="M127.839 66.0439C127.519 66.0522 127.299 65.8171 127.223 65.5786C127.132 65.2963 127.22 65.0176 127.448 64.8682C127.783 64.6475 128.096 64.7755 128.257 64.8756C128.186 64.7024 128.079 64.5778 127.936 64.5043C127.628 64.3451 127.255 64.4766 127.251 64.4779C127.229 64.486 127.205 64.4745 127.197 64.452C127.189 64.4297 127.2 64.4054 127.222 64.3972C127.239 64.3912 127.634 64.2517 127.975 64.4278C128.172 64.5294 128.31 64.7151 128.383 64.9791L128.424 65.1271L128.312 65.0215C128.296 65.0066 127.921 64.6597 127.495 64.9398C127.259 65.0948 127.245 65.3667 127.304 65.5524C127.366 65.7452 127.543 65.9659 127.837 65.9584C127.84 65.9584 127.843 65.958 127.846 65.958C127.869 65.9574 127.889 65.9755 127.89 65.9991C127.891 66.0228 127.872 66.0428 127.848 66.0437C127.845 66.0437 127.842 66.0439 127.839 66.0439Z" fill="#F07162"/>
<path d="M132.704 66.8848C132.686 66.8851 132.669 66.8742 132.663 66.8564C132.655 66.8342 132.666 66.8096 132.689 66.8017L133.539 66.4956L133.216 64.4831C133.212 64.4599 133.228 64.4378 133.251 64.434C133.275 64.4297 133.297 64.4461 133.3 64.4696L133.635 66.552L132.718 66.8819C132.713 66.8838 132.709 66.8846 132.704 66.8848Z" fill="#F07162"/>
<path d="M132.062 67.7359C132.089 67.73 133.756 67.6477 133.756 67.6477C133.756 67.6477 133.565 68.3432 132.945 68.3755C132.325 68.4078 132.062 67.7359 132.062 67.7359Z" fill="#FBFDFC"/>
<path d="M127.04 64.0531C127.04 64.0531 126.442 61.0661 127.332 59.9238C128.222 58.7816 133.444 56.6875 134.097 57.2303C134.751 57.7728 134.129 58.4685 134.129 58.4685C134.129 58.4685 136.229 57.7345 136.757 59.5994C137.285 61.4644 132.752 62.3813 130.013 61.5729C130.013 61.5729 128.23 62.1436 127.04 64.0531Z" fill="#4C222E"/>
<path d="M126.439 112.916C126.784 113.046 127.108 113.148 127.408 113.227C129.206 113.704 130.462 113.506 130.514 113.497C130.594 113.484 130.648 113.409 130.635 113.329C130.622 113.249 130.547 113.195 130.467 113.208C130.454 113.21 129.208 113.404 127.468 112.939C125.862 112.511 123.494 111.417 121.328 108.639C118.608 105.151 117.615 94.414 117.591 86.2792C117.591 86.1982 117.524 86.1322 117.443 86.1328C117.362 86.133 117.296 86.1991 117.297 86.2801C117.321 94.4614 118.331 105.273 121.096 108.819C122.915 111.152 124.879 112.326 126.439 112.916Z" fill="#21111D"/>
<path d="M172.463 271.116C172.347 271.028 169.779 268.958 169.577 268.86C167.689 270.136 167.94 273.585 165.859 274.987C167.21 275.273 168.167 275.454 168.55 275.509L169.707 278.075L169.866 278.748C169.941 279.067 170.315 279.299 170.702 279.266C171.088 279.234 171.341 278.949 171.266 278.631L171.332 278.912C171.407 279.231 171.782 279.462 172.168 279.43C172.555 279.397 172.807 279.113 172.732 278.794C172.807 279.113 173.182 279.344 173.568 279.312C173.955 279.28 174.207 278.995 174.132 278.676L174.066 278.395C174.141 278.713 174.515 278.945 174.902 278.912C174.924 278.911 174.946 278.908 174.968 278.904H174.968C174.993 278.9 175.018 278.895 175.041 278.889C175.408 278.801 175.563 278.637 175.6 278.462C175.677 278.098 175.123 276.084 174.88 275.133C174.524 273.646 173.848 272.163 172.463 271.116Z" fill="#F9956E"/>
<path d="M174.142 278.698C174.154 278.698 174.167 278.696 174.179 278.692C174.235 278.671 174.263 278.609 174.243 278.553L172.72 274.465C172.7 274.409 172.638 274.382 172.582 274.402C172.526 274.423 172.498 274.485 172.518 274.54L174.041 278.628C174.057 278.672 174.098 278.698 174.142 278.698Z" fill="#F07162"/>
<path d="M172.754 279.028C172.766 279.028 172.779 279.026 172.792 279.021C172.847 279 172.876 278.938 172.855 278.883L171.474 275.175C171.453 275.119 171.392 275.091 171.336 275.111C171.28 275.132 171.252 275.194 171.272 275.249L172.653 278.958C172.669 279.001 172.71 279.028 172.754 279.028Z" fill="#F07162"/>
<path d="M166.715 266.498C168.751 268.156 172.411 271.143 173.165 271.822C174.221 272.772 169.288 276.876 169.288 276.876C169.288 276.876 163.576 273.852 160.438 271.694L166.715 266.498Z" fill="#F9956E"/>
<path d="M171.311 278.95C171.324 278.95 171.336 278.948 171.349 278.943C171.405 278.923 171.433 278.861 171.412 278.805L170.302 275.824C170.282 275.769 170.22 275.741 170.164 275.761C170.108 275.782 170.08 275.844 170.1 275.9L171.21 278.88C171.226 278.923 171.268 278.95 171.311 278.95Z" fill="#F07162"/>
<path d="M187.362 275.558C187.398 275.558 187.434 275.546 187.463 275.521L189.732 273.555C189.797 273.499 189.804 273.401 189.748 273.337C189.692 273.272 189.594 273.265 189.53 273.321L187.26 275.287C187.196 275.343 187.189 275.441 187.245 275.505C187.275 275.54 187.318 275.558 187.362 275.558Z" fill="#21111D"/>
<path d="M141.426 279.244C141.426 279.244 143.234 273.774 162.473 274.79C184.468 275.951 199.451 272.153 203.345 279.244L172.864 290.559L141.426 279.244Z" fill="#FF424D"/>
<path d="M176.025 288.992C176.025 288.992 158.572 278.477 152.45 276.898C146.328 275.32 142.089 277.402 141.424 279.244C140.758 281.087 140.133 286.06 144.203 288.992C145.965 290.261 166.097 296.248 171.421 297.646C171.421 297.646 176.361 295.568 176.025 288.992Z" fill="#FF424D"/>
<path d="M172.33 286.972C172.383 286.972 172.434 286.945 172.463 286.896C172.507 286.823 172.483 286.728 172.41 286.684C155.698 276.695 150.222 276.202 149.998 276.185C149.91 276.178 149.838 276.243 149.832 276.329C149.826 276.414 149.89 276.488 149.975 276.494C150.03 276.498 155.634 277.017 172.251 286.949C172.276 286.964 172.303 286.972 172.33 286.972Z" fill="#21111D"/>
<path d="M167.873 299.348L175.767 295.328L171.971 287.875L165.531 291.154C165.531 291.154 154.885 291.063 154.376 291.562C153.866 292.059 165.399 300.608 167.873 299.348Z" fill="#FE9F73"/>
<path d="M170.584 297.968C168.318 295.469 167.085 291.847 166.7 290.559L165.531 291.154C165.531 291.154 154.885 291.063 154.376 291.562C153.866 292.06 165.399 300.608 167.873 299.348L170.584 297.968Z" fill="#472A31"/>
<path d="M168.741 288.992C168.741 288.992 186.194 278.477 192.316 276.898C198.438 275.32 202.677 277.402 203.342 279.244C204.007 281.087 204.633 286.06 200.562 288.992C198.801 290.261 177.257 296.63 171.934 298.028C171.934 298.028 168.406 295.568 168.741 288.992Z" fill="#FF424D"/>
<path d="M171.933 298.182C171.984 298.182 172.033 298.158 172.063 298.113C172.11 298.042 172.09 297.946 172.019 297.899C169.074 295.956 168.905 289.883 168.896 289.081C170.118 288.371 185.281 279.584 191.328 277.317C191.408 277.287 191.448 277.198 191.418 277.118C191.388 277.038 191.3 276.997 191.219 277.028C184.923 279.387 168.825 288.764 168.663 288.859L168.587 288.903L168.586 288.991C168.584 289.276 168.568 295.993 171.848 298.157C171.875 298.174 171.904 298.182 171.933 298.182Z" fill="#21111D"/>
<path d="M143.233 279.086C143.281 279.086 143.328 279.064 143.358 279.022C143.368 279.008 143.982 278.214 145.98 278.239C146.069 278.241 146.135 278.171 146.136 278.086C146.137 278 146.069 277.93 145.983 277.929C143.8 277.902 143.134 278.804 143.107 278.842C143.057 278.912 143.074 279.008 143.143 279.058C143.171 279.077 143.202 279.086 143.233 279.086Z" fill="#21111D"/>
<path d="M144.225 279.859C144.265 279.859 144.306 279.843 144.336 279.812C144.348 279.8 145.071 279.104 147.044 279.42C147.128 279.434 147.207 279.376 147.221 279.292C147.234 279.208 147.177 279.128 147.093 279.115C144.934 278.77 144.146 279.563 144.113 279.597C144.054 279.659 144.056 279.757 144.118 279.816C144.148 279.845 144.186 279.859 144.225 279.859Z" fill="#21111D"/>
<path d="M176.43 233.852C176.43 233.852 175.512 242.1 174.28 242.183C173.049 242.265 175.131 251.924 178.395 247.192C179.539 245.534 179.488 234.683 176.759 232.363C174.029 230.042 176.43 233.852 176.43 233.852Z" fill="#49263E"/>
<path d="M176.88 231.781C176.88 231.781 178.014 239.573 176.993 240.96C176.993 240.96 176.494 241.697 175.278 241.737L175.373 246.316L169.868 245.687L169.684 232.663C169.684 232.663 171.253 229.444 171.255 229.576C171.257 229.709 176.88 231.781 176.88 231.781Z" fill="#FE9F73"/>
<path d="M175.202 238.283C175.186 238.283 175.171 238.268 175.167 238.244C175.162 238.217 175.174 238.191 175.193 238.185C175.42 238.113 175.557 237.716 175.597 237.587C175.27 237.348 175.069 237.035 174.998 236.655C174.881 236.035 175.153 235.47 175.165 235.446C175.175 235.423 175.198 235.418 175.214 235.433C175.23 235.449 175.234 235.48 175.223 235.503C175.22 235.508 174.958 236.056 175.066 236.631C175.134 236.993 175.333 237.291 175.658 237.519L175.686 237.539L175.675 237.581C175.669 237.605 175.516 238.185 175.209 238.282C175.207 238.283 175.205 238.283 175.202 238.283Z" fill="#F07162"/>
<path d="M175.299 243.294L175.277 241.737C175.277 241.737 172.641 241.619 171.012 240.624C171.012 240.624 173.234 242.701 175.299 243.294Z" fill="#F07162"/>
<path d="M171.562 235.7C171.537 235.701 171.512 235.692 171.493 235.673C171.452 235.636 171.45 235.573 171.488 235.533C171.5 235.52 172.758 234.196 173.938 235.12C173.981 235.153 173.989 235.216 173.955 235.259C173.921 235.303 173.859 235.31 173.815 235.276C172.779 234.466 171.68 235.619 171.633 235.669C171.614 235.689 171.588 235.7 171.562 235.7Z" fill="#49263E"/>
<path d="M175.656 235.434C175.628 235.434 175.6 235.423 175.58 235.4C175.543 235.359 175.547 235.297 175.588 235.26C175.625 235.227 176.501 234.456 177.07 234.93C177.112 234.966 177.117 235.028 177.082 235.071C177.047 235.113 176.984 235.119 176.942 235.083C176.505 234.719 175.728 235.402 175.72 235.409C175.702 235.425 175.679 235.434 175.656 235.434Z" fill="#49263E"/>
<path d="M173.559 236.227C173.561 236.38 173.438 236.506 173.285 236.508C173.132 236.51 173.006 236.388 173.004 236.235C173.002 236.081 173.124 235.955 173.277 235.953C173.431 235.951 173.557 236.073 173.559 236.227Z" fill="black"/>
<path d="M176.805 236.19C176.807 236.343 176.685 236.469 176.531 236.471C176.378 236.474 176.252 236.351 176.25 236.198C176.248 236.045 176.37 235.919 176.523 235.917C176.677 235.914 176.803 236.037 176.805 236.19Z" fill="black"/>
<path d="M173.836 238.745C173.867 238.744 175.797 238.959 175.797 238.959C175.797 238.959 175.448 239.721 174.73 239.643C174.013 239.565 173.836 238.745 173.836 238.745Z" fill="#FBFDFC"/>
<path d="M174.493 231.933L173.156 230.078C173.156 230.078 175.304 231.422 175.126 231.478C174.947 231.533 174.493 231.933 174.493 231.933Z" fill="#FE9F73"/>
<path d="M170.481 231.054C170.481 231.054 170.865 233.959 177.825 234.546C177.825 234.546 179.443 230.246 174.388 228.809C169.334 227.372 168.875 231.248 168.977 231.212C169.079 231.177 170.481 231.054 170.481 231.054Z" fill="#49263E"/>
<path d="M171.531 232.683C171.531 232.683 170.245 234.594 169.648 235.972C169.648 235.972 171.972 248.143 167.286 247.461L166.449 247.45C162.304 247.393 165.173 238.423 165.243 233.662C165.287 230.681 168.906 227.655 171.26 229.471C173.615 231.287 171.531 232.683 171.531 232.683Z" fill="#49263E"/>
<path d="M170.841 237.461C170.853 238.32 170.166 239.026 169.308 239.038C168.449 239.05 167.743 238.364 167.731 237.505C167.719 236.646 168.405 235.94 169.264 235.928C170.122 235.916 170.828 236.602 170.841 237.461Z" fill="#FE9F73"/>
<path d="M169.184 238.444C168.857 238.449 168.636 238.207 168.561 237.963C168.472 237.674 168.565 237.391 168.799 237.241C169.131 237.028 169.438 237.146 169.605 237.247C169.536 237.083 169.433 236.963 169.296 236.891C168.989 236.728 168.615 236.855 168.611 236.857C168.585 236.866 168.557 236.852 168.548 236.826C168.539 236.8 168.552 236.772 168.578 236.763C168.595 236.757 168.998 236.62 169.343 236.803C169.542 236.909 169.68 237.099 169.751 237.368L169.797 237.541L169.668 237.417C169.652 237.401 169.281 237.051 168.852 237.325C168.615 237.477 168.598 237.748 168.656 237.933C168.716 238.128 168.891 238.352 169.19 238.345C169.217 238.343 169.241 238.365 169.241 238.393C169.242 238.42 169.22 238.443 169.193 238.444C169.19 238.444 169.187 238.444 169.184 238.444Z" fill="#F07162"/>
<path d="M177.191 230.464C177.191 230.464 179.605 233.011 179.051 240.336L177.387 233.109L177.191 230.464Z" fill="#49263E"/>
<path d="M175.574 259.186L172.221 245.1H163.082C162.112 245.1 160.775 245.74 160.718 245.767C157.05 247.72 146.96 258.84 147.464 265.847C147.921 272.208 157.078 270.945 166.204 272.418L168.232 263.983L164.933 263.1L175.574 259.186Z" fill="#7FC6A6"/>
<path d="M172.551 261.266V245.1H181.69C182.66 245.1 183.997 245.74 184.054 245.767C187.721 247.72 199.076 259.193 198.573 266.2C198.115 272.561 187.409 272.304 182.39 273.853L179.601 263.768L179.848 263.254L172.551 261.266Z" fill="#7FC6A6"/>
<path d="M187.362 263.465L187.246 281.096C187.246 281.096 171.287 284.012 157.077 280.232C156.728 280.139 157.743 265.661 157.743 265.661C157.743 265.661 157.743 262.853 159.224 261.984C160.705 261.116 172.791 255.754 173.08 255.754C173.37 255.754 187.362 263.465 187.362 263.465Z" fill="#7FC6A6"/>
<path d="M172.064 250C172.154 250 172.23 249.93 172.235 249.839C172.241 249.744 172.169 249.662 172.074 249.656C166.831 249.326 165.119 245.735 165.103 245.699C165.063 245.612 164.96 245.574 164.874 245.614C164.788 245.654 164.75 245.756 164.789 245.842C164.806 245.88 166.595 249.657 172.053 250C172.056 250 172.06 250 172.064 250Z" fill="#21111D"/>
<path d="M177.842 245.1H166.281C166.281 245.1 168.371 248.719 172.366 248.703C174.198 248.696 176.157 248.022 177.842 245.1Z" fill="#FE9F73"/>
<path d="M170.719 268.413C169.986 267.67 170.665 266.726 170.665 266.726C170.393 265.603 170.694 265.11 170.694 265.11C170.694 265.11 173.777 266.025 175.529 266.673C176.517 266.525 176.866 266.042 176.866 266.042L176.892 266.083C176.911 265.227 176.935 264.155 176.935 264.034C176.935 263.83 177.262 263.503 177.773 264.15C178.284 264.797 179.271 266.533 179.271 266.533L181.825 265.035L183.902 272.219C183.902 272.219 177.707 273.095 176.753 273.163C175.8 273.232 172.481 272.45 171.494 271.632C170.507 270.815 170.72 270.083 170.72 270.083C169.986 269.201 170.719 268.413 170.719 268.413Z" fill="#F78C63"/>
<path d="M177.444 263.66V265.885C177.444 265.885 176.786 266.857 175.527 266.673L174.57 266.319L175.324 263.084L177.444 263.66Z" fill="#FD7583"/>
<path d="M172.764 267.829C172.812 267.829 172.857 267.799 172.873 267.75C172.892 267.689 172.859 267.625 172.799 267.605C171.952 267.331 170.735 266.634 170.723 266.626C170.668 266.595 170.598 266.614 170.566 266.669C170.535 266.724 170.553 266.794 170.608 266.826C170.659 266.855 171.859 267.542 172.728 267.824C172.74 267.828 172.752 267.829 172.764 267.829Z" fill="#F07162"/>
<path d="M172.765 269.285C172.819 269.285 172.867 269.246 172.878 269.191C172.889 269.129 172.848 269.069 172.786 269.057C171.721 268.859 170.788 268.318 170.778 268.313C170.723 268.281 170.653 268.3 170.621 268.354C170.589 268.409 170.608 268.48 170.662 268.512C170.702 268.535 171.638 269.077 172.743 269.283C172.751 269.284 172.758 269.285 172.765 269.285Z" fill="#F07162"/>
<path d="M172.509 270.944C172.562 270.944 172.61 270.908 172.622 270.854C172.635 270.792 172.595 270.731 172.534 270.717C171.62 270.52 170.791 269.992 170.782 269.986C170.729 269.952 170.658 269.968 170.624 270.021C170.589 270.074 170.605 270.146 170.658 270.18C170.693 270.203 171.531 270.736 172.485 270.942C172.493 270.944 172.501 270.944 172.509 270.944Z" fill="#F07162"/>
<path d="M179.988 265.167L183.505 264.29C183.505 264.29 185.488 269.207 185.488 269.372C185.488 269.537 184.497 273.874 184.373 273.853C184.249 273.833 183.122 272.668 183.122 272.668L179.988 265.167Z" fill="#4CB7D8"/>
<path d="M186.448 261.962L188.182 261.685C188.296 261.667 188.374 261.559 188.355 261.445C188.337 261.331 188.23 261.254 188.116 261.272L186.651 261.506L183.388 256.481C183.325 256.384 183.196 256.356 183.099 256.419C183.002 256.482 182.975 256.611 183.038 256.708L186.448 261.962Z" fill="#21111D"/>
<path d="M185.797 249.695C185.742 249.695 185.689 249.669 185.655 249.621C184.356 247.755 183.247 247.75 183.247 247.751C183.247 247.751 183.247 247.751 183.247 247.751C183.152 247.751 183.075 247.674 183.074 247.579C183.074 247.484 183.151 247.406 183.246 247.406C183.246 247.406 183.246 247.406 183.247 247.406C183.31 247.406 184.551 247.433 185.938 249.424C185.992 249.502 185.973 249.61 185.895 249.664C185.865 249.685 185.831 249.695 185.797 249.695Z" fill="#21111D"/>
<path d="M185.429 251.448C185.366 251.448 185.305 251.413 185.275 251.353C184.279 249.351 183.176 249.152 183.165 249.15C183.072 249.135 183.007 249.047 183.022 248.954C183.036 248.86 183.121 248.795 183.216 248.809C183.268 248.816 184.498 249.017 185.583 251.199C185.626 251.284 185.591 251.388 185.506 251.43C185.481 251.442 185.455 251.448 185.429 251.448Z" fill="#21111D"/>
<path d="M175.713 265.47C175.665 265.48 175.615 265.459 175.589 265.414C175.558 265.359 175.577 265.289 175.632 265.258C176.404 264.815 177.451 263.881 177.461 263.871C177.508 263.829 177.581 263.833 177.624 263.88C177.666 263.928 177.662 264 177.615 264.043C177.571 264.082 176.539 265.002 175.746 265.457C175.735 265.463 175.724 265.467 175.713 265.47Z" fill="#F07162"/>
<path d="M176.014 266.894C175.961 266.905 175.905 266.877 175.884 266.825C175.86 266.766 175.887 266.699 175.946 266.675C176.946 266.261 177.748 265.54 177.756 265.533C177.803 265.49 177.876 265.494 177.918 265.541C177.961 265.588 177.958 265.66 177.911 265.703C177.877 265.733 177.072 266.458 176.034 266.887C176.027 266.89 176.02 266.892 176.014 266.894Z" fill="#F07162"/>
<path d="M176.607 268.465C176.556 268.476 176.501 268.449 176.479 268.399C176.453 268.341 176.479 268.273 176.537 268.247C177.39 267.865 178.092 267.178 178.099 267.171C178.144 267.126 178.217 267.127 178.262 267.172C178.306 267.217 178.306 267.29 178.261 267.334C178.231 267.364 177.522 268.058 176.631 268.457C176.623 268.461 176.615 268.463 176.607 268.465Z" fill="#F07162"/>
<path d="M160.907 261.85L159.153 261.937C159.038 261.943 158.94 261.854 158.934 261.738C158.928 261.623 159.017 261.525 159.132 261.519L160.614 261.446L162.768 255.854C162.81 255.746 162.931 255.693 163.038 255.734C163.146 255.776 163.2 255.897 163.158 256.005L160.907 261.85Z" fill="#21111D"/>
<path d="M168.232 263.983L166.425 272.642C166.425 272.642 162.707 269.615 162.707 269.285C162.707 268.955 163.884 264.929 164.008 264.851C164.132 264.773 168.232 263.983 168.232 263.983Z" fill="#4CB7D8"/>
<path d="M166.546 272.861L166.363 272.85C166.32 272.848 161.985 272.572 156.976 270.468C156.869 270.423 156.819 270.301 156.864 270.194C156.909 270.088 157.032 270.038 157.138 270.082C161.503 271.915 165.338 272.342 166.205 272.418L167.754 264.262L160.694 261.846C160.585 261.808 160.526 261.69 160.564 261.58C160.601 261.471 160.72 261.413 160.829 261.45L168.232 263.983L166.546 272.861Z" fill="#21111D"/>
<path d="M180.908 272.861L181.092 272.85C181.135 272.848 185.47 272.572 190.479 270.468C190.585 270.423 190.636 270.301 190.591 270.194C190.546 270.088 190.423 270.038 190.317 270.082C185.952 271.915 182.117 272.342 181.25 272.418L179.701 264.262L186.761 261.846C186.87 261.808 186.929 261.69 186.891 261.58C186.854 261.471 186.735 261.413 186.626 261.45L179.223 263.983L180.908 272.861Z" fill="#21111D"/>
<path d="M156.618 282.199H189.867C190.523 282.199 191.055 281.667 191.055 281.01V262.455C191.055 261.798 190.523 261.266 189.867 261.266H156.618C155.962 261.266 155.43 261.798 155.43 262.455V281.01C155.43 281.667 155.962 282.199 156.618 282.199Z" fill="#49263E"/>
<path d="M172.88 271.391C173.666 271.391 174.303 270.754 174.303 269.968C174.303 269.182 173.666 268.545 172.88 268.545C172.094 268.545 171.457 269.182 171.457 269.968C171.457 270.754 172.094 271.391 172.88 271.391Z" fill="white"/>
<path d="M358.397 280.148C358.397 280.148 354.504 289.943 357.769 297.352L282.924 297.98L276.017 297.352L269.93 293.58V287.808L271.622 283.036L277.147 280.148L358.397 280.148Z" fill="white"/>
<path d="M279.419 298.933H360.281C360.808 298.933 361.235 298.506 361.235 297.98C361.235 297.453 360.808 297.026 360.281 297.026H279.419C274.538 297.026 270.567 293.341 270.567 288.813C270.567 284.284 274.538 280.599 279.419 280.599H360.281C360.808 280.599 361.235 280.172 361.235 279.646C361.235 279.119 360.808 278.692 360.281 278.692H279.419C273.487 278.692 268.66 283.232 268.66 288.813C268.66 294.393 273.487 298.933 279.419 298.933Z" fill="#FF424D"/>
<path d="M357.301 289.025H317.618C317.501 289.025 317.406 288.93 317.406 288.813C317.406 288.696 317.501 288.601 317.618 288.601H357.301C357.418 288.601 357.513 288.696 357.513 288.813C357.513 288.93 357.418 289.025 357.301 289.025Z" fill="#AAC9F8"/>
<path d="M312.03 289.025H273.478C273.36 289.025 273.266 288.93 273.266 288.813C273.266 288.696 273.36 288.601 273.478 288.601H312.03C312.147 288.601 312.242 288.696 312.242 288.813C312.242 288.93 312.147 289.025 312.03 289.025Z" fill="#AAC9F8"/>
<path d="M294.293 292.821H274.513C274.396 292.821 274.301 292.726 274.301 292.609C274.301 292.492 274.396 292.397 274.513 292.397H294.293C294.41 292.397 294.505 292.492 294.505 292.609C294.505 292.726 294.41 292.821 294.293 292.821Z" fill="#AAC9F8"/>
<path d="M357.301 292.821H297.196C297.079 292.821 296.984 292.726 296.984 292.609C296.984 292.492 297.079 292.397 297.196 292.397H357.301C357.418 292.397 357.513 292.492 357.513 292.609C357.513 292.726 357.418 292.821 357.301 292.821Z" fill="#AAC9F8"/>
<path d="M283.352 261.257C283.352 261.257 286.965 270.348 283.934 277.224L353.396 277.807L359.806 277.224L365.456 273.724V268.367L363.885 263.938L358.757 261.257H283.352V261.257Z" fill="white"/>
<path d="M356.65 278.692H281.604C281.115 278.692 280.719 278.295 280.719 277.807C280.719 277.318 281.115 276.921 281.604 276.921H356.65C361.18 276.921 364.865 273.502 364.865 269.299C364.865 265.095 361.18 261.676 356.65 261.676H281.604C281.115 261.676 280.719 261.28 280.719 260.791C280.719 260.302 281.115 259.906 281.604 259.906H356.65C362.156 259.906 366.635 264.119 366.635 269.298C366.635 274.478 362.156 278.692 356.65 278.692Z" fill="#258D8C"/>
<path d="M321.201 269.511H284.372C284.255 269.511 284.16 269.416 284.16 269.299C284.16 269.182 284.255 269.087 284.372 269.087H321.201C321.318 269.087 321.412 269.182 321.412 269.299C321.412 269.416 321.318 269.511 321.201 269.511Z" fill="#AAC9F8"/>
<path d="M362.167 269.511H326.388C326.271 269.511 326.176 269.416 326.176 269.299C326.176 269.182 326.271 269.087 326.388 269.087H362.167C362.284 269.087 362.379 269.182 362.379 269.299C362.379 269.416 362.284 269.511 362.167 269.511Z" fill="#AAC9F8"/>
<path d="M361.207 273.034H342.849C342.732 273.034 342.637 272.94 342.637 272.823C342.637 272.706 342.732 272.611 342.849 272.611H361.207C361.324 272.611 361.418 272.706 361.418 272.823C361.418 272.94 361.324 273.034 361.207 273.034Z" fill="#AAC9F8"/>
<path d="M361.205 265.985H284.372C284.255 265.985 284.16 265.891 284.16 265.774C284.16 265.656 284.255 265.562 284.372 265.562H361.205C361.322 265.562 361.417 265.656 361.417 265.774C361.417 265.891 361.322 265.985 361.205 265.985Z" fill="#AAC9F8"/>
<path d="M360.282 299.146H279.42C273.371 299.146 268.449 294.51 268.449 288.813C268.449 283.115 273.371 278.48 279.42 278.48H360.282C360.925 278.48 361.448 279.003 361.448 279.645C361.448 280.288 360.925 280.811 360.282 280.811C360.165 280.811 360.071 280.716 360.071 280.599C360.071 280.482 360.165 280.387 360.282 280.387C360.691 280.387 361.024 280.054 361.024 279.645C361.024 279.236 360.691 278.904 360.282 278.904H279.42C273.604 278.904 268.873 283.349 268.873 288.812C268.873 294.276 273.604 298.721 279.42 298.721H360.282C360.691 298.721 361.024 298.389 361.024 297.98C361.024 297.571 360.691 297.238 360.282 297.238C360.165 297.238 360.071 297.143 360.071 297.026C360.071 296.909 360.165 296.814 360.282 296.814C360.925 296.814 361.448 297.337 361.448 297.98C361.448 298.623 360.925 299.146 360.282 299.146Z" fill="#21111D"/>
<path d="M356.651 278.904H281.605C281 278.904 280.508 278.412 280.508 277.807C280.508 277.202 281 276.71 281.605 276.71C281.722 276.71 281.816 276.805 281.816 276.922C281.816 277.039 281.722 277.134 281.605 277.134C281.234 277.134 280.932 277.436 280.932 277.807C280.932 278.178 281.234 278.48 281.605 278.48H356.651C362.04 278.48 366.424 274.361 366.424 269.299C366.424 264.237 362.04 260.118 356.651 260.118H281.605C281.234 260.118 280.932 260.42 280.932 260.791C280.932 261.162 281.234 261.464 281.605 261.464C281.722 261.464 281.816 261.559 281.816 261.676C281.816 261.793 281.722 261.888 281.605 261.888C281 261.888 280.508 261.396 280.508 260.791C280.508 260.186 281 259.694 281.605 259.694H356.651C362.274 259.694 366.848 264.003 366.848 269.299C366.848 274.595 362.274 278.904 356.651 278.904Z" fill="#21111D"/>
<path d="M347.467 285.014C347.467 285.014 350.015 291.358 348.546 296.029L346.477 292.831C346.477 292.831 345.065 294.527 344.198 296.029C344.198 296.029 342.618 285.598 339.555 285.014H347.467Z" fill="#7FC6A6"/>
<path d="M328.281 272.823C328.281 272.823 325.734 279.167 327.202 283.838L329.271 280.64C329.271 280.64 330.684 282.335 331.55 283.838C331.55 283.838 333.13 273.406 336.194 272.823H328.281Z" fill="#4CB7D8"/>
<path d="M357.3 285.226H274.513C274.396 285.226 274.301 285.131 274.301 285.014C274.301 284.897 274.396 284.802 274.513 284.802H357.3C357.417 284.802 357.512 284.897 357.512 285.014C357.512 285.131 357.417 285.226 357.3 285.226Z" fill="#AAC9F8"/>
<path d="M340.154 273.034H284.372C284.255 273.034 284.16 272.94 284.16 272.823C284.16 272.706 284.255 272.611 284.372 272.611H340.154C340.271 272.611 340.366 272.706 340.366 272.823C340.366 272.94 340.271 273.034 340.154 273.034Z" fill="#AAC9F8"/>
<path d="M296.397 290.569L300.055 292.625L304.428 288.324L304.545 287.627L303.475 279.801L294.965 281.386L296.397 290.569Z" fill="#FE9F73"/>
<path d="M302.647 292.852L290.917 294.449C290.809 294.448 290.72 294.443 290.654 294.432C289.503 294.244 289.769 293.494 289.769 293.494L294.911 289.242L294.949 288.718C295.009 287.877 295.98 287.45 296.811 287.899L298.972 289.067C298.972 289.067 304.052 289.14 304.547 287.627L305.006 291.316C305.006 291.316 305.546 292.439 302.647 292.852Z" fill="#3A1F33"/>
<path d="M281.241 291.071L284.899 293.126L289.271 288.825L289.389 288.128L288.319 280.303L279.809 281.887L281.241 291.071Z" fill="#FE9F73"/>
<path d="M287.491 293.353L275.761 294.951C275.653 294.95 275.564 294.944 275.498 294.933C274.347 294.745 274.612 293.995 274.612 293.995L279.755 289.743L279.793 289.219C279.853 288.379 280.824 287.952 281.655 288.401L283.815 289.569C283.815 289.569 288.896 289.641 289.39 288.128L289.85 291.818C289.85 291.818 290.39 292.94 287.491 293.353Z" fill="#3A1F33"/>
<path d="M310.005 259.816C310.005 259.816 324.636 260.504 328.699 259.601C332.762 258.699 333.762 246.017 329.149 238.247C324.535 230.477 308.395 254.333 308.395 254.333L310.005 259.816Z" fill="#49263E"/>
<path d="M300.954 240.981C300.954 240.981 280.578 244.151 279.988 246.513C279.397 248.876 277.705 273.991 278.97 284.706C278.97 284.706 286.732 285.241 290.445 284.341L291.497 259.794L297.744 259.909L311.512 240.637L300.954 240.981Z" fill="#3A1F33"/>
<path d="M310.866 242.457C310.866 242.457 295.089 246.909 294.498 249.271C293.907 251.634 292.226 274.048 293.492 284.763C293.492 284.763 301.838 285.241 305.55 284.341L306.551 259.695L310.151 259.821L318.881 244.462L310.866 242.457Z" fill="#49263E"/>
<path d="M320.644 212.397C320.644 212.397 327.617 212.514 329.238 213.47C330.859 214.427 338.284 226.66 339.887 231.849C339.887 231.849 335.696 235.519 330.297 235.659L328.999 233.213L329.741 238.222L315.598 242.416C310.8 243.84 305.669 243.673 300.973 241.941L299.504 241.4C299.504 241.4 299.526 217.595 303.778 215.08C307.566 212.839 315.772 211.66 320.644 212.397Z" fill="#FEBAC7"/>
<path d="M311.884 200.7V207.439C311.884 207.439 311.789 209.717 313.782 210.002L313.41 213.041C313.271 214.171 313.947 215.253 315.032 215.596C315.563 215.764 316.196 215.887 316.914 215.887C319.192 215.887 320.426 214.178 320.616 213.324C320.806 212.47 320.236 208.389 320.236 208.389L320.306 206.383L320.046 198.612L311.884 200.7Z" fill="#FE9F73"/>
<path d="M317.385 204.07C317.408 204.07 317.432 204.061 317.45 204.044C317.488 204.007 317.489 203.947 317.453 203.91C317.44 203.896 316.135 202.561 314.942 203.522C314.901 203.555 314.894 203.614 314.927 203.655C314.96 203.696 315.02 203.702 315.061 203.669C316.118 202.818 317.268 203.991 317.316 204.041C317.335 204.06 317.36 204.07 317.385 204.07Z" fill="#21111D"/>
<path d="M313.471 203.501C313.498 203.501 313.524 203.49 313.543 203.468C313.578 203.428 313.573 203.368 313.534 203.334C313.495 203.301 312.59 202.526 312.018 203.017C311.978 203.051 311.973 203.111 312.007 203.151C312.041 203.191 312.101 203.195 312.141 203.161C312.59 202.777 313.401 203.47 313.409 203.477C313.427 203.493 313.449 203.501 313.471 203.501Z" fill="#21111D"/>
<path d="M315.465 204.454C315.465 204.611 315.592 204.738 315.75 204.738C315.907 204.738 316.034 204.611 316.034 204.454C316.034 204.296 315.907 204.169 315.75 204.169C315.593 204.169 315.465 204.296 315.465 204.454Z" fill="black"/>
<path d="M312.438 204.169C312.438 204.326 312.565 204.454 312.722 204.454C312.88 204.454 313.007 204.326 313.007 204.169C313.007 204.012 312.88 203.884 312.722 203.884C312.565 203.884 312.438 204.012 312.438 204.169Z" fill="black"/>
<path d="M319.78 198.987L318.192 201.237C318.192 201.237 313.377 203.106 310.909 200.892C308.442 198.677 309.201 197.613 309.924 196.504C310.281 195.958 311.983 194.845 314.071 195.772C315.211 196.278 316.054 194.768 317.383 195.528C318.712 196.287 320.279 197.602 320.104 198.122C319.928 198.642 319.78 198.987 319.78 198.987Z" fill="#21111D"/>
<path d="M319.683 198.037C319.683 198.037 321.874 197.932 322.486 200.041C323.098 202.15 322.275 203.255 322.254 203.884C322.233 204.513 322.659 208.752 319.683 208.436L318.879 201.434L319.915 198.646L319.683 198.037Z" fill="#21111D"/>
<path d="M320.726 205.563C321.393 204.896 321.393 203.815 320.726 203.147C320.058 202.48 318.977 202.48 318.31 203.147C317.642 203.815 317.642 204.896 318.31 205.563C318.977 206.231 320.058 206.231 320.726 205.563Z" fill="#FE9F73"/>
<path d="M319.65 205.402C320.005 205.402 320.242 205.135 320.32 204.868C320.413 204.553 320.307 204.247 320.051 204.088C319.672 203.853 319.329 204.004 319.154 204.119C319.228 203.925 319.343 203.784 319.499 203.699C319.835 203.513 320.253 203.648 320.257 203.65C320.282 203.658 320.309 203.645 320.317 203.62C320.325 203.595 320.312 203.568 320.287 203.56C320.268 203.553 319.827 203.41 319.454 203.615C319.238 203.733 319.092 203.943 319.018 204.237L318.977 204.403L319.097 204.283C319.114 204.266 319.521 203.871 320.001 204.168C320.267 204.333 320.29 204.634 320.229 204.842C320.166 205.057 319.977 205.307 319.651 205.307C319.648 205.307 319.644 205.307 319.641 205.307C319.615 205.307 319.594 205.328 319.594 205.354C319.593 205.38 319.614 205.401 319.641 205.402C319.644 205.401 319.647 205.402 319.65 205.402Z" fill="#F07162"/>
<path d="M318.403 208.067C318.403 208.067 318.27 211.88 313.508 212.244L313.782 210.002C313.782 210.002 316.871 210.623 318.403 208.067Z" fill="#F07162"/>
<path d="M329.192 233.52C335.08 232.604 338.572 229.079 338.606 229.044L338.403 228.845C338.369 228.88 334.939 232.338 329.148 233.239L329.192 233.52Z" fill="#21111D"/>
<path d="M300.543 285.054C304.231 285.054 305.546 284.499 305.609 284.471L305.69 284.435L306.659 259.645L305.135 260.364L305.256 260.621L306.356 260.103L305.413 284.241C305.014 284.379 303.101 284.931 298.584 284.722L298.57 285.006C299.293 285.04 299.949 285.054 300.543 285.054Z" fill="#21111D"/>
<path d="M303.998 279.708C304.392 278.19 304.505 263.381 304.509 262.752L304.224 262.75C304.223 262.903 304.108 278.152 303.723 279.637L303.998 279.708Z" fill="#21111D"/>
<path d="M285.13 285.145C288.282 285.145 290.585 284.598 290.585 284.598L291.498 259.795L290.332 260.603L290.511 260.825L291.192 260.276L290.308 284.37C289.825 284.474 287.722 284.889 284.854 284.859L284.852 285.144C284.945 285.145 285.038 285.145 285.13 285.145Z" fill="#21111D"/>
<path d="M289.099 280.259C289.49 277.966 289.117 262.442 289.101 261.783L288.816 261.79C288.82 261.951 289.205 277.945 288.818 280.211L289.099 280.259Z" fill="#21111D"/>
<path d="M303.174 243.681L304.786 241.174C305.675 239.738 307.109 237.856 308.602 237.689C311.042 237.417 325.901 236.807 330.615 236.225C330.615 236.225 330.292 235.658 330.3 235.659C330.355 235.672 334.154 235.012 334.154 235.012L336.601 233.852L338.801 232.901C339.409 235.268 341.076 239.158 339.366 241.867C336.206 246.874 312.04 244.409 309.896 243.753L307.923 245.891L307.519 246.511C307.329 246.804 306.936 246.887 306.643 246.697C306.35 246.506 306.267 246.113 306.458 245.82L306.289 246.08C306.098 246.373 305.706 246.456 305.413 246.265C305.12 246.074 305.037 245.682 305.228 245.389C305.037 245.682 304.644 245.765 304.351 245.574C304.058 245.384 303.975 244.991 304.166 244.698L304.335 244.439C304.144 244.732 303.751 244.815 303.458 244.624C303.446 244.616 303.436 244.608 303.424 244.6C303.422 244.598 303.419 244.596 303.416 244.594C303.411 244.59 303.406 244.585 303.4 244.581C303.4 244.581 303.399 244.58 303.399 244.58C303.398 244.579 303.397 244.579 303.397 244.578C303.358 244.545 303.323 244.508 303.294 244.468C302.948 244.052 303.174 243.681 303.174 243.681Z" fill="#FE9F73"/>
<path d="M330.223 235.854L330.314 235.852C335.114 235.74 339.939 232.049 339.988 232.012L340.077 231.943L337.032 225.197L336.773 225.314L339.724 231.853C339.051 232.35 334.717 235.422 330.398 235.565L329.091 232.905L328.836 233.031L330.223 235.854Z" fill="#21111D"/>
<path d="M332.312 238.55C332.338 238.556 332.368 238.551 332.391 238.532C332.432 238.5 332.44 238.441 332.408 238.399L330.678 236.172C330.646 236.131 330.586 236.124 330.545 236.156C330.503 236.188 330.496 236.248 330.528 236.289L332.258 238.516C332.272 238.534 332.291 238.545 332.312 238.55Z" fill="#F07162"/>
<path d="M304.054 244.802C304.09 244.81 304.129 244.797 304.152 244.765L306.416 241.657C306.447 241.615 306.437 241.555 306.395 241.525C306.353 241.494 306.293 241.503 306.262 241.545L303.999 244.654C303.968 244.696 303.977 244.755 304.019 244.786C304.03 244.794 304.042 244.799 304.054 244.802Z" fill="#F07162"/>
<path d="M305.051 245.711C305.088 245.72 305.128 245.705 305.15 245.672L307.311 242.468C307.34 242.424 307.328 242.365 307.285 242.336C307.241 242.306 307.182 242.318 307.153 242.362L304.993 245.566C304.963 245.609 304.975 245.668 305.018 245.698C305.028 245.704 305.039 245.709 305.051 245.711Z" fill="#F07162"/>
<path d="M306.25 246.291C306.287 246.299 306.328 246.284 306.35 246.251L308.147 243.535C308.176 243.491 308.164 243.432 308.12 243.403C308.077 243.374 308.018 243.386 307.989 243.43L306.192 246.146C306.163 246.189 306.175 246.248 306.218 246.277C306.228 246.284 306.239 246.288 306.25 246.291Z" fill="#F07162"/>
<path d="M316.271 260.081C309.055 260.081 304.694 259.596 304.629 259.589L304.661 259.306C304.758 259.317 314.545 260.405 329.138 259.306L329.16 259.59C324.262 259.959 319.904 260.081 316.271 260.081Z" fill="#21111D"/>
<path d="M306.163 221.906L305.781 233.996L306.066 234.005L306.448 221.915L306.163 221.906Z" fill="#21111D"/>
<path d="M324.785 222.801L324.523 222.914L330.175 235.924L330.436 235.811L324.785 222.801Z" fill="#21111D"/>
<path d="M328.98 232.421L328.699 232.467L329.329 236.366L329.61 236.321L328.98 232.421Z" fill="#21111D"/>
<path d="M314.459 206.374C314.479 206.374 314.498 206.362 314.504 206.342C314.512 206.317 314.499 206.29 314.474 206.282L313.523 205.967L313.823 203.728C313.827 203.702 313.808 203.678 313.782 203.675C313.756 203.671 313.733 203.69 313.729 203.716L313.418 206.033L314.444 206.372C314.449 206.374 314.454 206.374 314.459 206.374Z" fill="#F07162"/>
<path d="M315.196 207.299C315.166 207.293 313.316 207.25 313.316 207.25C313.316 207.25 313.549 208.015 314.236 208.033C314.924 208.051 315.196 207.299 315.196 207.299Z" fill="#FBFDFC"/>
<path d="M275.617 225.197H298.233L306.12 245.283H283.505L275.617 225.197Z" fill="#FECC86"/>
<path d="M306.122 245.283H304.942L297.055 225.197H298.235L306.122 245.283Z" fill="#FFB357"/>
<path d="M290.403 234.6C290.717 235.522 290.487 236.435 289.89 236.638C289.293 236.84 288.555 236.257 288.242 235.334C287.928 234.411 288.158 233.499 288.755 233.296C289.352 233.093 290.09 233.677 290.403 234.6Z" fill="#E2F2F1"/>
<path d="M313.597 243.661H305.148V245.283H313.597C314.045 245.283 314.408 244.92 314.408 244.472C314.408 244.024 314.045 243.661 313.597 243.661Z" fill="#FFB357"/>
<path d="M311.458 244.218H306.121V244.472H311.458V244.218Z" fill="#FECC86"/>
<path d="M312.886 245.283H302.934V248.839H312.886V245.283Z" fill="#49263E"/>
<path d="M370.621 298.847H-2.04297V300H370.621V298.847Z" fill="#21111D"/>
<path d="M58.1756 295.982L49.041 296.108L48.9102 287.493L58.0089 286.356L58.1756 295.982Z" fill="#FE9F73"/>
<path d="M67.5613 297.533H48.9102V293.78C48.9102 293.78 50.2668 291.979 52.3324 292.898C52.3324 292.898 55.3905 295.112 58.1444 292.466L65.0502 295.431C65.0502 295.431 67.5613 296.257 67.5613 297.533Z" fill="#33192C"/>
<path d="M48.9102 298.847H67.9951C68.2028 298.847 68.3713 298.678 68.3713 298.471V297.91C68.3713 297.702 68.2028 297.533 67.9951 297.533H48.9102V298.847Z" fill="#472A31"/>
<path d="M60.1871 293.344C59.5613 294.321 58.305 296.284 57.5056 297.533H56.2344C56.9484 296.417 58.4451 294.079 59.1899 292.916L60.1871 293.344Z" fill="#D7E4F7"/>
<path d="M59.5447 297.533H58.2734C58.8543 296.625 59.9871 294.855 60.7891 293.603L61.7864 294.031C61.1126 295.083 60.179 296.542 59.5447 297.533Z" fill="#D7E4F7"/>
<path d="M42.4453 295.982L33.3105 296.108L33.1797 287.493L42.2784 286.356L42.4453 295.982Z" fill="#FE9F73"/>
<path d="M43.4197 221.41C43.722 230.307 45.0377 265.107 47.8037 287.876C47.986 289.377 49.258 290.509 50.7698 290.505C52.4434 290.501 54.7714 290.301 57.3511 289.514C58.598 289.133 59.4636 287.999 59.4848 286.695L60.6093 217.416C60.6119 217.248 60.6006 217.079 60.5749 216.913L60.5222 216.571C60.2324 214.685 58.2745 213.549 56.4934 214.233L45.3364 218.519C44.1462 218.976 43.3765 220.136 43.4197 221.41Z" fill="#33192C"/>
<path d="M31.1509 219.616C31.1509 219.616 30.3914 262.409 32.3716 288.806C32.4652 290.055 33.4572 291.042 34.7064 291.137C36.4746 291.272 39.168 291.251 42.2039 290.446C43.2334 290.172 43.9831 289.283 44.0747 288.222L49.3712 226.852L52.6324 209.812L31.1509 219.616Z" fill="#49263E"/>
<path d="M27.7461 205.996C27.9327 207.706 28.9565 233.067 31.8019 235.16C34.6473 237.252 61.8737 235.241 62.5076 232.769C63.1416 230.297 59.4464 203.793 59.4464 203.793L27.7461 205.996Z" fill="#FFB357"/>
<path d="M58.4883 194.047C58.8559 194.054 73.4164 200.913 73.4164 200.913L70.2441 206.509L62.0135 204.406L58.4883 194.047Z" fill="#FFB357"/>
<path d="M37.9793 166.834C37.9793 166.834 31.7034 166.4 28.6459 167.997C24.0833 170.381 25.1827 184.959 25.1827 184.959C25.1827 184.959 29.0572 183.013 29.3114 182.33C29.5654 181.646 37.9793 166.834 37.9793 166.834Z" fill="#FFB357"/>
<path d="M31.8598 167.761C35.4478 167.388 44.8827 167.368 44.8827 167.368C44.8827 167.368 46.1199 167.738 45.7285 167.54C56.072 169.732 56.9591 177.488 56.9591 177.488L61.2786 199.958L66.9206 200.457C68.6319 203.985 66.9697 213.288 66.9697 213.288L39.4859 215.441C39.4859 215.441 33.5347 216.214 28.7483 209.625C25.5819 205.266 24.9 192.19 25.2261 182.664C25.2261 182.664 26.284 168.34 31.8598 167.761Z" fill="#FFB357"/>
<path d="M39.9854 199.618C40.0162 199.631 40.0507 199.635 40.0859 199.628C40.1795 199.61 40.2403 199.518 40.2216 199.425C40.1971 199.302 37.7503 187.041 36.7939 179.345C36.782 179.25 36.6951 179.183 36.6009 179.195C36.5061 179.207 36.4387 179.293 36.4506 179.388C37.4089 187.096 39.8579 199.37 39.8825 199.493C39.894 199.551 39.934 199.597 39.9854 199.618Z" fill="#21111D"/>
<path d="M56.9479 199.907C56.9198 199.932 56.8835 199.948 56.8433 199.95C56.748 199.956 56.666 199.883 56.6607 199.787C56.6526 199.645 55.8361 185.538 55.0105 180.867C54.9939 180.773 55.0569 180.683 55.1506 180.667C55.2446 180.65 55.3345 180.713 55.3511 180.807C56.1803 185.498 56.9978 199.625 57.0061 199.767C57.0093 199.823 56.9865 199.873 56.9479 199.907Z" fill="#21111D"/>
<path d="M59.0281 196.849C59.1046 196.881 59.1953 196.854 59.241 196.782L60.4694 194.832L60.4565 194.765L57.1302 177.462C57.1113 177.306 56.8405 175.294 55.2195 173.029C53.6998 170.907 50.6534 168.17 44.772 167.182C44.6777 167.166 44.5884 167.23 44.5727 167.324C44.5569 167.418 44.6207 167.507 44.7147 167.523C50.4693 168.489 53.4445 171.152 54.927 173.215C56.5334 175.451 56.785 177.488 56.7872 177.508L56.7893 177.521L60.104 194.764L58.9483 196.597C58.8973 196.678 58.9216 196.785 59.0025 196.836C59.0106 196.841 59.0193 196.846 59.0281 196.849Z" fill="#21111D"/>
<path d="M35.3797 198.308C35.387 198.311 35.3944 198.313 35.4021 198.316L39.989 199.531C40.0813 199.555 40.1761 199.5 40.2005 199.408C40.225 199.316 40.1701 199.221 40.0775 199.196L35.4907 197.981C35.3984 197.957 35.3036 198.012 35.2792 198.104C35.2569 198.188 35.3011 198.275 35.3797 198.308Z" fill="#21111D"/>
<path d="M65.1475 197.121C65.2342 197.157 65.3345 197.117 65.3724 197.031C65.4108 196.943 65.3709 196.841 65.2835 196.803L60.3558 194.64C60.265 194.605 60.1662 194.641 60.1279 194.729C60.0895 194.816 60.1294 194.918 60.2168 194.957L65.1443 197.12C65.1454 197.12 65.1464 197.12 65.1475 197.121Z" fill="#21111D"/>
<path d="M85.5677 213.49L69.3699 212.425C68.6012 212.375 67.9536 211.692 68.0435 211.027L71.27 187.172C71.3351 186.69 71.7764 186.374 72.3339 186.411L88.5317 187.476C89.3004 187.526 89.948 188.209 89.8581 188.874L86.6316 212.729C86.5663 213.211 86.1252 213.527 85.5677 213.49Z" fill="#7FC6A6"/>
<path d="M77.7184 208.488C77.7348 208.042 77.3501 207.653 76.9051 207.623L74.1513 207.438C74.0648 207.433 73.9915 207.373 73.969 207.289C73.9358 207.165 74.0238 207.042 74.1514 207.034L78.228 206.764C78.695 206.733 78.9779 206.338 78.8565 205.886C78.7351 205.434 78.2535 205.089 77.7865 205.12L73.6295 205.395C73.533 205.402 73.4454 205.339 73.4203 205.246L73.4025 205.179C73.3734 205.071 73.4376 204.96 73.5457 204.931L78.0024 203.734C78.4331 203.618 78.7349 203.161 78.632 202.727C78.523 202.267 78.0566 201.991 77.603 202.113L73.1125 203.319C73.0044 203.348 72.8932 203.284 72.8642 203.176L72.8077 202.966C72.7813 202.867 72.8319 202.765 72.9259 202.726L76.9109 201.075C77.323 200.905 77.5628 200.412 77.4043 199.995C77.2365 199.553 76.7381 199.34 76.3044 199.52C76.3044 199.52 70.1749 201.689 69.1747 201.953L71.0183 201.091C72.3749 202.363 70.8434 200.627 69.7272 200.402C68.4905 200.153 65.2235 203.178 65.2235 203.178C65.0733 203.438 65.2278 204.02 65.4637 204.457C66.3752 209.298 66.5555 210.036 66.9215 211.319L71.9572 209.783C73.4103 209.339 74.9319 209.164 76.4477 209.265L76.8284 209.291C77.2969 209.322 77.7008 208.96 77.7184 208.488Z" fill="#FE9F73"/>
<path d="M81.3829 195.654C81.3784 196.535 80.6857 197.274 79.8356 197.305C78.9857 197.337 78.3002 196.648 78.3047 195.767C78.3092 194.887 79.0019 194.147 79.852 194.116C80.702 194.085 81.3875 194.773 81.3829 195.654Z" fill="white"/>
<path d="M69.7836 200.063L69.5547 201.84L71.4457 201.209L71.4208 199.922L69.7836 200.063Z" fill="#7FC6A6"/>
<path d="M88.5339 187.302L72.3361 186.237C71.698 186.195 71.1799 186.574 71.1036 187.139L69.1523 201.982L69.554 201.842L71.4391 187.206C71.4928 186.809 71.8608 186.553 72.3342 186.585L88.532 187.649C88.6255 187.656 88.7018 187.583 88.7024 187.487C88.7029 187.391 88.6274 187.308 88.5339 187.302Z" fill="#21111D"/>
<path d="M66.9206 200.457C66.9206 200.457 68.582 204.782 66.9697 213.288L65.3555 207.177L62.6641 203.197L66.9206 200.457Z" fill="#FFB357"/>
<path d="M34.0087 199.568C34.0289 199.577 34.0512 199.582 34.0746 199.582C34.3221 199.583 58.8097 199.683 66.7906 200.616C66.9695 201.148 67.78 203.893 67.3579 208.851C67.3498 208.946 67.4198 209.03 67.5156 209.038C67.6108 209.046 67.6946 208.976 67.7027 208.88C68.1811 203.262 67.1239 200.507 67.0788 200.393L67.0409 200.297L66.9385 200.285C59.0512 199.338 34.3248 199.237 34.0759 199.236C33.9803 199.235 33.9025 199.313 33.9023 199.408C33.902 199.48 33.9458 199.542 34.0087 199.568Z" fill="#21111D"/>
<path d="M43.9969 214.86C53.9961 214.86 66.2355 213.57 66.9901 213.489C67.1006 213.477 67.1809 213.378 67.1692 213.267C67.1573 213.156 67.0626 213.076 66.9471 213.088C66.6744 213.117 39.5879 215.973 32.7841 213.306C26.0601 210.67 25.5908 195.855 25.5868 195.706C25.584 195.595 25.4907 195.504 25.3801 195.51C25.2688 195.513 25.1808 195.605 25.1837 195.716C25.2003 196.337 25.6648 210.948 32.6372 213.681C34.8795 214.56 39.1779 214.86 43.9969 214.86Z" fill="#21111D"/>
<path d="M38.1887 151.395C38.1887 151.395 35.8126 152.621 37.0006 157.416L37.8992 156.953L37.596 154.406L38.1887 151.395Z" fill="#21111D"/>
<path d="M46.5176 154.37V161.397C46.5176 161.397 46.616 163.772 44.5507 164.069L44.9363 167.238C45.0796 168.416 44.3796 169.543 43.2554 169.902C42.7057 170.077 42.0495 170.205 41.3053 170.205C38.9451 170.205 37.6664 168.423 37.4699 167.533C37.2731 166.642 37.8632 162.387 37.8632 162.387L37.7913 160.295L38.0598 152.193L46.5176 154.37Z" fill="#FE9F73"/>
<path d="M40.8171 157.883C40.7926 157.883 40.768 157.874 40.7489 157.856C40.7099 157.818 40.7085 157.755 40.7461 157.716C40.7597 157.702 42.1123 156.309 43.3485 157.312C43.3908 157.346 43.3974 157.408 43.3634 157.451C43.3294 157.493 43.2674 157.5 43.2251 157.465C42.1299 156.578 40.9383 157.8 40.8881 157.853C40.8689 157.873 40.843 157.883 40.8171 157.883Z" fill="#21111D"/>
<path d="M44.8719 157.29C44.8443 157.29 44.8169 157.278 44.7975 157.255C44.762 157.214 44.7663 157.152 44.8073 157.116C44.8469 157.081 45.7851 156.274 46.3782 156.786C46.4194 156.821 46.4243 156.884 46.389 156.925C46.3537 156.967 46.2915 156.972 46.2504 156.936C45.7856 156.535 44.9447 157.258 44.9364 157.266C44.9176 157.282 44.8947 157.29 44.8719 157.29Z" fill="#21111D"/>
<path d="M42.805 158.283C42.805 158.447 42.6728 158.58 42.5098 158.58C42.3468 158.58 42.2148 158.447 42.2148 158.283C42.2148 158.12 42.347 157.987 42.5098 157.987C42.6726 157.987 42.805 158.119 42.805 158.283Z" fill="black"/>
<path d="M45.9415 157.986C45.9415 158.15 45.8095 158.283 45.6465 158.283C45.4836 158.283 45.3516 158.15 45.3516 157.986C45.3516 157.822 45.4838 157.689 45.6465 157.689C45.8093 157.689 45.9415 157.822 45.9415 157.986Z" fill="black"/>
<path d="M37.5944 160.167C38.572 160.167 39.3645 159.37 39.3645 158.386C39.3645 157.402 38.572 156.605 37.5944 156.605C36.6167 156.605 35.8242 157.402 35.8242 158.386C35.8242 159.37 36.6167 160.167 37.5944 160.167Z" fill="#FE9F73"/>
<path d="M37.4627 159.478C37.095 159.478 36.8493 159.2 36.7685 158.922C36.6728 158.593 36.7825 158.274 37.0478 158.108C37.4398 157.863 37.7952 158.02 37.9772 158.14C37.9009 157.938 37.781 157.791 37.6198 157.702C37.271 157.509 36.8384 157.649 36.834 157.651C36.8083 157.66 36.7804 157.645 36.7719 157.619C36.7634 157.594 36.7772 157.566 36.803 157.557C36.8223 157.551 37.2797 157.401 37.6666 157.615C37.89 157.738 38.0418 157.957 38.1183 158.264L38.1612 158.436L38.036 158.311C38.0182 158.293 37.5973 157.881 37.0997 158.192C36.8242 158.364 36.8 158.678 36.8629 158.894C36.9282 159.119 37.1243 159.379 37.4623 159.379C37.4657 159.379 37.4689 159.379 37.4725 159.379C37.4993 159.379 37.5212 159.401 37.5216 159.428C37.522 159.455 37.5002 159.478 37.473 159.478C37.4695 159.478 37.4661 159.478 37.4627 159.478Z" fill="#F07162"/>
<path d="M46.8581 160.279C46.8581 160.279 47.5013 165.037 44.3613 165.206C39.8683 165.448 39.4332 162.868 39.1662 160.756L39.1211 156.399L39.2654 155.134C39.583 155.496 39.7769 155.949 39.8198 156.43C39.9127 157.475 40.1429 160.29 40.4022 160.414C40.7677 160.591 46.1587 159.82 46.8581 160.279Z" fill="#21111D"/>
<path d="M43.846 160.286C43.8254 160.286 43.8062 160.273 43.7994 160.252C43.7909 160.226 43.8048 160.198 43.8307 160.189L44.8164 159.861L44.505 157.527C44.5015 157.5 44.5203 157.475 44.5472 157.472C44.5743 157.467 44.5989 157.487 44.6025 157.514L44.9248 159.93L43.8617 160.284C43.8564 160.285 43.8513 160.286 43.846 160.286Z" fill="#F07162"/>
<path d="M43.082 161.25C43.1122 161.244 45.0293 161.199 45.0293 161.199C45.0293 161.199 44.7887 161.997 44.0762 162.015C43.3638 162.034 43.082 161.25 43.082 161.25Z" fill="#FBFDFC"/>
<path d="M39.2577 155.215L38.3689 154.406L37.4492 156.616C37.4492 156.616 38.5862 156.804 38.606 157.986C38.6259 159.169 37.9876 161.015 40.0353 163.667C42.0829 166.32 39.8705 159.708 39.8506 159.478C39.8308 159.248 39.2577 155.215 39.2577 155.215Z" fill="#21111D"/>
<path d="M38.1888 151.395C39.137 150.455 42.4254 149.918 44.7719 151.332L44.7721 151.329C47.4437 152.636 46.6045 155.297 46.5158 155.376L46.4812 155.35C46.4946 155.411 46.5069 155.472 46.5158 155.534C46.5158 155.534 46.4036 155.355 46.1636 155.106L45.1129 154.302C44.5243 153.97 43.7344 153.684 42.7126 153.618C41.6982 153.552 40.8123 153.608 40.0851 153.831C39.8929 154.435 39.7365 155.631 39.9624 157.986C40.3068 161.579 38.7374 157.221 38.1665 155.552C38.044 155.864 37.9551 156.214 37.9105 156.616C37.9105 156.616 36.2888 153.28 38.1888 151.395Z" fill="#21111D"/>
<path d="M46.5172 156.344C46.5172 156.344 46.5873 154.902 46.518 154.586C46.4487 154.27 43.2381 153.363 41.48 153.604C39.7219 153.845 43.1299 155.781 43.1693 155.781C43.2088 155.781 46.5172 156.344 46.5172 156.344Z" fill="#FE9F73"/>
<path d="M40.4214 153.973L38.7227 152.393L40.3227 154.704L40.4214 153.973Z" fill="#FE9F73"/>
<path d="M40.4221 150.862C40.4221 150.862 40.7679 147.454 38.8714 148.195C36.9749 148.936 36.649 150.506 38.3676 151.543C40.0864 152.581 40.4221 150.862 40.4221 150.862Z" fill="#21111D"/>
<path d="M33.4258 174.124L36.7735 168.51L42.6559 170.287L45.0421 167.749C45.0421 167.749 45.5496 170.093 45.5347 170.287C45.5198 170.481 42.8472 173.258 42.5037 173.228C42.1602 173.198 33.4258 174.124 33.4258 174.124Z" fill="#FFB357"/>
<path d="M33.9024 235.96C34.0072 235.96 34.0956 235.879 34.1031 235.772C34.1111 235.661 34.0276 235.565 33.9166 235.557C31.0923 235.355 30.7043 232.954 30.0618 228.975C29.9465 228.26 29.8269 227.52 29.683 226.725C28.7266 221.441 28.3057 208.639 28.3017 208.51C28.2981 208.401 28.2086 208.315 28.1002 208.315C28.0981 208.315 28.0961 208.315 28.0936 208.315C27.9824 208.319 27.8951 208.412 27.8985 208.523C27.9027 208.652 28.3247 221.484 29.2861 226.797C29.4294 227.589 29.5486 228.326 29.6638 229.039C30.3149 233.071 30.7451 235.735 33.8875 235.959C33.8928 235.96 33.8975 235.96 33.9024 235.96Z" fill="#21111D"/>
<path d="M44.6897 165.222L44.9331 167.21C44.9331 167.21 43.4773 169.395 42.4812 170.092C40.5058 168.722 37.4484 166.807 37.4484 166.807L37.627 164.294C33.96 163.876 29.7844 166.181 30.74 167.368C31.6955 168.555 36.6619 168.92 37.9801 169.352C39.2805 169.779 42.6027 170.788 42.6027 170.788C43.4762 170.139 45.8217 167.383 45.8217 167.383L48.1952 168.042C48.2413 165.633 44.6897 165.222 44.6897 165.222Z" fill="#FD7583"/>
<path d="M51.8309 297.533H33.1797V293.78C33.1797 293.78 34.5363 291.979 36.602 292.898C36.602 292.898 39.66 295.112 42.414 292.466L49.3195 295.431C49.3195 295.431 51.8309 296.257 51.8309 297.533Z" fill="#49263E"/>
<path d="M33.1797 298.847H52.2646C52.4723 298.847 52.6408 298.678 52.6408 298.471V297.91C52.6408 297.702 52.4723 297.533 52.2646 297.533H33.1797V298.847Z" fill="#683D46"/>
<path d="M44.4566 293.344C43.8308 294.321 42.5745 296.284 41.7752 297.533H40.5039C41.2179 296.417 42.7146 294.079 43.4594 292.916L44.4566 293.344Z" fill="#D7E4F7"/>
<path d="M43.8142 297.533H42.543C43.1238 296.625 44.2565 294.855 45.0587 293.603L46.0561 294.031C45.3821 295.083 44.4485 296.542 43.8142 297.533Z" fill="#D7E4F7"/>
<path d="M42.603 170.922C42.6376 170.922 42.6725 170.908 42.6988 170.882L46.8418 166.673C46.8938 166.62 46.8932 166.535 46.8403 166.483C46.7877 166.431 46.7025 166.431 46.6504 166.484L42.5073 170.693C42.4554 170.746 42.4559 170.831 42.5088 170.883C42.5351 170.909 42.5689 170.922 42.603 170.922Z" fill="black"/>
<path d="M151.053 206.26C151.053 195.089 141.997 186.034 130.827 186.034C119.657 186.034 110.602 195.089 110.602 206.26C110.602 211.8 112.83 216.82 116.439 220.473H116.438C116.438 220.473 122.559 227.019 124.626 234.153C124.626 234.153 128.16 235.353 130.827 235.42C133.494 235.353 137.028 234.153 137.028 234.153C139.095 227.019 145.216 220.473 145.216 220.473H145.215C148.824 216.82 151.053 211.8 151.053 206.26Z" fill="#FECC86"/>
<path d="M124.078 232.54V237.949C124.078 240.386 125.581 242.472 127.711 243.332C127.925 244.861 129.234 246.038 130.821 246.038C132.407 246.038 133.716 244.861 133.93 243.332C136.06 242.472 137.563 240.386 137.563 237.949V232.54H124.078Z" fill="#4CB7D8"/>
<g opacity="0.3">
<path d="M151.054 206.259C151.054 202.121 149.811 198.273 147.678 195.069C141.762 209.644 132.328 219.447 118.738 223.249C120.45 225.494 122.718 228.875 124.09 232.54H137.566V232.541C139.99 226.063 145.217 220.473 145.217 220.473H145.216C148.825 216.82 151.054 211.8 151.054 206.259Z" fill="#FECC86"/>
</g>
<path d="M134.133 232.619L133.554 232.461C133.573 232.392 135.459 225.457 136.768 218.353C139.037 206.028 137.732 203.414 136.752 202.953C135.75 202.481 134.962 202.566 134.41 203.204C134.37 203.25 134.331 203.299 134.294 203.351C135.708 204.184 136.05 205.465 136.131 205.984C136.356 207.414 135.715 208.843 134.705 209.168C134.46 209.247 133.989 209.286 133.582 208.671C132.935 207.693 132.733 205.248 133.457 203.617C132.762 203.333 131.915 203.182 130.945 203.182H130.361C129.392 203.182 128.545 203.333 127.85 203.617C128.574 205.248 128.372 207.693 127.726 208.671C127.318 209.286 126.847 209.247 126.602 209.168C125.591 208.843 124.951 207.415 125.176 205.984C125.257 205.465 125.599 204.185 127.013 203.351C126.976 203.3 126.937 203.251 126.897 203.204C126.345 202.566 125.557 202.482 124.555 202.953C123.575 203.414 122.269 206.028 124.539 218.354C125.848 225.457 127.734 232.393 127.753 232.462L127.174 232.62C127.155 232.55 125.263 225.594 123.95 218.466C122.137 208.625 122.252 203.374 124.299 202.41C125.888 201.663 126.836 202.216 127.351 202.812C127.423 202.895 127.491 202.984 127.554 203.078C128.262 202.777 129.177 202.581 130.361 202.581H130.945C132.13 202.581 133.045 202.777 133.752 203.078C133.816 202.984 133.883 202.895 133.956 202.812C134.471 202.216 135.419 201.662 137.007 202.41C139.055 203.374 139.169 208.625 137.357 218.466C136.044 225.593 134.152 232.55 134.133 232.619ZM127.311 203.882C126.458 204.38 125.917 205.128 125.769 206.076C125.573 207.325 126.137 208.388 126.786 208.597C126.846 208.616 127.007 208.668 127.225 208.339C127.779 207.502 127.925 205.29 127.311 203.882ZM133.996 203.882C133.382 205.29 133.528 207.502 134.082 208.34C134.299 208.668 134.46 208.616 134.521 208.597C135.17 208.388 135.734 207.326 135.538 206.077C135.39 205.128 134.849 204.38 133.996 203.882Z" fill="#F99247"/>
<path d="M123.983 232.682C123.822 232.221 123.75 232.052 123.59 231.682L123.504 231.48C120.978 225.583 116.376 220.625 116.33 220.575L116.316 220.56C112.535 216.723 110.453 211.646 110.453 206.259C110.453 195.024 119.594 185.884 130.829 185.884C137.727 185.884 144.104 189.334 147.887 195.112L147.636 195.277C143.909 189.583 137.625 186.184 130.829 186.184C119.759 186.184 110.753 195.19 110.753 206.26C110.753 211.575 112.811 216.585 116.547 220.367L116.743 220.565L116.729 220.568C117.609 221.552 121.519 226.083 123.779 231.362L123.866 231.563C124.028 231.94 124.102 232.112 124.267 232.583L123.983 232.682Z" fill="#21111D"/>
<path d="M116.702 196.922L116.414 196.838C116.429 196.788 117.924 191.81 122.955 189.938L123.06 190.22C118.173 192.037 116.716 196.874 116.702 196.922Z" fill="#21111D"/>
<path d="M117.632 198.722L117.344 198.638C117.358 198.588 118.853 193.61 123.885 191.738L123.99 192.019C119.103 193.837 117.646 198.673 117.632 198.722Z" fill="#21111D"/>
<path d="M131.557 243.905H130.087C126.692 243.905 123.93 241.143 123.93 237.748V232.391H137.565V232.691H124.23V237.748C124.23 240.977 126.857 243.605 130.087 243.605H131.557C133.104 243.605 134.562 243.008 135.665 241.923L135.875 242.137C134.716 243.277 133.183 243.905 131.557 243.905Z" fill="#21111D"/>
<path d="M130.911 246.189C127.989 246.189 127.567 243.354 127.562 243.325L127.86 243.284C127.875 243.393 128.265 245.951 131.008 245.888L131.015 246.188C130.98 246.189 130.945 246.189 130.911 246.189Z" fill="#21111D"/>
<path d="M144.698 217.582L144.52 217.341C147.189 215.361 147.609 212.054 147.613 212.021L147.911 212.056C147.907 212.09 147.474 215.522 144.698 217.582Z" fill="#21111D"/>
<path d="M144.109 216.141L143.93 215.9C145.875 214.457 146.183 212.045 146.185 212.021L146.483 212.056C146.471 212.16 146.161 214.618 144.109 216.141Z" fill="#21111D"/>
<path d="M123.461 235.236L123.457 234.936C123.571 234.935 134.941 234.788 138.542 233.446L138.647 233.727C134.997 235.087 123.93 235.231 123.461 235.236Z" fill="#21111D"/>
<path d="M123.463 237.77L123.457 237.47C123.581 237.468 135.92 237.224 138.227 235.988L138.368 236.252C135.998 237.522 123.973 237.761 123.463 237.77Z" fill="#21111D"/>
<path d="M124.085 240.371L124.082 240.071C124.193 240.07 135.266 239.953 138.231 238.421L138.369 238.687C135.34 240.253 124.543 240.367 124.085 240.371Z" fill="#21111D"/>
<path d="M105.448 203.076C105.435 203.076 105.422 203.075 105.409 203.074L98.2518 202.465C98.0041 202.444 97.8204 202.226 97.8415 201.978C97.8625 201.731 98.0804 201.548 98.3281 201.568L105.486 202.177C105.733 202.198 105.917 202.416 105.896 202.664C105.876 202.898 105.679 203.076 105.448 203.076Z" fill="#FECC86"/>
<path d="M109.151 191.673C109.064 191.673 108.975 191.647 108.898 191.594L102.969 187.538C102.764 187.397 102.712 187.117 102.852 186.912C102.992 186.707 103.272 186.654 103.478 186.795L109.406 190.851C109.611 190.992 109.664 191.272 109.523 191.477C109.436 191.604 109.295 191.673 109.151 191.673Z" fill="#FECC86"/>
<path d="M119.865 183.494C119.687 183.494 119.519 183.388 119.448 183.213L116.744 176.558C116.651 176.327 116.762 176.065 116.992 175.971C117.222 175.878 117.484 175.988 117.578 176.219L120.282 182.874C120.376 183.104 120.265 183.367 120.034 183.46C119.979 183.483 119.922 183.494 119.865 183.494Z" fill="#FECC86"/>
<path d="M155.852 204.373C155.617 204.373 155.419 204.19 155.403 203.952C155.387 203.704 155.575 203.49 155.823 203.474L162.991 203C163.237 202.984 163.453 203.172 163.469 203.42C163.486 203.668 163.298 203.882 163.05 203.899L155.882 204.372C155.872 204.372 155.862 204.373 155.852 204.373Z" fill="#FECC86"/>
<path d="M152.365 192.902C152.218 192.902 152.074 192.83 151.988 192.699C151.852 192.491 151.909 192.212 152.117 192.076L158.121 188.132C158.329 187.996 158.608 188.054 158.745 188.261C158.881 188.469 158.823 188.748 158.615 188.884L152.611 192.828C152.535 192.878 152.449 192.902 152.365 192.902Z" fill="#FECC86"/>
<path d="M143.196 183.467C143.137 183.467 143.077 183.455 143.019 183.431C142.791 183.333 142.685 183.068 142.783 182.84L145.612 176.237C145.71 176.009 145.975 175.903 146.203 176.001C146.431 176.098 146.537 176.363 146.439 176.592L143.61 183.194C143.537 183.365 143.371 183.467 143.196 183.467Z" fill="#FECC86"/>
<path d="M131.657 179.972C131.655 179.972 131.653 179.972 131.65 179.972C131.402 179.968 131.203 179.763 131.207 179.515L131.318 172.332C131.322 172.086 131.522 171.889 131.768 171.889C131.77 171.889 131.772 171.889 131.775 171.889C132.023 171.893 132.222 172.098 132.218 172.346L132.107 179.529C132.103 179.775 131.903 179.972 131.657 179.972Z" fill="#FECC86"/>
<g opacity="0.5">
<path d="M144.405 196.507C143.696 197.605 141.257 197.294 138.957 195.812C136.656 194.329 135.365 192.236 136.073 191.138C136.781 190.039 139.22 190.35 141.521 191.832C143.822 193.315 145.113 195.408 144.405 196.507Z" fill="#F3FFFE"/>
</g>
<path d="M138.145 55.5448H172.454C173.306 55.5448 173.997 54.8541 173.997 54.0018V34.0288C173.997 33.1766 173.306 32.4858 172.454 32.4858H138.145C137.292 32.4858 136.602 33.1766 136.602 34.0288V54.0018C136.602 54.8539 137.292 55.5448 138.145 55.5448Z" fill="white"/>
<path d="M140.113 36.684H171.295C171.511 36.684 171.686 36.5091 171.686 36.2933C171.686 36.0775 171.511 35.9026 171.295 35.9026H140.113C139.898 35.9026 139.723 36.0776 139.723 36.2933C139.723 36.5089 139.898 36.684 140.113 36.684Z" fill="#61A3C5"/>
<path d="M140.113 41.1222H171.295C171.511 41.1222 171.686 40.9474 171.686 40.7315C171.686 40.5157 171.511 40.3408 171.295 40.3408H140.113C139.898 40.3408 139.723 40.5157 139.723 40.7315C139.723 40.9474 139.898 41.1222 140.113 41.1222Z" fill="#61A3C5"/>
<path d="M151.035 45.5602H171.296C171.512 45.5602 171.686 45.3854 171.686 45.1695C171.686 44.9537 171.512 44.7788 171.296 44.7788H151.035C150.819 44.7788 150.645 44.9537 150.645 45.1695C150.644 45.3854 150.819 45.5602 151.035 45.5602Z" fill="#61A3C5"/>
<path d="M139.883 45.5602H147.968C148.184 45.5602 148.358 45.3854 148.358 45.1695C148.358 44.9537 148.184 44.7788 147.968 44.7788H139.883C139.667 44.7788 139.492 44.9537 139.492 45.1695C139.492 45.3854 139.667 45.5602 139.883 45.5602Z" fill="#61A3C5"/>
<path d="M158.559 49.9982H171.294C171.51 49.9982 171.684 49.8233 171.684 49.6075C171.684 49.3917 171.51 49.2168 171.294 49.2168H158.559C158.343 49.2168 158.168 49.3917 158.168 49.6075C158.168 49.8233 158.343 49.9982 158.559 49.9982Z" fill="#61A3C5"/>
<path d="M139.883 49.9982H155.705C155.921 49.9982 156.096 49.8233 156.096 49.6075C156.096 49.3917 155.921 49.2168 155.705 49.2168H139.883C139.667 49.2168 139.492 49.3917 139.492 49.6075C139.492 49.8233 139.667 49.9982 139.883 49.9982Z" fill="#61A3C5"/>
<path d="M148.037 54.5253C147.998 54.6798 141.978 62.5139 141.939 62.2822C141.9 62.0505 142.634 53.8691 142.634 53.8691L148.037 54.5253Z" fill="white"/>
<path d="M133.598 289.643H73.4141V290.118H133.598V289.643Z" fill="#21111D"/>
<g opacity="0.3">
<path d="M83.0543 261.23C84.7706 262.416 86.6424 263.291 88.591 263.849L89.2578 268.824L92.6863 268.992L96.1148 269.16L97.2646 264.273C99.2584 263.909 101.207 263.221 103.031 262.209L107.021 265.256L109.564 262.95L112.107 260.645L109.465 256.376C110.65 254.659 111.525 252.788 112.083 250.839L117.058 250.172L117.226 246.744L117.394 243.315L112.507 242.165C112.143 240.171 111.455 238.223 110.443 236.399L113.49 232.409L111.184 229.866L108.879 227.322L104.61 229.965C102.893 228.78 101.022 227.904 99.0729 227.347L98.406 222.371L94.9774 222.204L91.5489 222.036L90.3991 226.922C88.4054 227.287 86.457 227.975 84.633 228.987L80.6425 225.94L78.0994 228.246L75.5564 230.551L78.1991 234.82C77.0138 236.536 76.1384 238.408 75.5809 240.357L70.6053 241.024L70.4374 244.452L70.2695 247.881L75.1562 249.031C75.5207 251.024 76.209 252.973 77.221 254.797L74.1739 258.787L76.4794 261.33L78.7851 263.873L83.0543 261.23ZM85.1823 236.057C90.4514 231.28 98.5954 231.679 103.373 236.948C108.15 242.217 107.751 250.361 102.482 255.138C97.2127 259.916 89.0688 259.517 84.2916 254.248C79.5144 248.979 79.9132 240.835 85.1823 236.057Z" fill="#4CB7D8"/>
</g>
<defs>
<linearGradient id="paint0_linear_1694_15340" x1="196.5" y1="0.340332" x2="196.5" y2="299.555" gradientUnits="userSpaceOnUse">
<stop stop-color="#00C1C9"/>
<stop offset="1" stop-color="#00C1C9"/>
</linearGradient>
</defs>
</svg>
