<svg width="263" height="238" viewBox="0 0 263 238" fill="none" xmlns="http://www.w3.org/2000/svg">
<path d="M176.029 211.002C188.11 209.45 203.426 205.372 209.578 193.873C211.041 191.137 212.509 185.823 208.816 183.822C205.44 181.992 201.073 183.925 198.564 186.305C196.719 188.055 195.279 191.962 193.206 193.197C190.172 195.005 188.538 190.072 188.602 188.036C188.745 183.484 194.344 181.62 198.065 180.632C204.242 178.991 211.434 177.585 211.047 170.624C210.66 163.663 203.873 159.488 198.652 162.533C194.35 165.042 194.956 170.398 192.016 173.612C189.405 176.466 188.496 171.833 188.671 169.561C189.049 164.627 193.388 161.058 196.58 157.751C200.19 154.012 204.177 146.491 200.33 141.548C198.116 138.703 192.492 138.037 189.168 138.517C172.897 140.866 183.686 161.923 180.728 164.272C177.77 166.621 174.971 162.509 174.978 156.256C174.985 150.002 174.028 145.391 167.502 147.392C160.976 149.393 159.734 165.727 167.186 172.004C174.637 178.281 166.718 185.129 164.718 180.631C163.273 177.383 162.004 168.876 157.83 167.944C150.875 166.392 150.978 180.593 152.98 183.898C155.786 188.531 162.13 189.537 165.673 193.535C166.702 194.696 169.026 197.572 168.123 199.269C166.864 201.636 163.352 199.104 162.061 198.007C159.16 195.54 155.145 187.158 151.057 192.725C146.011 199.599 154.451 209.789 176.029 211.002Z" fill="#3EEB17"/>
<g opacity="0.8">
<path d="M177.77 209.686C177.486 209.686 177.253 209.508 177.248 209.223C177.243 208.976 176.907 184.238 187.721 154.787C187.821 154.516 188.121 154.39 188.391 154.489C188.662 154.588 188.801 154.894 188.701 155.165C177.954 184.434 178.287 208.955 178.292 209.2C178.297 209.488 178.068 209.686 177.78 209.686C177.776 209.686 177.773 209.686 177.77 209.686Z" fill="white"/>
</g>
<path d="M182.213 200.408C180.255 198.742 176.094 201.347 174.367 202.338C173.366 202.913 171.995 203.795 170.79 203.283C169.525 202.746 169.614 201.417 170.379 200.476C171.749 198.79 174.379 198.327 176.289 197.505C178.342 196.623 180.227 195.421 181.239 193.35C182.046 191.698 182.23 189.256 181.322 187.63C178.807 183.127 175.147 186.641 173.101 189.326C172.108 190.629 169.883 192.874 168.197 191.337C166.404 189.703 167.943 186.789 169.334 185.503C171.153 183.824 173.354 182.657 175.335 181.197C177.12 179.881 178.954 177.995 177.766 175.661C176.847 173.858 174.536 172.86 172.562 173.013C167.999 173.366 167.287 180.029 164.282 182.587C163.22 183.492 160.804 184.211 159.537 183.323C158.247 182.418 159.085 180.348 159.549 179.218C160.925 175.87 170.797 164.645 162.615 163.236C160.556 162.881 157.718 163.529 156.1 164.838C153.048 167.308 151.428 172.2 150.624 175.912C149.359 181.751 149.431 188.237 150.843 194.044C153.963 206.879 161.296 211.001 161.296 211.001C164.468 212.045 168.434 212.56 171.722 211.864C175.587 211.046 180.209 208.185 182.12 204.616C182.739 203.461 183.426 201.44 182.213 200.408Z" fill="url(#paint0_linear_1694_15129)"/>
<path d="M67.6785 203.501C55.5983 201.949 40.2819 197.871 34.1303 186.372C32.6668 183.636 31.1984 178.322 34.892 176.32C38.2683 174.491 42.6346 176.423 45.1441 178.804C46.9891 180.554 48.429 184.46 50.5021 185.696C53.5363 187.504 55.17 182.57 55.1061 180.535C54.9634 175.983 49.364 174.119 45.6428 173.131C39.466 171.49 32.2742 170.084 32.6611 163.123C33.0481 156.162 39.835 151.987 45.0561 155.032C49.3578 157.541 48.7522 162.897 51.6915 166.11C54.3029 168.965 55.2115 164.331 55.0372 162.06C54.6585 157.125 50.3198 153.556 47.1275 150.25C43.5182 146.511 39.5307 138.99 43.3779 134.047C45.5918 131.202 51.2159 130.536 54.5399 131.016C70.811 133.365 60.0216 154.422 62.98 156.771C65.9383 159.12 68.7375 155.008 68.7301 148.754C68.7227 142.501 69.6798 137.89 76.2057 139.891C82.7315 141.892 83.9737 158.226 76.5223 164.503C69.0708 170.78 76.99 177.628 78.9904 173.13C80.4346 169.882 81.7042 161.375 85.8781 160.442C92.8327 158.891 92.7297 173.092 90.7281 176.397C87.9224 181.03 81.5781 182.036 78.0351 186.034C77.0058 187.195 74.682 190.071 75.5847 191.768C76.8437 194.135 80.3562 191.603 81.6466 190.506C84.5479 188.039 88.5635 179.657 92.6507 185.224C97.6973 192.097 89.2573 202.287 67.6785 203.501Z" fill="#3EEB17"/>
<g opacity="0.8">
<path d="M65.9385 202.185C66.2223 202.185 66.4549 202.007 66.4601 201.722C66.4649 201.475 66.8011 176.737 55.987 147.286C55.8874 147.015 55.5871 146.889 55.3169 146.988C55.0461 147.087 54.9074 147.393 55.0068 147.664C65.7541 176.933 65.4209 201.454 65.4163 201.699C65.4108 201.988 65.6401 202.185 65.9283 202.185C65.9318 202.185 65.9352 202.185 65.9385 202.185Z" fill="white"/>
</g>
<path d="M61.4958 192.907C63.4539 191.241 67.6143 193.846 69.3412 194.838C70.3427 195.412 71.7133 196.294 72.9184 195.783C74.1841 195.245 74.095 193.917 73.3297 192.975C71.9594 191.289 69.33 190.826 67.4192 190.005C65.3666 189.122 63.4818 187.921 62.4697 185.849C61.6626 184.197 61.4783 181.756 62.3868 180.129C64.9011 175.627 68.5614 179.14 70.608 181.825C71.6011 183.128 73.8253 185.373 75.5113 183.837C77.3048 182.202 75.7657 179.288 74.3742 178.003C72.5556 176.323 70.3543 175.156 68.374 173.696C66.5883 172.38 64.7543 170.494 65.9431 168.16C66.8615 166.357 69.1729 165.359 71.1467 165.512C75.7101 165.866 76.4213 172.528 79.4266 175.086C80.4891 175.991 82.9046 176.71 84.1721 175.822C85.4619 174.917 84.6236 172.847 84.1594 171.718C82.7836 168.37 72.9116 157.144 81.0932 155.735C83.1525 155.38 85.9903 156.028 87.6084 157.338C90.6609 159.808 92.2808 164.699 93.0848 168.411C94.3495 174.251 94.2778 180.736 92.8661 186.544C89.7458 199.378 82.4124 203.501 82.4124 203.501C79.2409 204.545 75.2748 205.059 71.9869 204.363C68.122 203.545 63.4997 200.684 61.5884 197.115C60.9699 195.96 60.2827 193.939 61.4958 192.907Z" fill="url(#paint1_linear_1694_15129)"/>
<path opacity="0.3" d="M119.936 43.6337C119.82 42.1063 118.487 40.952 116.957 41.055L111.355 41.433C110.712 38.9333 109.867 36.5184 108.82 34.2164L113.467 31.0973C114.735 30.2463 115.061 28.5242 114.195 27.2502L108.775 19.2746C107.907 17.9978 106.172 17.6505 104.9 18.4995L100.19 21.643C98.4013 19.8102 96.4583 18.1294 94.3797 16.6239L96.8633 11.5244C97.533 10.1493 96.9469 8.4793 95.5539 7.79389L86.8263 3.49932C85.4281 2.81128 83.7482 3.36942 83.0748 4.74713L80.5738 9.86305C78.1279 9.15138 75.5967 8.65256 73.0064 8.36479L72.5711 2.62762C72.4543 1.08742 71.0984 -0.086789 69.5416 0.00503913L59.7863 0.580286C58.2231 0.672492 57.05 1.99965 57.1672 3.5442L57.6039 9.29838C55.0636 9.89885 52.6091 10.7035 50.2677 11.7114L46.9775 6.91435C46.0904 5.62063 44.3151 5.26531 43.0118 6.12105L34.8471 11.483C33.539 12.342 33.2008 14.0894 34.0924 15.385L37.3936 20.1831C35.5186 21.9547 33.8057 23.8873 32.2705 25.9555L26.9883 23.4037C25.5581 22.7128 23.8384 23.2844 23.1482 24.6812L18.8264 33.4255C18.1343 34.8253 18.7365 36.5186 20.1706 37.2069L25.4143 39.7236C24.6987 42.1811 24.2086 44.7261 23.9374 47.33L18.1316 47.7217C16.5423 47.829 15.3488 49.179 15.4671 50.7371L16.2066 60.481C16.3249 62.0391 17.7098 63.2113 19.2986 63.0995L25.0571 62.6942C25.7064 65.2495 26.5696 67.7146 27.6413 70.0633L22.904 73.2252C21.5888 74.103 21.2485 75.8614 22.1445 77.1516L27.7417 85.2122C28.6357 86.4997 30.4236 86.8295 31.7346 85.9497L36.4349 82.7954C38.2795 84.6632 40.2877 86.3653 42.432 87.8856L39.9754 92.9108C39.2887 94.3151 39.8873 95.9981 41.3116 96.6686L50.2008 100.855C51.6197 101.523 53.323 100.928 54.0057 99.5264L56.4299 94.5482C58.9381 95.2429 61.5316 95.7113 64.1804 95.9613L64.598 101.464C64.7153 103.009 66.0763 104.161 67.6373 104.038L77.3779 103.27C78.9323 103.147 80.0968 101.799 79.98 100.259L79.5635 94.7723C82.1259 94.1214 84.5962 93.2651 86.9446 92.2014L90.0542 96.7208C90.9287 97.9916 92.6752 98.3141 93.955 97.4414L101.944 91.9946C103.218 91.1251 103.546 89.3922 102.676 88.1233L99.5575 83.5765C101.404 81.7746 103.09 79.8181 104.591 77.7262L109.576 80.1186C110.963 80.7843 112.627 80.2028 113.293 78.8204L117.453 70.1844C118.118 68.805 117.535 67.1454 116.152 66.4771L111.158 64.0644C111.838 61.629 112.301 59.111 112.546 56.5354L118.102 56.1443C119.631 56.0366 120.776 54.7113 120.66 53.1843L119.936 43.6337ZM70.7402 80.3031C54.9579 81.4771 41.1298 69.737 39.9413 54.0746C38.7529 38.4119 50.6643 24.8971 66.4596 23.8938C82.16 22.8967 95.7716 34.6517 96.9472 50.1441C98.1226 65.6363 86.4277 79.1362 70.7402 80.3031Z" fill="#BFC8D6"/>
<path opacity="0.3" d="M231.289 82.6401L230.766 75.7526C230.683 74.6511 229.721 73.8186 228.618 73.893L224.578 74.1655C224.114 72.3628 223.505 70.6213 222.75 68.9612L226.101 66.7118C227.016 66.0981 227.251 64.8562 226.626 63.9375L222.717 58.1857C222.091 57.265 220.84 57.0145 219.923 57.6268L216.526 59.8937C215.236 58.572 213.835 57.3598 212.336 56.2742L214.127 52.5966C214.61 51.6049 214.188 50.4006 213.183 49.9063L206.889 46.8092C205.881 46.313 204.669 46.7155 204.184 47.7091L202.38 51.3985C200.616 50.8852 198.791 50.5255 196.923 50.318L196.609 46.1806C196.525 45.0699 195.547 44.2231 194.424 44.2893L187.389 44.7042C186.262 44.7707 185.416 45.7277 185.5 46.8417L185.815 50.9913C183.983 51.4244 182.213 52.0046 180.525 52.7315L178.152 49.2721C177.512 48.3391 176.232 48.0828 175.292 48.7L169.404 52.5667C168.461 53.1862 168.217 54.4465 168.86 55.3807L171.24 58.8409C169.888 60.1186 168.653 61.5123 167.546 63.0038L163.736 61.1635C162.705 60.6653 161.465 61.0775 160.967 62.0847L157.85 68.3906C157.351 69.4001 157.786 70.6213 158.82 71.1177L162.601 72.9326C162.085 74.7049 161.732 76.5402 161.536 78.418L157.349 78.7004C156.203 78.7777 155.342 79.7513 155.428 80.875L155.961 87.9018C156.046 89.0254 157.045 89.8709 158.191 89.7902L162.344 89.4979C162.812 91.3407 163.434 93.1184 164.207 94.8122L160.791 97.0923C159.842 97.7254 159.597 98.9934 160.243 99.924L164.28 105.737C164.924 106.665 166.214 106.903 167.159 106.269L170.549 103.994C171.879 105.341 173.327 106.568 174.874 107.665L173.102 111.289C172.607 112.302 173.039 113.515 174.066 113.999L180.476 117.018C181.5 117.5 182.728 117.07 183.22 116.06L184.968 112.47C186.777 112.971 188.648 113.308 190.558 113.489L190.859 117.457C190.943 118.571 191.925 119.402 193.051 119.313L200.075 118.759C201.196 118.671 202.036 117.699 201.952 116.588L201.651 112.631C203.499 112.162 205.281 111.544 206.974 110.777L209.217 114.037C209.847 114.953 211.107 115.186 212.03 114.556L217.791 110.628C218.71 110.001 218.947 108.751 218.319 107.836L216.07 104.557C217.402 103.258 218.618 101.847 219.7 100.338L223.295 102.064C224.295 102.544 225.496 102.124 225.976 101.127L228.976 94.8996C229.455 93.9048 229.035 92.708 228.037 92.2261L224.436 90.4861C224.926 88.7298 225.26 86.9138 225.437 85.0565L229.444 84.7745C230.547 84.697 231.372 83.7413 231.289 82.6401ZM195.288 102.197C183.907 103.044 173.935 94.5771 173.078 83.282C172.221 71.9868 180.811 62.2404 192.201 61.517C203.524 60.7978 213.34 69.275 214.188 80.4474C215.035 91.6198 206.602 101.355 195.288 102.197Z" fill="#BFC8D6"/>
<path d="M245.003 206.93L107.422 197.429C107.256 197.414 107.089 197.413 106.924 197.428L24.9885 201.139C23.0286 201.318 23.1177 206.45 25.3423 206.73L154.084 223.968C154.611 224.033 155.144 224.032 155.67 223.964L244.75 211.447C245.939 211.24 246.373 207.03 245.003 206.93Z" fill="url(#paint2_linear_1694_15129)"/>
<path d="M244.733 206.779L107.422 193.821C107.257 193.806 107.09 193.805 106.925 193.82L25.3871 200.978C23.8899 201.11 23.8516 203.285 25.3432 203.469L154.085 219.356C154.612 219.421 155.145 219.419 155.671 219.351L244.751 207.839C245.382 207.758 245.366 206.839 244.733 206.779Z" fill="url(#paint3_linear_1694_15129)"/>
<path d="M152.723 217.804C152.913 217.804 153.106 217.792 153.295 217.768L233.135 207.449C233.426 207.412 233.419 206.988 233.127 206.96L110.522 195.414C110.495 195.412 110.467 195.41 110.44 195.41C110.415 195.41 110.389 195.411 110.364 195.414L32.4246 202.256C32.0629 202.288 32.0536 202.814 32.4139 202.858L152.176 217.771C152.357 217.793 152.541 217.804 152.723 217.804Z" fill="url(#paint4_linear_1694_15129)"/>
<path d="M198.143 212.841C198.172 213.079 198.923 213.183 199.821 213.074C200.718 212.965 201.423 212.684 201.394 212.446C201.365 212.207 200.614 212.103 199.716 212.212C198.819 212.321 198.115 212.603 198.143 212.841Z" fill="url(#paint5_linear_1694_15129)"/>
<path d="M133.219 220.191L145.577 221.815C146.48 221.934 147.219 221.492 147.219 220.828C147.219 220.164 146.48 219.539 145.577 219.433L133.219 217.99C132.455 217.901 131.842 218.317 131.842 218.92C131.842 219.522 132.455 220.091 133.219 220.191Z" fill="url(#paint6_linear_1694_15129)"/>
<path d="M119.719 218.418L129.896 219.755C130.634 219.852 131.238 219.445 131.238 218.845C131.238 218.245 130.634 217.688 129.896 217.602L119.719 216.413C119.086 216.339 118.576 216.724 118.576 217.274C118.576 217.823 119.086 218.335 119.719 218.418Z" fill="url(#paint7_linear_1694_15129)"/>
<path d="M102.662 216.177L110.404 217.194C110.96 217.267 111.414 216.905 111.414 216.385C111.414 215.864 110.96 215.39 110.404 215.325L102.662 214.42C102.175 214.363 101.783 214.708 101.783 215.19C101.783 215.671 102.175 216.113 102.662 216.177Z" fill="url(#paint8_linear_1694_15129)"/>
<path opacity="0.6" d="M88.3322 201.815C100.297 203.946 108.243 208.283 125.413 208.63C140.287 208.931 140.397 205.504 157.684 204.421C180.331 203.003 186.234 208.503 209.397 208.029C215.437 207.905 223.343 207.36 232.697 205.643L244.733 206.779C245.366 206.839 245.382 207.758 244.751 207.839L155.671 219.352C155.144 219.42 154.611 219.421 154.084 219.356L45.1152 205.909C63.813 199.674 78.1301 199.999 88.3322 201.815Z" fill="white"/>
<path d="M116.691 207.995C108.866 207.995 100.945 206.612 100.945 203.968C100.945 201.325 108.866 199.942 116.691 199.942C124.515 199.942 132.436 201.325 132.436 203.968C132.436 206.612 124.515 207.995 116.691 207.995ZM116.691 200.92C107.542 200.92 101.924 202.696 101.924 203.968C101.924 205.241 107.541 207.017 116.691 207.017C125.84 207.017 131.458 205.241 131.458 203.968C131.458 202.696 125.84 200.92 116.691 200.92Z" fill="white"/>
<path opacity="0.6" d="M116.69 205.577C120.52 205.577 123.625 204.857 123.625 203.969C123.625 203.081 120.52 202.361 116.69 202.361C112.861 202.361 109.756 203.081 109.756 203.969C109.756 204.857 112.861 205.577 116.69 205.577Z" fill="white"/>
<path opacity="0.29" d="M214.594 62.0358L132.543 196.192L131.794 197.416L130.799 199.045L129.054 201.898L127.787 203.967C127.787 205.347 123.123 206.468 117.262 206.538C117.073 206.541 116.884 206.541 116.692 206.541C110.562 206.541 105.597 205.39 105.597 203.967L104.436 201.861L102.11 197.645L101.318 196.206L100.323 194.401L95.4401 185.542L87.0284 170.287L77.5519 153.096L76.6067 151.377L66.1351 132.378L59.478 120.304L30.0137 66.8554C36.8333 61.6312 52.7479 50.3205 75.9465 42.539C79.3928 41.3813 82.9982 40.3033 86.763 39.3347C87.632 39.1091 88.511 38.8903 89.4 38.678C90.0666 38.5188 90.7366 38.3628 91.4101 38.2136C91.9407 38.0909 92.478 37.9747 93.0155 37.8586C93.0187 37.8586 93.0187 37.8586 93.0221 37.8586C101.046 36.1405 109.703 34.9497 118.941 34.5584C120.052 34.5087 121.173 34.472 122.304 34.4489C139.943 34.0773 155.656 36.7176 169.013 40.5852C169.464 40.7112 169.912 40.8439 170.353 40.9767C170.482 41.0164 170.612 41.0529 170.738 41.0926C172.161 41.5205 173.557 41.9651 174.924 42.4194C178.662 43.66 182.188 44.9834 185.491 46.3433C199.429 52.0784 209.41 58.4735 214.594 62.0358Z" fill="url(#paint9_linear_1694_15129)"/>
<path d="M63.043 120.545L111.039 128.366C112.043 128.53 113.063 128.572 114.078 128.492L117.999 128.183L117.348 42.8703L63.043 40.9426V120.545Z" fill="url(#paint10_linear_1694_15129)"/>
<path d="M172.939 46.0089V120.311C172.939 122.97 170.896 125.142 168.255 125.299L116.436 128.381C114.339 128.506 112.551 126.765 112.551 124.605V47.1946C112.551 45.0323 114.246 43.2394 116.35 43.1808L168.543 41.7263C170.964 41.6589 172.939 43.5806 172.939 46.0089Z" fill="url(#paint11_linear_1694_15129)"/>
<path d="M63.043 40.9426L112.551 43.2868L168.543 41.7264L111.138 39.8562L63.043 40.9426Z" fill="url(#paint12_linear_1694_15129)"/>
<path opacity="0.3" d="M168.47 41.7283L127.594 42.8673C125.269 42.9321 123.37 44.8934 123.373 47.2691C123.377 51.2338 124.039 55.3317 125.784 59.2849C131.603 72.4652 144.61 72.9517 147.316 85.0494C149.571 95.1294 141.586 99.4661 140.742 112.347C140.521 115.73 140.813 119.37 141.821 123.273C142.351 125.327 144.261 126.726 146.343 126.602L168.846 125.264C171.155 125.126 172.939 123.229 172.939 120.906V46.0829C172.94 43.6138 170.931 41.6597 168.47 41.7283Z" fill="url(#paint13_linear_1694_15129)"/>
<path d="M130.715 127.532L131.58 127.981L149.928 126.883V42.2451L130.715 42.7836V127.532Z" fill="url(#paint14_linear_1694_15129)"/>
<path d="M131.58 127.981L149.928 126.883V42.2451L131.58 42.7593V127.981Z" fill="url(#paint15_linear_1694_15129)"/>
<path d="M96.7939 40.1802L149.926 42.2453L131.097 43.2254L84.2715 40.4631L96.7939 40.1802Z" fill="url(#paint16_linear_1694_15129)"/>
<path d="M122.856 37.6096C124.103 29.9695 125.015 24.3859 130.004 19.2296C132.108 17.0552 134.405 14.6808 138.173 14.051C142.506 13.3268 148.036 15.0345 149.551 18.5732C150.99 21.933 147.601 24.1225 149.041 27.9819C150.488 31.8606 154.705 31.7781 155.167 34.911C155.559 37.5645 152.968 40.5751 150.353 41.9858C145.838 44.4223 143.273 40.9946 134.453 41.5482C128.375 41.9297 124.867 43.854 123.221 41.913C122.437 40.9888 122.514 39.7055 122.856 37.6096Z" fill="url(#paint17_linear_1694_15129)"/>
<g opacity="0.3">
<path d="M146.998 34.6195C141.553 32.5367 138.762 28.0041 136.35 29.0763C134.206 30.0291 135.514 34.0073 132.995 37.2452C130.694 40.202 126.474 40.9053 122.725 40.9082C122.819 41.2868 122.973 41.6208 123.221 41.9132C124.867 43.8544 128.375 41.93 134.453 41.5485C143.274 40.9948 145.838 44.4225 150.354 41.9861C152.753 40.6917 155.124 38.0511 155.198 35.5748C152.653 35.8483 149.822 35.6996 146.998 34.6195Z" fill="url(#paint18_linear_1694_15129)"/>
</g>
<path d="M89.9598 18.7183C93.623 15.8273 97.4846 19.0513 101.994 15.8738C106.562 12.6553 105.235 7.49149 108.778 6.02735C112.893 4.32635 118.989 9.51663 121.906 12.8104C129.316 21.177 132.795 36.0306 126.939 41.2559C124.741 43.2171 118.517 42.4088 106.158 40.7124C92.0319 38.7733 89.999 37.3846 88.647 35.5668C85.0036 30.6682 85.8127 21.9914 89.9598 18.7183Z" fill="url(#paint19_linear_1694_15129)"/>
<g opacity="0.3">
<path d="M113.154 24.9912C111.118 24.3491 110.19 26.6789 106.006 27.6169C105.238 27.7891 97.8587 29.3308 93.8983 24.6994C92.3271 22.8619 91.5896 20.3907 91.6754 17.7703C91.0977 17.9712 90.5263 18.2714 89.9598 18.7186C85.8127 21.9915 85.0037 30.6684 88.6469 35.5671C89.9989 37.3848 92.0317 38.7736 106.158 40.7126C118.516 42.4091 124.741 43.2173 126.939 41.2561C127.234 40.9926 127.499 40.6984 127.748 40.3879C124.783 40.2902 121.672 39.5722 119.426 37.3905C115.093 33.1807 116.614 26.0828 113.154 24.9912Z" fill="url(#paint20_linear_1694_15129)"/>
</g>
<path d="M26.5762 100.903L28.2725 99.4042C28.6012 99.1138 28.7812 98.6926 28.7649 98.2543C28.7412 97.616 28.7781 96.6816 29.1371 96.1913C29.7154 95.4012 31.8889 96.0445 31.9867 96.1913C32.4141 96.8331 32.5669 97.9414 31.2789 98.351C29.9909 98.7607 29.6604 99.44 29.6604 99.44L27.6226 102.319L26.5762 100.903Z" fill="url(#paint21_linear_1694_15129)"/>
<path d="M50.877 125.554L48.9653 124.748C48.9653 124.748 47.5312 124.177 47.5312 123.087C47.5312 121.525 48.7787 119.268 49.8009 119.489C50.8231 119.709 50.8782 121.52 49.997 122.515C49.1158 123.509 51.1812 124.452 51.1812 124.452L50.877 125.554Z" fill="url(#paint22_linear_1694_15129)"/>
<path d="M34.8333 233.92C34.6688 233.424 32.9578 233.195 32.2394 233.993C31.8828 234.389 31.7011 235.115 31.9791 235.392C32.0803 235.493 31.7596 235.741 32.0943 235.698C33.2047 235.554 34.9969 234.413 34.8333 233.92Z" fill="url(#paint23_linear_1694_15129)"/>
<path d="M33.1345 234.349H31.4082C32.0588 233.294 31.4887 230.308 31.4887 230.308L33.3454 230.456C33.3454 230.456 33.257 231.31 33.0802 232.576C33.0197 233.01 33.0585 233.67 33.1345 234.349Z" fill="url(#paint24_linear_1694_15129)"/>
<path d="M37.6097 169.066C38.4095 171.707 39.5516 175.97 40.2866 181.317C42.3835 196.57 37.9266 197.057 38.7589 213.959C39.0245 219.354 34.0849 231.795 33.6494 232.07C33.4387 232.091 33.21 232.104 32.9662 232.097C32.5365 232.084 31.9308 232.018 31.2263 231.807C30.4438 231.672 27.6225 224.03 28.2765 219.487C29.0644 214.013 28.0966 210.212 28.3368 205.919C28.912 195.64 28.3724 184.783 27.6558 184.743C27.2023 184.717 26.4519 189.01 25.6633 193.52C24.7579 198.699 24.6117 201.066 22.6929 203.324C21.397 204.849 19.8474 205.671 18.7704 206.121C5.69326 211.588 7.51356 211.627 4.6616 213.984C4.18924 214.374 2.9095 215.472 2.00945 215.074C1.40615 214.807 1.22863 213.98 1.15362 213.607C0.556926 210.64 2.3933 204.457 7.24649 202.136C8.98499 201.305 9.4703 201.745 11.1489 200.709C13.2343 199.421 14.7236 197.321 15.3641 195.373C16.4916 191.944 14.7211 189.804 13.7496 185.252C13.5631 184.379 13.8444 176.573 14.6862 171.419C15.7865 164.684 37.6097 169.066 37.6097 169.066Z" fill="url(#paint25_linear_1694_15129)"/>
<path d="M33.2551 234.12C33.2551 234.12 31.1511 233.938 30.9878 234.373C30.8246 234.809 30.8064 235.915 32.0943 235.697C33.3821 235.48 33.4183 234.446 33.2551 234.12Z" fill="url(#paint26_linear_1694_15129)"/>
<path d="M50.4749 123.83C50.2924 124.406 50.1099 124.983 49.9273 125.559C51.2476 126.57 54.8797 129.588 54.4444 132.825C53.8151 137.504 45.0945 139.626 39.5711 139.615C38.057 139.612 28.2233 139.592 23.6048 132.536C19.5476 126.338 22.0605 118.6 24.1332 112.217C25.7356 107.283 27.9491 103.573 29.5477 101.239C28.6326 100.461 27.7174 99.6842 26.8023 98.907C23.4839 100.917 17.2903 105.346 13.2906 113.3C9.60309 120.633 9.39137 127.757 9.43067 130.464C9.47933 133.817 9.97635 134.738 10.0595 139.589C10.1363 144.066 9.77428 146.854 9.22236 152.061C7.28339 170.359 7.75821 173.637 9.17824 176.894C10.3748 179.638 11.4056 182.002 13.912 183.423C18.925 186.264 23.1219 181.523 34.0478 182.396C37.8476 182.699 39.1949 183.421 40.7547 182.328C41.6722 181.685 43.3592 179.926 42.8108 168.522C42.3424 158.779 40.925 156.192 42.9577 153.395C44.74 150.942 46.5717 151.91 52.0635 149.136C55.6554 147.322 63.4178 143.401 64.1066 136.946C64.6054 132.271 61.1472 128.589 60.5818 127.987C56.6175 123.765 51.3269 123.809 50.4749 123.83Z" fill="url(#paint27_linear_1694_15129)"/>
<path d="M30.8375 133.333C30.902 132.117 30.1028 131.183 29.928 130.983C29.1954 130.143 29.0334 130.042 28.7491 129.932L28.3579 129.797C28.3579 129.797 28.3362 129.794 28.3136 129.791C28.0754 129.762 27.3186 129.907 27.1737 129.974C26.7106 130.187 26.637 132.285 27.413 135.053C27.4168 135.165 27.4215 135.277 27.4271 135.39C27.4353 135.556 27.4401 135.684 27.444 135.792C27.4616 136.281 27.0288 136.665 26.5451 136.591C24.0623 136.213 24.4056 136.811 24.4901 137.003C24.6886 137.452 26.9875 138.721 29.7555 139.402C33.1904 140.203 35.3505 140.107 35.0596 139.583C34.9499 139.385 33.2456 138.496 31.2309 137.83C30.7784 137.681 30.4166 137.329 30.2696 136.875C30.0704 136.261 29.6847 135.409 29.5934 135.151C29.7671 135.005 30.79 134.229 30.8375 133.333Z" fill="url(#paint28_linear_1694_15129)"/>
<path d="M29.1869 128.775C29.3787 129.644 29.1776 130.663 29.0027 130.858C28.9801 130.884 28.8554 131.037 28.7653 131.272C28.7529 131.304 28.744 131.34 28.7388 131.386C28.6714 131.976 29.6854 132.424 29.5725 132.707C29.4906 132.912 28.8462 132.807 28.8104 132.976C28.7764 133.135 29.3347 133.324 29.2983 133.514C29.2708 133.657 28.9418 133.605 28.7959 133.848C28.7233 133.969 28.7689 134.042 28.7365 134.369C28.7182 134.554 28.6807 134.76 28.6425 134.879C28.4567 135.456 27.649 135.832 27.4397 135.665C27.3815 135.618 27.4098 135.562 27.3205 135.382C27.3205 135.382 27.2379 135.214 27.0689 135.038C26.8277 134.785 26.3567 134.671 25.8596 134.459C24.9387 134.066 24.6142 133.628 24.5128 133.478C24.4767 133.424 24.4524 133.383 24.4349 133.354C24.0854 132.76 23.8737 131.821 24.0317 131.178C24.2964 130.102 25.4865 130.318 26.161 129.159C26.9393 127.823 25.9888 126.447 26.5083 126.155C27.0809 125.833 28.8324 127.169 29.1869 128.775Z" fill="#26264F"/>
<path d="M29.2148 132.573C28.9364 132.328 28.6242 132.687 28.7069 133.065C28.7894 133.444 29.2441 133.755 29.5829 133.6C29.9217 133.446 29.5893 132.902 29.2148 132.573Z" fill="url(#paint29_linear_1694_15129)"/>
<path d="M2.47892 214.624L1.3835 215.498L0.644531 214.697L1.65153 213.719C1.85011 213.526 2.16149 213.512 2.37642 213.686L2.48242 213.773C2.75365 213.992 2.75186 214.407 2.47892 214.624Z" fill="url(#paint30_linear_1694_15129)"/>
<path d="M0.430222 216.165C0.403864 215.357 0.00395873 215.113 0.193283 214.721C0.341984 214.413 0.755966 214.218 1.09437 214.287C1.56995 214.384 1.77089 214.977 1.81643 215.111C2.12479 216.021 1.44543 216.528 1.822 217.278C1.89786 217.428 2.04118 217.638 2.09361 217.984C2.11581 218.131 2.17099 218.495 2.01416 218.592C1.83287 218.704 1.46102 218.403 1.1076 218.115C0.683317 217.771 0.471035 217.599 0.366358 217.307C0.22087 216.903 0.450628 216.788 0.430222 216.165Z" fill="url(#paint31_linear_1694_15129)"/>
<path opacity="0.3" d="M23.0642 172.236C27.4044 170.291 32.1787 174.846 33.6189 173.313C35.2564 171.571 28.6638 166.131 29.3108 158.666C29.6883 154.311 32.5499 149.035 36.8498 147.465C41.3319 145.829 44.8474 149.143 48.4816 146.603C50.4295 145.242 49.7051 144.09 51.9281 141.864C55.7334 138.054 59.8184 139.464 62.0519 136.91C62.8544 135.993 63.4668 134.505 63.2406 131.942C63.8701 133.362 64.3054 135.074 64.1058 136.946C63.417 143.4 55.6546 147.322 52.0626 149.136C46.5709 151.909 44.7391 150.942 42.9569 153.395C40.9243 156.192 42.3416 158.779 42.81 168.522C43.3583 179.926 41.6714 181.685 40.7539 182.328C39.194 183.421 37.8466 182.699 34.0469 182.396C23.1211 181.523 18.9241 186.264 13.9111 183.423C13.0359 182.927 12.3431 182.313 11.7578 181.611C14.5535 181.589 16.3096 180.794 17.4636 179.775C20.131 177.42 19.7639 173.715 23.0642 172.236Z" fill="url(#paint32_linear_1694_15129)"/>
<path d="M182.89 119.051C183.185 118.595 183.722 117.623 183.757 116.319C183.823 113.784 181.943 111.807 181.691 111.92C181.554 111.982 181.727 112.724 181.824 113.053C182.025 113.739 182.242 113.805 182.224 114.12C182.186 114.768 181.251 114.793 180.758 115.652C180.402 116.272 180.374 117.154 180.758 117.852C181.394 119.009 182.83 119.05 182.89 119.051Z" fill="url(#paint33_linear_1694_15129)"/>
<path d="M223.049 174.106L222.326 171.619L225.343 169.384L227.223 168.681L226.11 172.16L223.049 174.106Z" fill="url(#paint34_linear_1694_15129)"/>
<path d="M219.314 224.186C219.314 224.186 220.965 228.337 220.53 230.178C222.302 230.143 223.448 229.917 223.448 229.917C223.448 229.917 222.736 228.024 222.597 227.086C222.409 225.819 222.423 223.769 222.423 223.769L219.314 224.186Z" fill="url(#paint35_linear_1694_15129)"/>
<path d="M201.126 233.894C201.233 234.023 201.422 234.292 201.438 234.657C201.446 234.855 201.401 235.018 201.344 235.168C201.063 235.908 200.621 236.006 200.144 236.792C199.853 237.272 199.908 237.416 199.641 237.633C199.289 237.919 198.863 237.935 198.495 237.939C197.871 237.946 196.974 237.924 195.844 237.789C196.436 237.026 197.066 236.251 197.735 235.468C198.029 235.125 198.322 234.789 198.615 234.462L200.356 233.874C200.613 233.881 200.869 233.888 201.126 233.894Z" fill="#26264F"/>
<path d="M199.678 225.441C199.678 225.441 198.682 230.634 199.949 232.088C201.028 233.542 199.428 232.505 199.428 232.505L197.517 234.172L196.371 236.152C196.371 236.152 197.426 231.07 197.145 229.053C196.863 227.036 196.723 225.676 196.723 225.676L199.678 225.441Z" fill="url(#paint36_linear_1694_15129)"/>
<path d="M195.924 168.639C195.924 168.639 193.25 171.031 193.25 180.881C193.25 190.731 194.517 212.12 194.517 212.12L196.543 227.433C196.543 227.433 198.644 227.508 200.052 227.086C201.318 221.317 203.382 211.557 202.397 203.396C201.975 194.531 205.915 183.414 205.915 183.414C205.915 183.414 209.292 194.671 211.684 200.3C214.076 205.929 218.631 223.562 219.053 224.828C221.852 225.082 223.047 224.342 223.047 224.342C223.047 224.342 221.253 205.366 219.564 198.189C217.876 191.013 218.016 173.705 215.202 168.779C208.87 166.247 195.924 168.639 195.924 168.639Z" fill="url(#paint37_linear_1694_15129)"/>
<path d="M195.924 168.639C195.924 168.639 193.25 171.031 193.25 180.881C193.25 190.731 194.517 212.12 194.517 212.12L196.543 227.433C196.543 227.433 198.644 227.508 200.052 227.086C201.318 221.317 203.382 211.557 202.397 203.396C201.975 194.531 205.915 183.414 205.915 183.414C205.915 183.414 209.292 194.671 211.684 200.3C214.076 205.929 218.631 223.562 219.053 224.828C221.852 225.082 223.047 224.342 223.047 224.342C223.047 224.342 221.252 205.366 219.564 198.189C217.875 191.013 218.016 173.705 215.202 168.779C208.87 166.247 195.924 168.639 195.924 168.639Z" fill="url(#paint38_linear_1694_15129)"/>
<path opacity="0.25" d="M209.813 186.687C210.646 192.106 212.314 195.024 216.482 198.776C219.817 201.277 217.316 206.696 218.566 210.864C218.983 212.115 220.234 213.365 220.65 214.616C222.202 217.718 220.753 221.513 221.456 224.798C222.551 224.646 223.047 224.342 223.047 224.342C223.047 224.342 221.252 205.366 219.564 198.189C217.875 191.013 218.016 173.705 215.202 168.78C208.87 166.247 195.924 168.639 195.924 168.639C195.924 168.639 193.25 171.031 193.25 180.881C193.25 181.68 193.258 182.556 193.274 183.49C196.05 185.947 201.726 186.492 205.227 183.769C205.439 183.611 205.664 183.514 205.896 183.466C205.907 183.435 205.915 183.414 205.915 183.414C205.915 183.414 205.92 183.434 205.929 183.463C207.523 183.172 209.451 185.241 209.813 186.687Z" fill="url(#paint39_linear_1694_15129)"/>
<path d="M220.096 231.753C220.096 231.753 219.685 231.753 219.719 232.284C219.753 232.815 219.534 234.643 221.624 234.728C223.714 234.814 224.037 234.58 224.105 234.58C224.174 234.58 223.557 232.832 223.557 232.832L222.889 231.976L221.09 231.787L220.096 231.753Z" fill="#26264F"/>
<path d="M224.731 233.587C224.686 233.146 224.439 232.451 224.191 231.892C223.822 231.062 224.125 230.751 223.772 229.995C223.65 229.733 223.531 229.485 223.274 229.24C223.214 229.183 222.638 228.65 221.798 228.677C221.632 228.683 221.378 228.694 221.103 228.84C220.778 229.013 220.616 229.273 220.477 229.5C220.259 229.858 220.31 229.968 219.974 230.994C219.947 231.076 219.888 231.255 219.842 231.502C219.807 231.691 219.793 231.85 219.787 231.959C220.335 231.959 222.443 232.044 222.888 232.37C223.334 232.695 223.557 233.244 223.557 233.792C223.557 234.34 223.831 234.597 224.105 234.58C224.35 234.565 224.837 234.111 224.731 233.587Z" fill="#444B8C"/>
<path d="M199.41 231.359C199.88 231.366 200.226 231.741 200.486 232.644C200.747 233.547 201.997 234.346 200.539 234.155C199.08 233.964 198.02 236.031 197.499 236.795C196.978 237.559 195.579 238.238 195.614 237.491C195.649 236.745 196.266 236.396 196.44 235.631C196.613 234.867 198.336 231.342 199.41 231.359Z" fill="#444B8C"/>
<path d="M224.155 169.828C224.501 168.865 226.662 162.542 223.169 156.776C220.31 152.056 215.363 150.515 214.658 150.307C210.364 149.039 208.212 150.668 206.857 149.169C204.558 146.625 207.162 137.958 212.2 136.222C217.878 134.265 224.69 141.79 227.45 146.731C231.072 153.215 230.18 159.659 229.971 160.986C229.426 164.435 228.16 167.066 227.222 168.681C226.2 169.063 225.177 169.445 224.155 169.828Z" fill="url(#paint40_linear_1694_15129)"/>
<path d="M209.328 134.999C204.26 134.796 200.351 134.876 198.143 137.083C195.811 139.413 198.167 142.045 197.661 148.141C196.886 157.474 190.938 159.755 190.491 169.224C190.34 172.414 190.88 175.022 191.299 176.592C192.604 178.218 194.741 180.512 197.894 182.43C202.482 185.222 205.143 184.735 211.732 186.538C222.51 189.488 223.469 193.001 228.813 192.106C234.214 191.202 238.953 186.656 238.381 184.16C238.038 182.665 235.86 183.089 233.354 180.809C230.123 177.87 231.369 175.065 228.912 171.908C225.384 167.372 220.468 170.145 217.461 166.214C214.42 162.238 215.626 154.402 218.19 150.131C219.865 147.341 220.582 144.072 222.007 141.147C222.125 140.904 222.263 140.506 222.202 140.007C221.971 138.102 218.795 137.069 216.39 136.311C212.722 135.155 209.745 135.015 209.328 134.999Z" fill="url(#paint41_linear_1694_15129)"/>
<path d="M205.059 134.789L206.058 134.482C206.058 134.482 206.32 135.835 209.534 136.004C211.318 136.004 212.471 135.005 212.471 135.005L213.154 135.502C213.154 135.502 211.656 137.374 209.272 137.327C206.197 137.265 205.059 134.789 205.059 134.789Z" fill="url(#paint42_linear_1694_15129)"/>
<path d="M207.095 130.673C207.287 129.186 208.462 128.234 208.719 128.03C209.792 127.177 210.011 127.091 210.38 127.021L210.883 126.944C210.883 126.944 210.91 126.945 210.938 126.947C211.233 126.965 212.116 127.309 212.277 127.422C212.79 127.783 212.412 130.339 210.857 133.517C210.795 133.786 210.734 134.055 210.673 134.324C212.029 134.563 212.365 134.807 212.375 135.003C212.399 135.426 210.914 135.965 209.538 136.001C207.813 136.045 205.981 135.302 206.016 134.748C206.03 134.524 206.356 134.247 207.608 133.976C207.804 133.7 208 133.425 208.196 133.15C208.018 132.935 206.953 131.768 207.095 130.673Z" fill="url(#paint43_linear_1694_15129)"/>
<path d="M209.228 130.113C209.619 129.878 209.917 130.382 209.733 130.822C209.548 131.262 208.929 131.537 208.553 131.275C208.178 131.013 208.701 130.428 209.228 130.113Z" fill="url(#paint44_linear_1694_15129)"/>
<path d="M259.949 130.105C254.798 124.516 242.813 126.049 236.165 130.538C233.076 132.624 231.491 135.088 227.841 135.295C225.066 135.452 220.652 134.409 218.327 131.403C218.034 131.024 216.863 129.436 215.104 127.433C214.328 126.55 213.557 125.721 212.362 125.534C212.058 125.487 211.048 125.322 210.38 125.975C209.839 126.503 209.706 127.422 209.866 128.085C209.962 128.481 210.085 128.523 210.068 128.782C210.018 129.511 208.691 129.828 208.765 130.195C208.818 130.457 209.508 130.362 209.627 130.691C209.758 131.051 208.999 131.362 208.673 132.269C208.062 132.678 207.677 133.695 207.543 135.056C207.347 137.057 207.548 138.683 207.927 139.908C209.753 145.804 211.059 150.021 214.219 152.376C218.403 155.494 222.17 152.615 232.814 152.16C247.388 151.536 251.021 156.476 256.259 153.097C262.799 148.877 265.297 135.909 259.949 130.105Z" fill="url(#paint45_linear_1694_15129)"/>
<path d="M183.505 118.696C183.375 119.916 182.936 125.31 186.657 129.865C190.134 134.12 195.057 134.97 195.973 135.109C200.4 135.778 202.309 133.87 203.856 135.17C206.481 137.376 205.086 146.317 200.333 148.725C194.976 151.44 187.199 144.918 183.789 140.4C179.315 134.472 179.317 127.967 179.343 126.624C179.411 123.133 180.306 120.354 181.014 118.626C181.305 118.538 181.748 118.441 182.291 118.46C182.809 118.478 183.226 118.595 183.505 118.696Z" fill="url(#paint46_linear_1694_15129)"/>
<path opacity="0.3" d="M228.973 188.539C227.677 187.21 229.104 184.53 227.19 182.538C225.413 180.69 223.401 182.183 220.541 180.592C216.872 178.552 217.883 174.817 214.379 172.809C211.859 171.364 210.674 172.917 206.757 172.16C202.846 171.404 198.083 168.708 195.73 163.889C194.73 161.842 194.361 159.807 194.312 157.988C192.554 161.13 190.729 164.142 190.489 169.224C190.338 172.414 190.878 175.022 191.297 176.592C192.602 178.218 194.739 180.512 197.892 182.43C202.48 185.222 205.141 184.735 211.73 186.539C222.508 189.488 223.467 193.001 228.811 192.106C232.263 191.528 235.437 189.463 237.134 187.396C232.153 189.613 229.914 189.503 228.973 188.539Z" fill="url(#paint47_linear_1694_15129)"/>
<defs>
<linearGradient id="paint0_linear_1694_15129" x1="172.243" y1="146.035" x2="152.165" y2="301.478" gradientUnits="userSpaceOnUse">
<stop stop-color="#FFC444"/>
<stop offset="0.9964" stop-color="#F36F56"/>
</linearGradient>
<linearGradient id="paint1_linear_1694_15129" x1="71.4653" y1="138.534" x2="91.5435" y2="293.977" gradientUnits="userSpaceOnUse">
<stop offset="0.0036" stop-color="#E38DDD"/>
<stop offset="1" stop-color="#9571F6"/>
</linearGradient>
<linearGradient id="paint2_linear_1694_15129" x1="135.034" y1="185.979" x2="134.825" y2="199.534" gradientUnits="userSpaceOnUse">
<stop stop-color="#444B8C"/>
<stop offset="0.9964" stop-color="#26264F"/>
</linearGradient>
<linearGradient id="paint3_linear_1694_15129" x1="137.388" y1="212.879" x2="115.741" y2="147.335" gradientUnits="userSpaceOnUse">
<stop stop-color="#444B8C"/>
<stop offset="0.9964" stop-color="#26264F"/>
</linearGradient>
<linearGradient id="paint4_linear_1694_15129" x1="233.35" y1="206.607" x2="32.1486" y2="206.607" gradientUnits="userSpaceOnUse">
<stop stop-color="#FF9085"/>
<stop offset="1" stop-color="#FB6FBB"/>
</linearGradient>
<linearGradient id="paint5_linear_1694_15129" x1="201.393" y1="212.446" x2="198.143" y2="212.841" gradientUnits="userSpaceOnUse">
<stop stop-color="#FF9085"/>
<stop offset="1" stop-color="#FB6FBB"/>
</linearGradient>
<linearGradient id="paint6_linear_1694_15129" x1="139.554" y1="219.275" x2="139.331" y2="225.021" gradientUnits="userSpaceOnUse">
<stop stop-color="#444B8C"/>
<stop offset="0.9964" stop-color="#26264F"/>
</linearGradient>
<linearGradient id="paint7_linear_1694_15129" x1="124.882" y1="218.706" x2="124.659" y2="224.452" gradientUnits="userSpaceOnUse">
<stop stop-color="#444B8C"/>
<stop offset="0.9964" stop-color="#26264F"/>
</linearGradient>
<linearGradient id="paint8_linear_1694_15129" x1="106.513" y1="217.994" x2="106.291" y2="223.74" gradientUnits="userSpaceOnUse">
<stop stop-color="#444B8C"/>
<stop offset="0.9964" stop-color="#26264F"/>
</linearGradient>
<linearGradient id="paint9_linear_1694_15129" x1="30.0137" y1="120.478" x2="214.594" y2="120.478" gradientUnits="userSpaceOnUse">
<stop offset="0.0036" stop-color="#E38DDD"/>
<stop offset="1" stop-color="#9571F6"/>
</linearGradient>
<linearGradient id="paint10_linear_1694_15129" x1="42.5758" y1="9.73694" x2="82.102" y2="69.4754" gradientUnits="userSpaceOnUse">
<stop stop-color="#AA80F9"/>
<stop offset="0.9964" stop-color="#6165D7"/>
</linearGradient>
<linearGradient id="paint11_linear_1694_15129" x1="165.603" y1="45.282" x2="107.728" y2="143.026" gradientUnits="userSpaceOnUse">
<stop stop-color="#AA80F9"/>
<stop offset="0.9964" stop-color="#6165D7"/>
</linearGradient>
<linearGradient id="paint12_linear_1694_15129" x1="123.411" y1="14.492" x2="114.242" y2="46.8007" gradientUnits="userSpaceOnUse">
<stop offset="0.0036" stop-color="#E38DDD"/>
<stop offset="1" stop-color="#9571F6"/>
</linearGradient>
<linearGradient id="paint13_linear_1694_15129" x1="169.659" y1="47.7706" x2="111.267" y2="146.39" gradientUnits="userSpaceOnUse">
<stop offset="0.0036" stop-color="#E38DDD"/>
<stop offset="1" stop-color="#9571F6"/>
</linearGradient>
<linearGradient id="paint14_linear_1694_15129" x1="133.075" y1="48.3843" x2="156.706" y2="167.431" gradientUnits="userSpaceOnUse">
<stop stop-color="#FFC444"/>
<stop offset="0.3138" stop-color="#FBA94A"/>
<stop offset="0.9964" stop-color="#F36F56"/>
</linearGradient>
<linearGradient id="paint15_linear_1694_15129" x1="136.621" y1="85.4323" x2="178.344" y2="79.262" gradientUnits="userSpaceOnUse">
<stop stop-color="#FFC444"/>
<stop offset="0.3138" stop-color="#FBA94A"/>
<stop offset="0.9964" stop-color="#F36F56"/>
</linearGradient>
<linearGradient id="paint16_linear_1694_15129" x1="108.477" y1="42.6293" x2="196.411" y2="29.6249" gradientUnits="userSpaceOnUse">
<stop stop-color="#FFC444"/>
<stop offset="0.3138" stop-color="#FBA94A"/>
<stop offset="0.9964" stop-color="#F36F56"/>
</linearGradient>
<linearGradient id="paint17_linear_1694_15129" x1="153.417" y1="17.2044" x2="131.536" y2="39.9607" gradientUnits="userSpaceOnUse">
<stop stop-color="#FFC444"/>
<stop offset="0.3138" stop-color="#FBA94A"/>
<stop offset="0.9964" stop-color="#F36F56"/>
</linearGradient>
<linearGradient id="paint18_linear_1694_15129" x1="156.941" y1="20.5928" x2="135.06" y2="43.3492" gradientUnits="userSpaceOnUse">
<stop stop-color="#FFC444"/>
<stop offset="0.3138" stop-color="#FBA94A"/>
<stop offset="0.9964" stop-color="#F36F56"/>
</linearGradient>
<linearGradient id="paint19_linear_1694_15129" x1="101.713" y1="26.2753" x2="159.826" y2="17.6813" gradientUnits="userSpaceOnUse">
<stop stop-color="#FFC444"/>
<stop offset="0.3138" stop-color="#FBA94A"/>
<stop offset="0.9964" stop-color="#F36F56"/>
</linearGradient>
<linearGradient id="paint20_linear_1694_15129" x1="102.389" y1="30.8469" x2="160.502" y2="22.2529" gradientUnits="userSpaceOnUse">
<stop stop-color="#FFC444"/>
<stop offset="0.3138" stop-color="#FBA94A"/>
<stop offset="0.9964" stop-color="#F36F56"/>
</linearGradient>
<linearGradient id="paint21_linear_1694_15129" x1="52.4133" y1="69.5757" x2="-41.2083" y2="187.364" gradientUnits="userSpaceOnUse">
<stop stop-color="#893976"/>
<stop offset="1" stop-color="#311944"/>
</linearGradient>
<linearGradient id="paint22_linear_1694_15129" x1="64.9164" y1="103.761" x2="4.55664" y2="179.701" gradientUnits="userSpaceOnUse">
<stop stop-color="#893976"/>
<stop offset="1" stop-color="#311944"/>
</linearGradient>
<linearGradient id="paint23_linear_1694_15129" x1="35.5394" y1="232.32" x2="32.2562" y2="235.24" gradientUnits="userSpaceOnUse">
<stop stop-color="#444B8C"/>
<stop offset="0.9964" stop-color="#26264F"/>
</linearGradient>
<linearGradient id="paint24_linear_1694_15129" x1="32.3768" y1="235.246" x2="32.3768" y2="229.527" gradientUnits="userSpaceOnUse">
<stop stop-color="#893976"/>
<stop offset="1" stop-color="#311944"/>
</linearGradient>
<linearGradient id="paint25_linear_1694_15129" x1="31.0543" y1="238.263" x2="9.64602" y2="151.828" gradientUnits="userSpaceOnUse">
<stop stop-color="#444B8C"/>
<stop offset="0.9964" stop-color="#26264F"/>
</linearGradient>
<linearGradient id="paint26_linear_1694_15129" x1="35.2091" y1="231.949" x2="31.9261" y2="234.869" gradientUnits="userSpaceOnUse">
<stop stop-color="#444B8C"/>
<stop offset="0.9964" stop-color="#26264F"/>
</linearGradient>
<linearGradient id="paint27_linear_1694_15129" x1="35.5749" y1="150.473" x2="41.7046" y2="191.082" gradientUnits="userSpaceOnUse">
<stop stop-color="#FFC444"/>
<stop offset="0.9964" stop-color="#F36F56"/>
</linearGradient>
<linearGradient id="paint28_linear_1694_15129" x1="30.0183" y1="135.056" x2="28.8616" y2="149.025" gradientUnits="userSpaceOnUse">
<stop stop-color="#893976"/>
<stop offset="1" stop-color="#311944"/>
</linearGradient>
<linearGradient id="paint29_linear_1694_15129" x1="30.4403" y1="136.099" x2="35.8796" y2="149.018" gradientUnits="userSpaceOnUse">
<stop stop-color="#893976"/>
<stop offset="1" stop-color="#311944"/>
</linearGradient>
<linearGradient id="paint30_linear_1694_15129" x1="-0.515133" y1="217.232" x2="12.0418" y2="201.748" gradientUnits="userSpaceOnUse">
<stop stop-color="#893976"/>
<stop offset="1" stop-color="#311944"/>
</linearGradient>
<linearGradient id="paint31_linear_1694_15129" x1="0.240968" y1="218.816" x2="5.13431" y2="206.807" gradientUnits="userSpaceOnUse">
<stop stop-color="#444B8C"/>
<stop offset="0.9964" stop-color="#26264F"/>
</linearGradient>
<linearGradient id="paint32_linear_1694_15129" x1="54.3695" y1="184.182" x2="-26.7401" y2="52.4227" gradientUnits="userSpaceOnUse">
<stop stop-color="#FFC444"/>
<stop offset="0.9964" stop-color="#F36F56"/>
</linearGradient>
<linearGradient id="paint33_linear_1694_15129" x1="183.042" y1="114.262" x2="180.141" y2="118.955" gradientUnits="userSpaceOnUse">
<stop stop-color="#FFC444"/>
<stop offset="0.3138" stop-color="#FBA94A"/>
<stop offset="0.9964" stop-color="#F36F56"/>
</linearGradient>
<linearGradient id="paint34_linear_1694_15129" x1="224.364" y1="169.805" x2="225.535" y2="172.214" gradientUnits="userSpaceOnUse">
<stop stop-color="white"/>
<stop offset="0.506" stop-color="#EBEFF2"/>
</linearGradient>
<linearGradient id="paint35_linear_1694_15129" x1="220.926" y1="224.177" x2="224.239" y2="245.072" gradientUnits="userSpaceOnUse">
<stop stop-color="#FFC444"/>
<stop offset="0.9964" stop-color="#F36F56"/>
</linearGradient>
<linearGradient id="paint36_linear_1694_15129" x1="196.532" y1="221.385" x2="199.845" y2="242.28" gradientUnits="userSpaceOnUse">
<stop stop-color="#FFC444"/>
<stop offset="0.9964" stop-color="#F36F56"/>
</linearGradient>
<linearGradient id="paint37_linear_1694_15129" x1="193.25" y1="197.527" x2="223.047" y2="197.527" gradientUnits="userSpaceOnUse">
<stop stop-color="#311944"/>
<stop offset="1" stop-color="#893976"/>
</linearGradient>
<linearGradient id="paint38_linear_1694_15129" x1="192.303" y1="175.315" x2="213.77" y2="211.372" gradientUnits="userSpaceOnUse">
<stop stop-color="#311944"/>
<stop offset="1" stop-color="#893976"/>
</linearGradient>
<linearGradient id="paint39_linear_1694_15129" x1="200.754" y1="170.284" x2="222.221" y2="206.34" gradientUnits="userSpaceOnUse">
<stop stop-color="#311944"/>
<stop offset="1" stop-color="#893976"/>
</linearGradient>
<linearGradient id="paint40_linear_1694_15129" x1="217.294" y1="148.112" x2="201.163" y2="98.6924" gradientUnits="userSpaceOnUse">
<stop offset="0.0036" stop-color="#A87CF5"/>
<stop offset="1" stop-color="#9571F6"/>
</linearGradient>
<linearGradient id="paint41_linear_1694_15129" x1="196.247" y1="136.585" x2="219.272" y2="183.933" gradientUnits="userSpaceOnUse">
<stop offset="0.0036" stop-color="#D7A3FF"/>
<stop offset="1" stop-color="#9571F6"/>
</linearGradient>
<linearGradient id="paint42_linear_1694_15129" x1="206.275" y1="130.661" x2="210.675" y2="137.655" gradientUnits="userSpaceOnUse">
<stop offset="0.0036" stop-color="#E38DDD"/>
<stop offset="1" stop-color="#9571F6"/>
</linearGradient>
<linearGradient id="paint43_linear_1694_15129" x1="211.587" y1="129.588" x2="206.751" y2="137.411" gradientUnits="userSpaceOnUse">
<stop stop-color="#FFC444"/>
<stop offset="0.3138" stop-color="#FBA94A"/>
<stop offset="0.9964" stop-color="#F36F56"/>
</linearGradient>
<linearGradient id="paint44_linear_1694_15129" x1="209.855" y1="128.528" x2="207.095" y2="136.989" gradientUnits="userSpaceOnUse">
<stop stop-color="#FFC444"/>
<stop offset="0.3138" stop-color="#FBA94A"/>
<stop offset="0.9964" stop-color="#F36F56"/>
</linearGradient>
<linearGradient id="paint45_linear_1694_15129" x1="208.438" y1="96.1745" x2="248.967" y2="160.592" gradientUnits="userSpaceOnUse">
<stop stop-color="#444B8C"/>
<stop offset="0.9964" stop-color="#26264F"/>
</linearGradient>
<linearGradient id="paint46_linear_1694_15129" x1="193.683" y1="137.689" x2="216.33" y2="184.258" gradientUnits="userSpaceOnUse">
<stop offset="0.0036" stop-color="#CA99FD"/>
<stop offset="1" stop-color="#9571F6"/>
</linearGradient>
<linearGradient id="paint47_linear_1694_15129" x1="192.92" y1="138.202" x2="215.945" y2="185.551" gradientUnits="userSpaceOnUse">
<stop offset="0.0036" stop-color="#E38DDD"/>
<stop offset="1" stop-color="#9571F6"/>
</linearGradient>
</defs>
</svg>
