<svg width="353" height="193" viewBox="0 0 353 193" fill="none" xmlns="http://www.w3.org/2000/svg">
<g clip-path="url(#clip0_1483_25390)">
<rect width="353" height="192.712" rx="16.8492" fill="#00A5C5" fill-opacity="0.1"/>
<g opacity="0.2" clip-path="url(#clip1_1483_25390)">
<path d="M260.024 46.3284L345.978 23.297C346.982 23.0275 348.002 22.8225 349.032 22.6831C348.059 20.4038 346.635 18.3451 344.846 16.6311C343.056 14.9171 340.938 13.5832 338.619 12.71C336.299 11.8367 333.827 11.4422 331.352 11.5501C328.876 11.658 326.448 12.2662 324.213 13.3379L256.758 44.3475L256.677 44.3691C252.468 46.4066 249.194 49.9743 247.526 54.3437C250.756 50.4362 255.125 47.6341 260.024 46.3284ZM347.705 29.7436L261.751 52.7749C257.195 54.0011 253.311 56.9848 250.951 61.0711C248.592 65.1575 247.95 70.0129 249.166 74.572L262.985 126.144C264.212 130.701 267.195 134.585 271.282 136.944C275.368 139.303 280.223 139.945 284.782 138.729L370.736 115.698C375.293 114.471 379.177 111.488 381.536 107.401C383.895 103.315 384.537 98.4597 383.321 93.9006L369.502 42.3281C368.276 37.7717 365.292 33.8878 361.206 31.5285C357.12 29.1692 352.264 28.5273 347.705 29.7436ZM348.765 84.7348C347.065 85.1903 345.268 85.1314 343.602 84.5657C341.935 84 340.474 82.9528 339.402 81.5565C338.331 80.1602 337.698 78.4776 337.582 76.7214C337.467 74.9651 337.876 73.2142 338.756 71.69C339.636 70.1659 340.948 68.9368 342.526 68.1584C344.105 67.38 345.879 67.0871 347.623 67.3169C349.368 67.5466 351.006 68.2886 352.329 69.449C353.652 70.6094 354.602 72.1362 355.057 73.8362C355.668 76.1159 355.348 78.5448 354.168 80.5887C352.988 82.6325 351.045 84.1239 348.765 84.7348Z" fill="url(#paint0_linear_1483_25390)"/>
</g>
<g opacity="0.3">
<path d="M1091.71 855.112L1078.88 820.625C1066.06 786.139 1040.41 717.166 992.801 694.674C945.194 672.182 875.626 696.17 825.822 678.326C776.019 660.482 745.979 600.805 713.743 545.776C681.507 490.748 647.075 440.367 590.683 436.467C534.291 432.567 455.94 475.147 399.548 471.247C343.157 467.347 308.725 416.967 258.921 399.122C209.117 381.278 143.942 395.97 87.5499 392.07C31.1582 388.17 -16.4496 365.678 -40.2535 354.432L-64.0574 343.186" stroke="#FDFDFD" stroke-width="1.05307"/>
<path d="M1070.32 819.782L1057.5 785.296C1044.68 750.809 1019.03 681.837 971.42 659.344C923.812 636.852 854.245 660.84 804.441 642.996C754.637 625.152 724.597 565.475 692.361 510.447C660.125 455.418 625.693 405.038 569.301 401.138C512.91 397.237 434.559 439.818 378.167 435.918C321.775 432.018 287.343 381.637 237.539 363.793C187.736 345.949 122.56 360.641 66.1685 356.741C9.77687 352.84 -37.8309 330.348 -61.6348 319.102L-85.4387 307.856" stroke="#FDFDFD" stroke-width="1.05307"/>
<path d="M1048.94 784.453L1036.12 749.966C1023.29 715.48 997.647 646.507 950.039 624.015C902.431 601.523 832.864 625.511 783.06 607.667C733.256 589.823 703.216 530.146 670.98 475.117C638.744 420.089 604.312 369.708 547.92 365.808C491.528 361.908 413.177 404.488 356.786 400.588C300.394 396.688 265.962 346.308 216.158 328.463C166.354 310.619 101.179 325.311 44.7872 321.411C-11.6045 317.511 -59.2123 295.019 -83.0162 283.773L-106.82 272.527" stroke="#FDFDFD" stroke-width="1.05307"/>
<path d="M1027.56 749.123L1014.74 714.637C1001.91 680.15 976.265 611.178 928.657 588.685C881.049 566.193 811.482 590.181 761.678 572.337C711.874 554.493 681.834 494.816 649.598 439.788C617.362 384.759 582.93 334.378 526.538 330.478C470.147 326.578 391.795 369.159 335.404 365.258C279.012 361.358 244.58 310.978 194.776 293.134C144.973 275.289 79.797 289.981 23.4053 286.081C-32.9863 282.181 -80.5941 259.689 -104.398 248.443L-128.202 237.197" stroke="#FDFDFD" stroke-width="1.05307"/>
<path d="M1006.18 713.794L993.356 679.307C980.532 644.821 954.883 575.848 907.276 553.356C859.668 530.864 790.1 554.852 740.297 537.008C690.493 519.163 660.453 459.487 628.217 404.458C595.981 349.43 561.549 299.049 505.157 295.149C448.765 291.249 370.414 333.829 314.022 329.929C257.631 326.029 223.199 275.649 173.395 257.804C123.591 239.96 58.4156 254.652 2.02399 250.752C-54.3677 246.852 -101.975 224.36 -125.779 213.114L-149.583 201.867" stroke="#FDFDFD" stroke-width="1.05307"/>
<path d="M984.798 678.464L971.974 643.978C959.15 609.492 933.502 540.519 885.894 518.027C838.286 495.534 768.719 519.523 718.915 501.678C669.111 483.834 639.071 424.157 606.835 369.129C574.599 314.1 540.167 263.72 483.776 259.82C427.384 255.92 349.033 298.5 292.641 294.6C236.249 290.7 201.817 240.319 152.014 222.475C102.21 204.631 37.0343 219.323 -19.3574 215.423C-75.749 211.523 -123.357 189.03 -147.161 177.784L-170.965 166.538" stroke="#FDFDFD" stroke-width="1.05307"/>
<path d="M963.417 643.135L950.592 608.649C937.768 574.162 912.12 505.19 864.512 482.697C816.905 460.205 747.337 484.193 697.533 466.349C647.73 448.505 617.69 388.828 585.454 333.8C553.217 278.771 518.785 228.39 462.394 224.49C406.002 220.59 327.651 263.171 271.259 259.27C214.868 255.37 180.436 204.99 130.632 187.146C80.828 169.301 15.6525 183.993 -40.7392 180.093C-97.1308 176.193 -144.739 153.701 -168.543 142.455L-192.346 131.209" stroke="#FDFDFD" stroke-width="1.05307"/>
<path d="M942.035 607.805L929.211 573.319C916.387 538.832 890.738 469.86 843.131 447.367C795.523 424.875 725.955 448.863 676.152 431.019C626.348 413.175 596.308 353.498 564.072 298.47C531.836 243.441 497.404 193.061 441.012 189.16C384.62 185.26 306.269 227.841 249.877 223.941C193.486 220.041 159.054 169.66 109.25 151.816C59.4461 133.972 -5.72937 148.664 -62.121 144.764C-118.513 140.863 -166.12 118.371 -189.924 107.125L-213.728 95.8789" stroke="#FDFDFD" stroke-width="1.05307"/>
<path d="M920.653 572.476L907.829 537.989C895.005 503.503 869.357 434.53 821.749 412.038C774.141 389.546 704.574 413.534 654.77 395.69C604.966 377.846 574.926 318.169 542.69 263.14C510.454 208.112 476.022 157.731 419.631 153.831C363.239 149.931 284.888 192.511 228.496 188.611C172.104 184.711 137.672 134.331 87.8686 116.486C38.0648 98.6422 -27.1107 113.334 -83.5024 109.434C-139.894 105.534 -187.502 83.0418 -211.306 71.7957L-235.11 60.5495" stroke="#FDFDFD" stroke-width="1.05307"/>
</g>
</g>
<rect x="0.5" y="0.5" width="352" height="191.712" rx="16.3492" stroke="white" stroke-opacity="0.1"/>
<defs>
<linearGradient id="paint0_linear_1483_25390" x1="298.972" y1="19.7757" x2="327.759" y2="127.213" gradientUnits="userSpaceOnUse">
<stop stop-color="white"/>
<stop offset="1" stop-color="white"/>
</linearGradient>
<clipPath id="clip0_1483_25390">
<rect width="353" height="192.712" rx="16.8492" fill="white"/>
</clipPath>
<clipPath id="clip1_1483_25390">
<rect width="142.378" height="142.378" fill="white" transform="translate(226.887 25.2666) rotate(-15)"/>
</clipPath>
</defs>
</svg>
