<svg width="25" height="25" viewBox="0 0 25 25" fill="none" xmlns="http://www.w3.org/2000/svg">
<path d="M2.5 9.06907C2.5 7.87289 2.98238 7.13982 3.98063 6.58428L8.08987 4.29744C10.2431 3.09915 11.3197 2.5 12.5 2.5C13.6803 2.5 14.7569 3.09915 16.9101 4.29744L21.0194 6.58428C22.0176 7.13982 22.5 7.8729 22.5 9.06907C22.5 9.39343 22.5 9.55561 22.4646 9.68894C22.2785 10.3894 21.6437 10.5 21.0307 10.5H3.96928C3.35627 10.5 2.72152 10.3894 2.53542 9.68894C2.5 9.55561 2.5 9.39343 2.5 9.06907Z" stroke="#14EEF8" stroke-width="1.5"/>
<path d="M12.4959 7.5H12.5049" stroke="#14EEF8" stroke-width="2" stroke-linecap="round" stroke-linejoin="round"/>
<path d="M4.5 10.5V19M8.5 10.5V19" stroke="#14EEF8" stroke-width="1.5"/>
<path d="M16.5 10.5V19M20.5 10.5V19" stroke="#14EEF8" stroke-width="1.5"/>
<path d="M19.5 19H5.5C3.84315 19 2.5 20.3431 2.5 22C2.5 22.2761 2.72386 22.5 3 22.5H22C22.2761 22.5 22.5 22.2761 22.5 22C22.5 20.3431 21.1569 19 19.5 19Z" stroke="#14EEF8" stroke-width="1.5"/>
</svg>
