<svg width="25" height="25" viewBox="0 0 25 25" fill="none" xmlns="http://www.w3.org/2000/svg">
<path d="M4.08984 18.677C3.94055 18.5742 3.80166 18.4585 3.67157 18.3284C2.5 17.1569 2.5 15.2712 2.5 11.5C2.5 7.72876 2.5 5.84315 3.67157 4.67157C4.84315 3.5 6.72876 3.5 10.5 3.5H14.5C18.2712 3.5 20.1569 3.5 21.3284 4.67157C22.5 5.84315 22.5 7.72876 22.5 11.5C22.5 15.2712 22.5 17.1569 21.3284 18.3284C21.1983 18.4585 21.0595 18.5742 20.9102 18.677" stroke="#14EEF8" stroke-width="1.5" stroke-linecap="round"/>
<path d="M9.1863 17.426C8.32171 17.9525 6.05483 19.0276 7.43552 20.3729C8.10997 21.03 8.86113 21.5 9.80553 21.5H15.1945C16.1389 21.5 16.89 21.03 17.5645 20.3729C18.9452 19.0276 16.6783 17.9525 15.8137 17.426C13.7863 16.1913 11.2137 16.1913 9.1863 17.426Z" stroke="#14EEF8" stroke-width="1.5" stroke-linecap="round" stroke-linejoin="round"/>
<path d="M15 11.5C15 12.8807 13.8807 14 12.5 14C11.1193 14 10 12.8807 10 11.5C10 10.1193 11.1193 9 12.5 9C13.8807 9 15 10.1193 15 11.5Z" stroke="#14EEF8" stroke-width="1.5"/>
</svg>
