<svg width="25" height="24" viewBox="0 0 25 24" fill="none" xmlns="http://www.w3.org/2000/svg">
<path d="M15.5 5.66406C15.937 5.66406 16.2822 5.85079 16.5674 6.06836C16.8351 6.27268 17.1261 6.56559 17.4443 6.88379L17.6162 7.05566C17.9344 7.37386 18.2273 7.66487 18.4316 7.93262C18.6492 8.21777 18.8359 8.56297 18.8359 9C18.8359 9.43702 18.6492 9.78223 18.4316 10.0674C18.2273 10.3351 17.9344 10.6261 17.6162 10.9443L10.4219 18.1387C10.2554 18.3051 10.0779 18.4914 9.85059 18.6201C9.62333 18.7487 9.37283 18.8052 9.14453 18.8623L6.52637 19.5156L6.52344 19.5176L6.49023 19.5254C6.33421 19.5644 6.13429 19.617 5.96289 19.6338C5.78218 19.6515 5.42581 19.6524 5.13672 19.3633C4.84762 19.0742 4.84853 18.7178 4.86621 18.5371C4.88298 18.3657 4.9356 18.1658 4.97461 18.0098L5.6377 15.3555C5.69477 15.1272 5.75131 14.8767 5.87988 14.6494C6.00858 14.4221 6.19486 14.2446 6.36133 14.0781L13.5557 6.88379C13.8739 6.56559 14.1649 6.27268 14.4326 6.06836C14.7178 5.85079 15.063 5.66406 15.5 5.66406Z" stroke="#14EEF8" stroke-width="1.5"/>
<path d="M13 7.5L17 11.5" stroke="#14EEF8" stroke-width="1.5"/>
</svg>
