<svg width="25" height="25" viewBox="0 0 25 25" fill="none" xmlns="http://www.w3.org/2000/svg">
<path d="M11.5 11H12C12.2761 11 12.5 11.2239 12.5 11.5V15.5C12.5 15.7761 12.7239 16 13 16H13.5M12.5 9H12.51" stroke="#14EEF8" stroke-width="1.5" stroke-linecap="round" stroke-linejoin="round"/>
<path d="M13.8892 20.3785C14.9238 20.196 15.9124 19.8116 16.7984 19.2471C17.6844 18.6827 18.4506 17.9492 19.0532 17.0886C19.6558 16.228 20.083 15.2572 20.3104 14.2315C20.5378 13.2058 20.5609 12.1454 20.3785 11.1108C20.196 10.0762 19.8116 9.08765 19.2471 8.2016C18.6827 7.31556 17.9492 6.54937 17.0886 5.94678C16.228 5.3442 15.2572 4.91702 14.2315 4.68963C13.2058 4.46225 12.1454 4.43911 11.1108 4.62154C10.0762 4.80397 9.08765 5.1884 8.2016 5.75287C7.31556 6.31734 6.54937 7.05081 5.94678 7.91139C5.3442 8.77197 4.91702 9.74281 4.68963 10.7685C4.46225 11.7942 4.43911 12.8546 4.62154 13.8892C4.80397 14.9238 5.1884 15.9124 5.75287 16.7984C6.31734 17.6844 7.05081 18.4506 7.91139 19.0532C8.77197 19.6558 9.74281 20.083 10.7685 20.3104C11.7942 20.5378 12.8546 20.5609 13.8892 20.3785L13.8892 20.3785Z" stroke="#14EEF8" stroke-width="1.5"/>
</svg>
