<svg width="25" height="25" viewBox="0 0 25 25" fill="none" xmlns="http://www.w3.org/2000/svg">
<path d="M18.5 3.50001V3.50001C20.1569 3.50001 21.5 4.84315 21.5 6.50001L21.5 8.64286C21.5 8.97698 21.5 9.14405 21.4234 9.26602C21.3834 9.32962 21.3296 9.3834 21.266 9.42336C21.144 9.5 20.977 9.5 20.6429 9.5L15.5 9.5M18.5 3.50001V3.50001C16.8431 3.50001 15.5 4.84315 15.5 6.50001L15.5 9.5M18.5 3.50001L7.5 3.50001C5.61438 3.50001 4.67157 3.50001 4.08579 4.08579C3.5 4.67158 3.5 5.61439 3.5 7.50001L3.5 21.5L6.5 20.5L9.5 21.5L12.5 20.5L15.5 21.5L15.5 9.5" stroke="#14EEF8" stroke-width="1.5"/>
<path d="M7.5 7.5L11.5 7.5" stroke="#14EEF8" stroke-width="1.5" stroke-linecap="round"/>
<path d="M8.5 11.5H7.5" stroke="#14EEF8" stroke-width="1.5" stroke-linecap="round"/>
<path d="M7.5 15.5L10.5 15.5" stroke="#14EEF8" stroke-width="1.5" stroke-linecap="round"/>
</svg>
