<svg width="25" height="25" viewBox="0 0 25 25" fill="none" xmlns="http://www.w3.org/2000/svg">
<path d="M12.5 4.5L12.5 3.75H12.5L12.5 4.5ZM14.7119 5.01562L15.0437 4.343L15.0436 4.34297L14.7119 5.01562ZM16.4668 6.45605L17.0618 5.99948L17.0618 5.99947L16.4668 6.45605ZM17.4043 8.52441L18.1399 8.3781L18.1399 8.37809L17.4043 8.52441ZM7.5957 8.52441L6.86012 8.37809L6.86011 8.3781L7.5957 8.52441ZM8.5332 6.45605L7.9382 5.99947L7.93819 5.99948L8.5332 6.45605ZM10.2881 5.01562L9.95637 4.34297L9.95631 4.343L10.2881 5.01562ZM7.52592 8.99882L6.77944 8.9263L7.52592 8.99882ZM8.42388 15.8827L9.11679 16.1697L8.42388 15.8827ZM7.88268 16.4239L8.1697 17.1168L7.88268 16.4239ZM17.1173 16.4239L17.4043 15.731L17.1173 16.4239ZM16.5761 15.8827L17.269 15.5957L16.5761 15.8827ZM17.4741 8.99882L16.7276 9.07133L17.4741 8.99882ZM12.5 4.5L12.5 5.25C13.152 5.25 13.7956 5.39999 14.3802 5.68828L14.7119 5.01562L15.0436 4.34297C14.2525 3.95285 13.3819 3.75 12.5 3.75L12.5 4.5ZM14.7119 5.01562L14.3801 5.68825C14.9646 5.97653 15.475 6.39552 15.8718 6.91264L16.4668 6.45605L17.0618 5.99947C16.525 5.29997 15.8346 4.7331 15.0437 4.343L14.7119 5.01562ZM16.4668 6.45605L15.8718 6.91263C16.2687 7.42996 16.5416 8.03158 16.6687 8.67074L17.4043 8.52441L18.1399 8.37809C17.9678 7.51289 17.5986 6.69903 17.0618 5.99948L16.4668 6.45605ZM17.4043 8.52441L16.6687 8.67073C16.695 8.8027 16.7145 8.93637 16.7276 9.07133L17.4741 8.99882L18.2206 8.9263C18.2028 8.74358 18.1762 8.56059 18.1399 8.3781L17.4043 8.52441ZM18 9.5V10.25C19.5188 10.25 20.75 11.4812 20.75 13H21.5H22.25C22.25 10.6528 20.3472 8.75 18 8.75V9.5ZM21.5 13H20.75C20.75 14.5188 19.5188 15.75 18 15.75V16.5V17.25C20.3472 17.25 22.25 15.3472 22.25 13H21.5ZM16.5 15H17.25V12.5557H16.5H15.75V15H16.5ZM16.5 12.5557H17.25C17.25 11.5892 16.4665 10.8057 15.5 10.8057V11.5557V12.3057C15.6381 12.3057 15.75 12.4176 15.75 12.5557H16.5ZM15.5 11.5557V10.8057H9.5V11.5557V12.3057H15.5V11.5557ZM9.5 11.5557V10.8057C8.5335 10.8057 7.75 11.5892 7.75 12.5557H8.5H9.25C9.25 12.4176 9.36193 12.3057 9.5 12.3057V11.5557ZM8.5 12.5557H7.75V15H8.5H9.25V12.5557H8.5ZM7 16.5V15.75C5.48122 15.75 4.25 14.5188 4.25 13H3.5H2.75C2.75 15.3472 4.65279 17.25 7 17.25V16.5ZM3.5 13H4.25C4.25 11.4812 5.48122 10.25 7 10.25L7 9.5L7 8.75C4.65279 8.75 2.75 10.6528 2.75 13H3.5ZM7.52592 8.99882L8.27241 9.07133C8.28552 8.93637 8.30504 8.8027 8.33129 8.67073L7.5957 8.52441L6.86011 8.3781C6.82381 8.56059 6.79719 8.74358 6.77944 8.9263L7.52592 8.99882ZM7.5957 8.52441L8.33129 8.67074C8.45843 8.03158 8.73126 7.42996 9.12822 6.91263L8.5332 6.45605L7.93819 5.99948C7.40141 6.69903 7.03223 7.51289 6.86012 8.37809L7.5957 8.52441ZM8.5332 6.45605L9.12821 6.91264C9.52503 6.39552 10.0354 5.97653 10.6199 5.68825L10.2881 5.01562L9.95631 4.343C9.16544 4.7331 8.47496 5.29997 7.9382 5.99947L8.5332 6.45605ZM10.2881 5.01562L10.6198 5.68828C11.2044 5.39999 11.848 5.25 12.5 5.25L12.5 4.5L12.5 3.75C11.6181 3.75 10.7475 3.95285 9.95637 4.34297L10.2881 5.01562ZM7 9.5V10.25C7.70829 10.25 8.21278 9.68513 8.27241 9.07133L7.52592 8.99882L6.77944 8.9263C6.78332 8.88635 6.8012 8.84705 6.83428 8.81492C6.8696 8.78061 6.92841 8.75 7 8.75V9.5ZM8.5 15H7.75C7.75 15.2432 7.74959 15.3881 7.74222 15.4961C7.73531 15.5974 7.72487 15.6104 7.73097 15.5957L8.42388 15.8827L9.11679 16.1697C9.19901 15.9712 9.22662 15.7759 9.23875 15.5982C9.25041 15.4273 9.25 15.2227 9.25 15H8.5ZM7 16.5V17.25C7.22271 17.25 7.4273 17.2504 7.59821 17.2387C7.77585 17.2266 7.97119 17.199 8.1697 17.1168L7.88268 16.4239L7.59567 15.731C7.6104 15.7249 7.59737 15.7353 7.4961 15.7422C7.3881 15.7496 7.24323 15.75 7 15.75V16.5ZM8.42388 15.8827L7.73097 15.5957C7.7056 15.6569 7.65693 15.7056 7.59567 15.731L7.88268 16.4239L8.1697 17.1168C8.5985 16.9392 8.93917 16.5985 9.11679 16.1697L8.42388 15.8827ZM18 16.5V15.75C17.7568 15.75 17.6119 15.7496 17.5039 15.7422C17.4026 15.7353 17.3896 15.7249 17.4043 15.731L17.1173 16.4239L16.8303 17.1168C17.0288 17.199 17.2241 17.2266 17.4018 17.2387C17.5727 17.2504 17.7773 17.25 18 17.25V16.5ZM16.5 15H15.75C15.75 15.2227 15.7496 15.4273 15.7613 15.5982C15.7734 15.7759 15.801 15.9712 15.8832 16.1697L16.5761 15.8827L17.269 15.5957C17.2751 15.6104 17.2647 15.5974 17.2578 15.4961C17.2504 15.3881 17.25 15.2432 17.25 15H16.5ZM17.1173 16.4239L17.4043 15.731C17.3431 15.7056 17.2944 15.6569 17.269 15.5957L16.5761 15.8827L15.8832 16.1697C16.0608 16.5985 16.4015 16.9392 16.8303 17.1168L17.1173 16.4239ZM17.4741 8.99882L16.7276 9.07133C16.7872 9.68513 17.2917 10.25 18 10.25V9.5V8.75C18.0716 8.75 18.1304 8.78061 18.1657 8.81492C18.1988 8.84705 18.2167 8.88635 18.2206 8.9263L17.4741 8.99882Z" fill="#14EEF8"/>
<rect x="8.5" y="11.5" width="8" height="10" rx="2" stroke="#14EEF8" stroke-width="1.5"/>
<path d="M12 16.5H13" stroke="#14EEF8" stroke-width="1.5" stroke-linecap="round"/>
</svg>
