<svg width="25" height="24" viewBox="0 0 25 24" fill="none" xmlns="http://www.w3.org/2000/svg">
<path d="M18.0172 12.5555C18.0078 10.957 18.732 9.75234 20.1945 8.86406C19.3766 7.69219 18.1391 7.04766 16.5078 6.92344C14.9633 6.80156 13.2734 7.82344 12.6547 7.82344C12.0008 7.82344 10.5055 6.96563 9.32891 6.96563C6.90078 7.00313 4.32031 8.90156 4.32031 12.7641C4.32031 13.9055 4.52891 15.0844 4.94609 16.2984C5.50391 17.8969 7.51484 21.8133 9.6125 21.75C10.7094 21.7242 11.4852 20.9719 12.9125 20.9719C14.2977 20.9719 15.0148 21.75 16.2383 21.75C18.3547 21.7195 20.1734 18.1594 20.7031 16.5563C17.8648 15.218 18.0172 12.6375 18.0172 12.5555ZM17.7687 18.8133C17.4336 19.2797 17.0961 19.6477 16.7867 19.8844C16.5406 20.0719 16.3508 20.1516 16.2242 20.1563C16.0133 20.1539 15.8094 20.1023 15.4109 19.95C15.3828 19.9383 15.3523 19.9266 15.3125 19.9125L15.2094 19.8727C14.8016 19.7156 14.5578 19.6313 14.2461 19.5492C13.8102 19.4367 13.3766 19.3758 12.9125 19.3758C12.4391 19.3758 11.9938 19.4344 11.5508 19.5445C11.225 19.6266 10.9508 19.718 10.55 19.868C10.5336 19.875 10.3602 19.9406 10.3109 19.9594C10.2289 19.9898 10.1656 20.0133 10.107 20.0344C9.86328 20.1188 9.70859 20.1539 9.57031 20.1563C9.55391 20.1563 9.53984 20.1539 9.52813 20.1516C9.50234 20.1469 9.46953 20.1375 9.43203 20.1211C9.32656 20.0789 9.2 20.0016 9.05703 19.8914C8.72891 19.6359 8.36797 19.2352 8 18.7219C7.35547 17.8172 6.74609 16.6172 6.45312 15.7758C6.09219 14.7258 5.91406 13.7203 5.91406 12.7617C5.91406 11.3508 6.33125 10.2773 7.04844 9.54844C7.66484 8.925 8.49453 8.57578 9.34063 8.55703C9.47891 8.55938 9.68047 8.59219 9.93594 8.6625C10.1375 8.71641 10.3578 8.78906 10.6555 8.89453C10.7445 8.92734 11.0516 9.0375 11.0891 9.05156C11.2695 9.11719 11.4055 9.16406 11.5391 9.20625C11.9656 9.34219 12.2961 9.41719 12.6547 9.41719C13.018 9.41719 13.3297 9.33984 13.7727 9.1875C13.9391 9.13125 14.5437 8.90625 14.6516 8.86875C15.2516 8.65547 15.6945 8.54063 16.0766 8.5125C16.1891 8.50313 16.2898 8.50313 16.3859 8.51016C16.918 8.55234 17.3727 8.65781 17.7594 8.83359C16.8781 9.85078 16.4234 11.0953 16.4258 12.5461C16.4187 12.8906 16.4469 13.2891 16.5453 13.7602C16.6953 14.475 16.9812 15.1828 17.4336 15.8461C17.7781 16.35 18.2047 16.8047 18.7156 17.2008C18.4461 17.7563 18.1156 18.3305 17.7687 18.8133ZM15.5539 5.40703C16.7422 3.99609 16.6344 2.71172 16.5992 2.25C15.5492 2.31094 14.3352 2.96484 13.6437 3.76875C12.882 4.63125 12.4344 5.69766 12.5305 6.9C13.6648 6.98672 14.7008 6.40313 15.5539 5.40703Z" fill="white" fill-opacity="0.45"/>
</svg>
