<svg width="73" height="72" viewBox="0 0 73 72" fill="none" xmlns="http://www.w3.org/2000/svg">
<rect x="0.5" width="72" height="72" rx="36" fill="#28A15C" fill-opacity="0.1"/>
<path d="M12.5 34.4164C12.5 30.808 12.5 29.0037 13.3961 27.5538C14.2922 26.1039 15.9059 25.297 19.1334 23.6833L31.1334 17.6833C33.7669 16.3666 35.0836 15.7082 36.5 15.7082C37.9164 15.7082 39.2331 16.3666 41.8666 17.6833L53.8666 23.6833C57.0941 25.297 58.7078 26.1039 59.6039 27.5538C60.5 29.0037 60.5 30.808 60.5 34.4164V45C60.5 50.6569 60.5 53.4853 58.7426 55.2426C56.9853 57 54.1569 57 48.5 57H24.5C18.8431 57 16.0147 57 14.2574 55.2426C12.5 53.4853 12.5 50.6569 12.5 45V34.4164Z" fill="#00C1C9" fill-opacity="0.2"/>
<path d="M12.5 51V30.7281C12.5 30.3936 12.852 30.176 13.1512 30.3256L32.4751 39.9875C35.0088 41.2544 37.9912 41.2544 40.5249 39.9875L59.8488 30.3256C60.148 30.176 60.5 30.3936 60.5 30.7281V51C60.5 54.3137 57.8137 57 54.5 57H18.5C15.1863 57 12.5 54.3137 12.5 51Z" fill="#00C1C9"/>
</svg>
