<svg width="22" height="22" viewBox="0 0 22 22" fill="none" xmlns="http://www.w3.org/2000/svg">
<path d="M19.3584 12.3567C18.1689 13.546 15.9308 13.4998 12.4992 13.4998C10.2914 13.4998 8.50138 11.7071 8.50024 9.49933C8.50024 6.07001 8.454 3.83065 9.64346 2.64138C10.8329 1.45212 11.3583 1.50027 16.6274 1.50027C17.1366 1.49809 17.3929 2.11389 17.0329 2.47394L14.3199 5.18714C13.6313 5.87582 13.6294 6.99233 14.3181 7.68092C15.0068 8.36952 16.1234 8.36959 16.8122 7.68109L19.5259 4.96855C19.886 4.60859 20.5019 4.86483 20.4997 5.37395C20.4997 10.6422 20.5479 11.1675 19.3584 12.3567Z" stroke="white" stroke-width="1.5"/>
<path d="M12.5 13.5L6.32842 19.6716C5.22386 20.7761 3.433 20.7761 2.32843 19.6716C1.22386 18.567 1.22386 16.7761 2.32843 15.6716L8.5 9.5" stroke="white" stroke-width="1.5" stroke-linecap="round"/>
<path d="M4.50896 17.5H4.5" stroke="white" stroke-width="2" stroke-linecap="round" stroke-linejoin="round"/>
</svg>
