<svg width="25" height="24" viewBox="0 0 25 24" fill="none" xmlns="http://www.w3.org/2000/svg">
<path d="M18.5 7C16.8288 6.37209 14.7513 6 12.5 6C10.2487 6 8.17122 6.37209 6.5 7" stroke="white" stroke-width="1.5" stroke-linecap="round"/>
<path d="M7.5 7V8.72517C7.5 10.5184 8.42149 12.1802 9.92752 13.1028L10.442 13.418C11.7087 14.194 13.2913 14.194 14.558 13.418L15.0725 13.1028C16.5785 12.1802 17.5 10.5184 17.5 8.72517V7" stroke="white" stroke-width="1.5" stroke-linecap="round"/>
<path d="M7.5 8V5.95612C7.5 4.61118 8.42149 3.36487 9.92752 2.6729L10.442 2.43651C11.7087 1.8545 13.2913 1.8545 14.558 2.43651L15.0725 2.6729C16.5785 3.36487 17.5 4.61118 17.5 5.95612V8" stroke="white" stroke-width="1.5" stroke-linecap="round"/>
<path d="M15.5 13L16.5 16M16.5 16L15.1312 17.1954C13.8773 18.2905 13.2504 18.838 12.5 18.838C11.7496 18.838 11.1227 18.2905 9.86884 17.1954L8.5 16M16.5 16L18.2341 16.578C19.2322 16.9107 19.7312 17.0771 20.1742 17.3342C20.6079 17.5859 21.0012 17.9014 21.341 18.2701C21.6881 18.6468 22.5 20 22.5 22M9.5 13L8.5 16M8.5 16L6.76586 16.578C5.7678 16.9107 5.26877 17.0771 4.82577 17.3342C4.39213 17.5859 3.99882 17.9014 3.65903 18.2701C3.31191 18.6468 2.5 20 2.5 22" stroke="white" stroke-width="1.5" stroke-linecap="round" stroke-linejoin="round"/>
</svg>
